<svg width="36" height="37" viewBox="0 0 36 37" fill="none" xmlns="http://www.w3.org/2000/svg">
<rect y="0.689209" width="36" height="36" rx="18" fill="#CDEEE4"/>
<g filter="url(#filter0_d_119_1451)">
<path d="M25.1367 15.283C25.8398 14.7556 26.4727 14.1228 26.9648 13.3845C26.332 13.6658 25.5938 13.8767 24.8555 13.947C25.6289 13.49 26.1914 12.7869 26.4727 11.908C25.7695 12.3298 24.9609 12.6462 24.1523 12.822C23.4492 12.0837 22.5 11.6619 21.4453 11.6619C19.4062 11.6619 17.7539 13.3142 17.7539 15.3533C17.7539 15.6345 17.7891 15.9158 17.8594 16.197C14.8008 16.0212 12.0586 14.5447 10.2305 12.3298C9.91406 12.8572 9.73828 13.49 9.73828 14.1931C9.73828 15.4587 10.3711 16.5837 11.3906 17.2517C10.793 17.2166 10.1953 17.0759 9.70312 16.7947V16.8298C9.70312 18.6228 10.9688 20.0994 12.6562 20.4509C12.375 20.5212 12.0234 20.5916 11.707 20.5916C11.4609 20.5916 11.25 20.5564 11.0039 20.5212C11.4609 21.9978 12.832 23.0525 14.4492 23.0876C13.1836 24.072 11.6016 24.6697 9.87891 24.6697C9.5625 24.6697 9.28125 24.6345 9 24.5994C10.6172 25.6541 12.5508 26.2517 14.6602 26.2517C21.4453 26.2517 25.1367 20.6619 25.1367 15.7751C25.1367 15.5994 25.1367 15.4587 25.1367 15.283Z" fill="#231F20"/>
<path d="M25.1367 15.283L24.5367 14.483L24.1367 14.783V15.283H25.1367ZM26.9648 13.3845L27.7969 13.9392L29.7095 11.0704L26.5587 12.4707L26.9648 13.3845ZM24.8555 13.947L24.3467 13.0861L24.9503 14.9425L24.8555 13.947ZM26.4727 11.908L27.4251 12.2127L28.234 9.68499L25.9582 11.0505L26.4727 11.908ZM24.1523 12.822L23.4282 13.5117L23.8157 13.9186L24.3648 13.7992L24.1523 12.822ZM17.8594 16.197L17.802 17.1954L19.1592 17.2734L18.8295 15.9545L17.8594 16.197ZM10.2305 12.3298L11.0017 11.6933L10.101 10.602L9.37298 11.8153L10.2305 12.3298ZM11.3906 17.2517L11.3319 18.25L15.0751 18.4702L11.9387 16.4152L11.3906 17.2517ZM9.70312 16.7947L10.1993 15.9264L8.70312 15.0715V16.7947H9.70312ZM12.6562 20.4509L12.8988 21.4211L12.8602 19.4719L12.6562 20.4509ZM11.0039 20.5212L11.1453 19.5313L9.58154 19.3079L10.0486 20.8169L11.0039 20.5212ZM14.4492 23.0876L15.0632 23.877L17.2848 22.1491L14.471 22.0879L14.4492 23.0876ZM9 24.5994L9.12403 23.6071L8.45373 25.437L9 24.5994ZM25.7367 16.083C26.5152 15.4991 27.232 14.7866 27.7969 13.9392L26.1328 12.8298C25.7133 13.459 25.1645 14.0121 24.5367 14.483L25.7367 16.083ZM26.5587 12.4707C26.0137 12.713 25.3801 12.8925 24.7607 12.9515L24.9503 14.9425C25.8074 14.8609 26.6504 14.6186 27.371 14.2983L26.5587 12.4707ZM25.3642 14.8079C26.3509 14.2249 27.0699 13.3227 27.4251 12.2127L25.5202 11.6032C25.3129 12.251 24.9069 12.7551 24.3467 13.0861L25.3642 14.8079ZM25.9582 11.0505C25.3515 11.4145 24.6454 11.6915 23.9399 11.8448L24.3648 13.7992C25.2765 13.601 26.1876 13.2452 26.9872 12.7655L25.9582 11.0505ZM24.8765 12.1324C23.9881 11.1996 22.7787 10.6619 21.4453 10.6619V12.6619C22.2213 12.6619 22.9103 12.9679 23.4282 13.5117L24.8765 12.1324ZM21.4453 10.6619C18.854 10.6619 16.7539 12.7619 16.7539 15.3533H18.7539C18.7539 13.8665 19.9585 12.6619 21.4453 12.6619V10.6619ZM16.7539 15.3533C16.7539 15.7188 16.7997 16.0814 16.8892 16.4396L18.8295 15.9545C18.7784 15.7501 18.7539 15.5503 18.7539 15.3533H16.7539ZM17.9168 15.1987C15.1457 15.0394 12.6588 13.701 11.0017 11.6933L9.45925 12.9664C11.4583 15.3884 14.4558 17.0031 17.802 17.1954L17.9168 15.1987ZM9.37298 11.8153C8.9572 12.5083 8.73828 13.321 8.73828 14.1931H10.7383C10.7383 13.659 10.8709 13.2061 11.088 12.8443L9.37298 11.8153ZM8.73828 14.1931C8.73828 15.8028 9.5468 17.2392 10.8426 18.0882L11.9387 16.4152C11.1954 15.9283 10.7383 15.1147 10.7383 14.1931H8.73828ZM11.4493 16.2534C10.9571 16.2245 10.521 16.1103 10.1993 15.9264L9.20699 17.6629C9.86962 18.0416 10.6289 18.2086 11.3319 18.25L11.4493 16.2534ZM8.70312 16.7947V16.8298H10.7031V16.7947H8.70312ZM8.70312 16.8298C8.70312 19.1112 10.3157 20.9848 12.4523 21.4299L12.8602 19.4719C11.6218 19.2139 10.7031 18.1344 10.7031 16.8298H8.70312ZM12.4137 19.4808C12.1542 19.5457 11.8983 19.5916 11.707 19.5916V21.5916C12.1486 21.5916 12.5958 21.4968 12.8988 21.4211L12.4137 19.4808ZM11.707 19.5916C11.5488 19.5916 11.4206 19.5706 11.1453 19.5313L10.8625 21.5112C11.0794 21.5422 11.3731 21.5916 11.707 21.5916V19.5916ZM10.0486 20.8169C10.6336 22.707 12.3825 24.043 14.4275 24.0874L14.471 22.0879C13.2815 22.062 12.2882 21.2886 11.9592 20.2256L10.0486 20.8169ZM13.8353 22.2983C12.7339 23.1549 11.3653 23.6697 9.87891 23.6697V25.6697C11.8378 25.6697 13.6333 24.9891 15.0632 23.877L13.8353 22.2983ZM9.87891 23.6697C9.63331 23.6697 9.41053 23.6429 9.12403 23.6071L8.87597 25.5916C9.15197 25.6261 9.49169 25.6697 9.87891 25.6697V23.6697ZM8.45373 25.437C10.2344 26.5983 12.358 27.2517 14.6602 27.2517V25.2517C12.7435 25.2517 10.9999 24.7098 9.54627 23.7618L8.45373 25.437ZM14.6602 27.2517C22.1121 27.2517 26.1367 21.0923 26.1367 15.7751H24.1367C24.1367 20.2315 20.7786 25.2517 14.6602 25.2517V27.2517ZM26.1367 15.7751C26.1367 15.7748 26.1367 15.7745 26.1367 15.7741C26.1367 15.7738 26.1367 15.7734 26.1367 15.7731C26.1367 15.7727 26.1367 15.7724 26.1367 15.7721C26.1367 15.7717 26.1367 15.7714 26.1367 15.771C26.1367 15.7707 26.1367 15.7703 26.1367 15.77C26.1367 15.7697 26.1367 15.7693 26.1367 15.769C26.1367 15.7686 26.1367 15.7683 26.1367 15.768C26.1367 15.7676 26.1367 15.7673 26.1367 15.7669C26.1367 15.7666 26.1367 15.7662 26.1367 15.7659C26.1367 15.7656 26.1367 15.7652 26.1367 15.7649C26.1367 15.7645 26.1367 15.7642 26.1367 15.7639C26.1367 15.7635 26.1367 15.7632 26.1367 15.7628C26.1367 15.7625 26.1367 15.7622 26.1367 15.7618C26.1367 15.7615 26.1367 15.7611 26.1367 15.7608C26.1367 15.7605 26.1367 15.7601 26.1367 15.7598C26.1367 15.7594 26.1367 15.7591 26.1367 15.7588C26.1367 15.7584 26.1367 15.7581 26.1367 15.7578C26.1367 15.7574 26.1367 15.7571 26.1367 15.7567C26.1367 15.7564 26.1367 15.7561 26.1367 15.7557C26.1367 15.7554 26.1367 15.755 26.1367 15.7547C26.1367 15.7544 26.1367 15.754 26.1367 15.7537C26.1367 15.7534 26.1367 15.753 26.1367 15.7527C26.1367 15.7523 26.1367 15.752 26.1367 15.7517C26.1367 15.7513 26.1367 15.751 26.1367 15.7507C26.1367 15.7503 26.1367 15.75 26.1367 15.7496C26.1367 15.7493 26.1367 15.749 26.1367 15.7486C26.1367 15.7483 26.1367 15.748 26.1367 15.7476C26.1367 15.7473 26.1367 15.7469 26.1367 15.7466C26.1367 15.7463 26.1367 15.7459 26.1367 15.7456C26.1367 15.7453 26.1367 15.7449 26.1367 15.7446C26.1367 15.7443 26.1367 15.7439 26.1367 15.7436C26.1367 15.7433 26.1367 15.7429 26.1367 15.7426C26.1367 15.7422 26.1367 15.7419 26.1367 15.7416C26.1367 15.7412 26.1367 15.7409 26.1367 15.7406C26.1367 15.7402 26.1367 15.7399 26.1367 15.7396C26.1367 15.7392 26.1367 15.7389 26.1367 15.7386C26.1367 15.7382 26.1367 15.7379 26.1367 15.7376C26.1367 15.7372 26.1367 15.7369 26.1367 15.7366C26.1367 15.7362 26.1367 15.7359 26.1367 15.7356C26.1367 15.7352 26.1367 15.7349 26.1367 15.7346C26.1367 15.7342 26.1367 15.7339 26.1367 15.7336C26.1367 15.7332 26.1367 15.7329 26.1367 15.7326C26.1367 15.7322 26.1367 15.7319 26.1367 15.7316C26.1367 15.7312 26.1367 15.7309 26.1367 15.7306C26.1367 15.7302 26.1367 15.7299 26.1367 15.7296C26.1367 15.7292 26.1367 15.7289 26.1367 15.7286C26.1367 15.7282 26.1367 15.7279 26.1367 15.7276C26.1367 15.7272 26.1367 15.7269 26.1367 15.7266C26.1367 15.7262 26.1367 15.7259 26.1367 15.7256C26.1367 15.7253 26.1367 15.7249 26.1367 15.7246C26.1367 15.7243 26.1367 15.7239 26.1367 15.7236C26.1367 15.7233 26.1367 15.7229 26.1367 15.7226C26.1367 15.7223 26.1367 15.7219 26.1367 15.7216C26.1367 15.7213 26.1367 15.7209 26.1367 15.7206C26.1367 15.7203 26.1367 15.72 26.1367 15.7196C26.1367 15.7193 26.1367 15.719 26.1367 15.7186C26.1367 15.7183 26.1367 15.718 26.1367 15.7176C26.1367 15.7173 26.1367 15.717 26.1367 15.7167C26.1367 15.7163 26.1367 15.716 26.1367 15.7157C26.1367 15.7153 26.1367 15.715 26.1367 15.7147C26.1367 15.7144 26.1367 15.714 26.1367 15.7137C26.1367 15.7134 26.1367 15.713 26.1367 15.7127C26.1367 15.7124 26.1367 15.7121 26.1367 15.7117C26.1367 15.7114 26.1367 15.7111 26.1367 15.7107C26.1367 15.7104 26.1367 15.7101 26.1367 15.7098C26.1367 15.7094 26.1367 15.7091 26.1367 15.7088C26.1367 15.7084 26.1367 15.7081 26.1367 15.7078C26.1367 15.7075 26.1367 15.7071 26.1367 15.7068C26.1367 15.7065 26.1367 15.7061 26.1367 15.7058C26.1367 15.7055 26.1367 15.7052 26.1367 15.7048C26.1367 15.7045 26.1367 15.7042 26.1367 15.7039C26.1367 15.7035 26.1367 15.7032 26.1367 15.7029C26.1367 15.7026 26.1367 15.7022 26.1367 15.7019C26.1367 15.7016 26.1367 15.7012 26.1367 15.7009C26.1367 15.7006 26.1367 15.7003 26.1367 15.6999C26.1367 15.6996 26.1367 15.6993 26.1367 15.699C26.1367 15.6986 26.1367 15.6983 26.1367 15.698C26.1367 15.6977 26.1367 15.6973 26.1367 15.697C26.1367 15.6967 26.1367 15.6964 26.1367 15.696C26.1367 15.6957 26.1367 15.6954 26.1367 15.6951C26.1367 15.6947 26.1367 15.6944 26.1367 15.6941C26.1367 15.6938 26.1367 15.6934 26.1367 15.6931C26.1367 15.6928 26.1367 15.6925 26.1367 15.6921C26.1367 15.6918 26.1367 15.6915 26.1367 15.6912C26.1367 15.6908 26.1367 15.6905 26.1367 15.6902C26.1367 15.6899 26.1367 15.6895 26.1367 15.6892C26.1367 15.6889 26.1367 15.6886 26.1367 15.6882C26.1367 15.6879 26.1367 15.6876 26.1367 15.6873C26.1367 15.6869 26.1367 15.6866 26.1367 15.6863C26.1367 15.686 26.1367 15.6856 26.1367 15.6853C26.1367 15.685 26.1367 15.6847 26.1367 15.6844C26.1367 15.684 26.1367 15.6837 26.1367 15.6834C26.1367 15.6831 26.1367 15.6827 26.1367 15.6824C26.1367 15.6821 26.1367 15.6818 26.1367 15.6814C26.1367 15.6811 26.1367 15.6808 26.1367 15.6805C26.1367 15.6802 26.1367 15.6798 26.1367 15.6795C26.1367 15.6792 26.1367 15.6789 26.1367 15.6785C26.1367 15.6782 26.1367 15.6779 26.1367 15.6776C26.1367 15.6773 26.1367 15.6769 26.1367 15.6766C26.1367 15.6763 26.1367 15.676 26.1367 15.6756C26.1367 15.6753 26.1367 15.675 26.1367 15.6747C26.1367 15.6744 26.1367 15.674 26.1367 15.6737C26.1367 15.6734 26.1367 15.6731 26.1367 15.6728C26.1367 15.6724 26.1367 15.6721 26.1367 15.6718C26.1367 15.6715 26.1367 15.6712 26.1367 15.6708C26.1367 15.6705 26.1367 15.6702 26.1367 15.6699C26.1367 15.6695 26.1367 15.6692 26.1367 15.6689C26.1367 15.6686 26.1367 15.6683 26.1367 15.6679C26.1367 15.6676 26.1367 15.6673 26.1367 15.667C26.1367 15.6667 26.1367 15.6663 26.1367 15.666C26.1367 15.6657 26.1367 15.6654 26.1367 15.6651C26.1367 15.6647 26.1367 15.6644 26.1367 15.6641C26.1367 15.6638 26.1367 15.6635 26.1367 15.6631C26.1367 15.6628 26.1367 15.6625 26.1367 15.6622C26.1367 15.6619 26.1367 15.6615 26.1367 15.6612C26.1367 15.6609 26.1367 15.6606 26.1367 15.6603C26.1367 15.6599 26.1367 15.6596 26.1367 15.6593C26.1367 15.659 26.1367 15.6587 26.1367 15.6584C26.1367 15.658 26.1367 15.6577 26.1367 15.6574C26.1367 15.6571 26.1367 15.6568 26.1367 15.6564C26.1367 15.6561 26.1367 15.6558 26.1367 15.6555C26.1367 15.6552 26.1367 15.6548 26.1367 15.6545C26.1367 15.6542 26.1367 15.6539 26.1367 15.6536C26.1367 15.6533 26.1367 15.6529 26.1367 15.6526C26.1367 15.6523 26.1367 15.652 26.1367 15.6517C26.1367 15.6513 26.1367 15.651 26.1367 15.6507C26.1367 15.6504 26.1367 15.6501 26.1367 15.6498C26.1367 15.6494 26.1367 15.6491 26.1367 15.6488C26.1367 15.6485 26.1367 15.6482 26.1367 15.6479C26.1367 15.6475 26.1367 15.6472 26.1367 15.6469C26.1367 15.6466 26.1367 15.6463 26.1367 15.6459C26.1367 15.6456 26.1367 15.6453 26.1367 15.645C26.1367 15.6447 26.1367 15.6444 26.1367 15.644C26.1367 15.6437 26.1367 15.6434 26.1367 15.6431C26.1367 15.6428 26.1367 15.6425 26.1367 15.6421C26.1367 15.6418 26.1367 15.6415 26.1367 15.6412C26.1367 15.6409 26.1367 15.6406 26.1367 15.6402C26.1367 15.6399 26.1367 15.6396 26.1367 15.6393C26.1367 15.639 26.1367 15.6387 26.1367 15.6383C26.1367 15.638 26.1367 15.6377 26.1367 15.6374C26.1367 15.6371 26.1367 15.6368 26.1367 15.6365C26.1367 15.6361 26.1367 15.6358 26.1367 15.6355C26.1367 15.6352 26.1367 15.6349 26.1367 15.6346C26.1367 15.6342 26.1367 15.6339 26.1367 15.6336C26.1367 15.6333 26.1367 15.633 26.1367 15.6327C26.1367 15.6323 26.1367 15.632 26.1367 15.6317C26.1367 15.6314 26.1367 15.6311 26.1367 15.6308C26.1367 15.6305 26.1367 15.6301 26.1367 15.6298C26.1367 15.6295 26.1367 15.6292 26.1367 15.6289C26.1367 15.6286 26.1367 15.6283 26.1367 15.6279C26.1367 15.6276 26.1367 15.6273 26.1367 15.627C26.1367 15.6267 26.1367 15.6264 26.1367 15.626C26.1367 15.6257 26.1367 15.6254 26.1367 15.6251C26.1367 15.6248 26.1367 15.6245 26.1367 15.6242C26.1367 15.6238 26.1367 15.6235 26.1367 15.6232C26.1367 15.6229 26.1367 15.6226 26.1367 15.6223C26.1367 15.622 26.1367 15.6216 26.1367 15.6213C26.1367 15.621 26.1367 15.6207 26.1367 15.6204C26.1367 15.6201 26.1367 15.6198 26.1367 15.6194C26.1367 15.6191 26.1367 15.6188 26.1367 15.6185C26.1367 15.6182 26.1367 15.6179 26.1367 15.6176C26.1367 15.6173 26.1367 15.6169 26.1367 15.6166C26.1367 15.6163 26.1367 15.616 26.1367 15.6157C26.1367 15.6154 26.1367 15.6151 26.1367 15.6147C26.1367 15.6144 26.1367 15.6141 26.1367 15.6138C26.1367 15.6135 26.1367 15.6132 26.1367 15.6129C26.1367 15.6125 26.1367 15.6122 26.1367 15.6119C26.1367 15.6116 26.1367 15.6113 26.1367 15.611C26.1367 15.6107 26.1367 15.6104 26.1367 15.61C26.1367 15.6097 26.1367 15.6094 26.1367 15.6091C26.1367 15.6088 26.1367 15.6085 26.1367 15.6082C26.1367 15.6079 26.1367 15.6075 26.1367 15.6072C26.1367 15.6069 26.1367 15.6066 26.1367 15.6063C26.1367 15.606 26.1367 15.6057 26.1367 15.6054C26.1367 15.605 26.1367 15.6047 26.1367 15.6044C26.1367 15.6041 26.1367 15.6038 26.1367 15.6035C26.1367 15.6032 26.1367 15.6029 26.1367 15.6025C26.1367 15.6022 26.1367 15.6019 26.1367 15.6016C26.1367 15.6013 26.1367 15.601 26.1367 15.6007C26.1367 15.6004 26.1367 15.6 26.1367 15.5997C26.1367 15.5994 26.1367 15.5991 26.1367 15.5988C26.1367 15.5985 26.1367 15.5982 26.1367 15.5979C26.1367 15.5975 26.1367 15.5972 26.1367 15.5969C26.1367 15.5966 26.1367 15.5963 26.1367 15.596C26.1367 15.5957 26.1367 15.5954 26.1367 15.5951C26.1367 15.5947 26.1367 15.5944 26.1367 15.5941C26.1367 15.5938 26.1367 15.5935 26.1367 15.5932C26.1367 15.5929 26.1367 15.5926 26.1367 15.5923C26.1367 15.5919 26.1367 15.5916 26.1367 15.5913C26.1367 15.591 26.1367 15.5907 26.1367 15.5904C26.1367 15.5901 26.1367 15.5898 26.1367 15.5894C26.1367 15.5891 26.1367 15.5888 26.1367 15.5885C26.1367 15.5882 26.1367 15.5879 26.1367 15.5876C26.1367 15.5873 26.1367 15.587 26.1367 15.5866C26.1367 15.5863 26.1367 15.586 26.1367 15.5857C26.1367 15.5854 26.1367 15.5851 26.1367 15.5848C26.1367 15.5845 26.1367 15.5842 26.1367 15.5839C26.1367 15.5835 26.1367 15.5832 26.1367 15.5829C26.1367 15.5826 26.1367 15.5823 26.1367 15.582C26.1367 15.5817 26.1367 15.5814 26.1367 15.5811C26.1367 15.5807 26.1367 15.5804 26.1367 15.5801C26.1367 15.5798 26.1367 15.5795 26.1367 15.5792C26.1367 15.5789 26.1367 15.5786 26.1367 15.5783C26.1367 15.5779 26.1367 15.5776 26.1367 15.5773C26.1367 15.577 26.1367 15.5767 26.1367 15.5764C26.1367 15.5761 26.1367 15.5758 26.1367 15.5755C26.1367 15.5752 26.1367 15.5748 26.1367 15.5745C26.1367 15.5742 26.1367 15.5739 26.1367 15.5736C26.1367 15.5733 26.1367 15.573 26.1367 15.5727C26.1367 15.5724 26.1367 15.5721 26.1367 15.5717C26.1367 15.5714 26.1367 15.5711 26.1367 15.5708C26.1367 15.5705 26.1367 15.5702 26.1367 15.5699C26.1367 15.5696 26.1367 15.5693 26.1367 15.569C26.1367 15.5686 26.1367 15.5683 26.1367 15.568C26.1367 15.5677 26.1367 15.5674 26.1367 15.5671C26.1367 15.5668 26.1367 15.5665 26.1367 15.5662C26.1367 15.5659 26.1367 15.5655 26.1367 15.5652C26.1367 15.5649 26.1367 15.5646 26.1367 15.5643C26.1367 15.564 26.1367 15.5637 26.1367 15.5634C26.1367 15.5631 26.1367 15.5628 26.1367 15.5624C26.1367 15.5621 26.1367 15.5618 26.1367 15.5615C26.1367 15.5612 26.1367 15.5609 26.1367 15.5606C26.1367 15.5603 26.1367 15.56 26.1367 15.5597C26.1367 15.5594 26.1367 15.559 26.1367 15.5587C26.1367 15.5584 26.1367 15.5581 26.1367 15.5578C26.1367 15.5575 26.1367 15.5572 26.1367 15.5569C26.1367 15.5566 26.1367 15.5563 26.1367 15.5559C26.1367 15.5556 26.1367 15.5553 26.1367 15.555C26.1367 15.5547 26.1367 15.5544 26.1367 15.5541C26.1367 15.5538 26.1367 15.5535 26.1367 15.5532C26.1367 15.5529 26.1367 15.5525 26.1367 15.5522C26.1367 15.5519 26.1367 15.5516 26.1367 15.5513C26.1367 15.551 26.1367 15.5507 26.1367 15.5504C26.1367 15.5501 26.1367 15.5498 26.1367 15.5495C26.1367 15.5491 26.1367 15.5488 26.1367 15.5485C26.1367 15.5482 26.1367 15.5479 26.1367 15.5476C26.1367 15.5473 26.1367 15.547 26.1367 15.5467C26.1367 15.5464 26.1367 15.5461 26.1367 15.5457C26.1367 15.5454 26.1367 15.5451 26.1367 15.5448C26.1367 15.5445 26.1367 15.5442 26.1367 15.5439C26.1367 15.5436 26.1367 15.5433 26.1367 15.543C26.1367 15.5426 26.1367 15.5423 26.1367 15.542C26.1367 15.5417 26.1367 15.5414 26.1367 15.5411C26.1367 15.5408 26.1367 15.5405 26.1367 15.5402C26.1367 15.5399 26.1367 15.5396 26.1367 15.5393C26.1367 15.5389 26.1367 15.5386 26.1367 15.5383C26.1367 15.538 26.1367 15.5377 26.1367 15.5374C26.1367 15.5371 26.1367 15.5368 26.1367 15.5365C26.1367 15.5362 26.1367 15.5359 26.1367 15.5355C26.1367 15.5352 26.1367 15.5349 26.1367 15.5346C26.1367 15.5343 26.1367 15.534 26.1367 15.5337C26.1367 15.5334 26.1367 15.5331 26.1367 15.5328C26.1367 15.5325 26.1367 15.5321 26.1367 15.5318C26.1367 15.5315 26.1367 15.5312 26.1367 15.5309C26.1367 15.5306 26.1367 15.5303 26.1367 15.53C26.1367 15.5297 26.1367 15.5294 26.1367 15.5291C26.1367 15.5287 26.1367 15.5284 26.1367 15.5281C26.1367 15.5278 26.1367 15.5275 26.1367 15.5272C26.1367 15.5269 26.1367 15.5266 26.1367 15.5263C26.1367 15.526 26.1367 15.5257 26.1367 15.5253C26.1367 15.525 26.1367 15.5247 26.1367 15.5244C26.1367 15.5241 26.1367 15.5238 26.1367 15.5235C26.1367 15.5232 26.1367 15.5229 26.1367 15.5226C26.1367 15.5223 26.1367 15.5219 26.1367 15.5216C26.1367 15.5213 26.1367 15.521 26.1367 15.5207C26.1367 15.5204 26.1367 15.5201 26.1367 15.5198C26.1367 15.5195 26.1367 15.5192 26.1367 15.5189C26.1367 15.5185 26.1367 15.5182 26.1367 15.5179C26.1367 15.5176 26.1367 15.5173 26.1367 15.517C26.1367 15.5167 26.1367 15.5164 26.1367 15.5161C26.1367 15.5158 26.1367 15.5155 26.1367 15.5151C26.1367 15.5148 26.1367 15.5145 26.1367 15.5142C26.1367 15.5139 26.1367 15.5136 26.1367 15.5133C26.1367 15.513 26.1367 15.5127 26.1367 15.5124C26.1367 15.5121 26.1367 15.5117 26.1367 15.5114C26.1367 15.5111 26.1367 15.5108 26.1367 15.5105C26.1367 15.5102 26.1367 15.5099 26.1367 15.5096C26.1367 15.5093 26.1367 15.509 26.1367 15.5087C26.1367 15.5083 26.1367 15.508 26.1367 15.5077C26.1367 15.5074 26.1367 15.5071 26.1367 15.5068C26.1367 15.5065 26.1367 15.5062 26.1367 15.5059C26.1367 15.5056 26.1367 15.5053 26.1367 15.5049C26.1367 15.5046 26.1367 15.5043 26.1367 15.504C26.1367 15.5037 26.1367 15.5034 26.1367 15.5031C26.1367 15.5028 26.1367 15.5025 26.1367 15.5022C26.1367 15.5018 26.1367 15.5015 26.1367 15.5012C26.1367 15.5009 26.1367 15.5006 26.1367 15.5003C26.1367 15.5 26.1367 15.4997 26.1367 15.4994C26.1367 15.4991 26.1367 15.4988 26.1367 15.4984C26.1367 15.4981 26.1367 15.4978 26.1367 15.4975C26.1367 15.4972 26.1367 15.4969 26.1367 15.4966C26.1367 15.4963 26.1367 15.496 26.1367 15.4957C26.1367 15.4953 26.1367 15.495 26.1367 15.4947C26.1367 15.4944 26.1367 15.4941 26.1367 15.4938C26.1367 15.4935 26.1367 15.4932 26.1367 15.4929C26.1367 15.4926 26.1367 15.4923 26.1367 15.4919C26.1367 15.4916 26.1367 15.4913 26.1367 15.491C26.1367 15.4907 26.1367 15.4904 26.1367 15.4901C26.1367 15.4898 26.1367 15.4895 26.1367 15.4892C26.1367 15.4888 26.1367 15.4885 26.1367 15.4882C26.1367 15.4879 26.1367 15.4876 26.1367 15.4873C26.1367 15.487 26.1367 15.4867 26.1367 15.4864C26.1367 15.4861 26.1367 15.4857 26.1367 15.4854C26.1367 15.4851 26.1367 15.4848 26.1367 15.4845C26.1367 15.4842 26.1367 15.4839 26.1367 15.4836C26.1367 15.4833 26.1367 15.4829 26.1367 15.4826C26.1367 15.4823 26.1367 15.482 26.1367 15.4817C26.1367 15.4814 26.1367 15.4811 26.1367 15.4808C26.1367 15.4805 26.1367 15.4802 26.1367 15.4798C26.1367 15.4795 26.1367 15.4792 26.1367 15.4789C26.1367 15.4786 26.1367 15.4783 26.1367 15.478C26.1367 15.4777 26.1367 15.4774 26.1367 15.4771C26.1367 15.4767 26.1367 15.4764 26.1367 15.4761C26.1367 15.4758 26.1367 15.4755 26.1367 15.4752C26.1367 15.4749 26.1367 15.4746 26.1367 15.4743C26.1367 15.4739 26.1367 15.4736 26.1367 15.4733C26.1367 15.473 26.1367 15.4727 26.1367 15.4724C26.1367 15.4721 26.1367 15.4718 26.1367 15.4715C26.1367 15.4711 26.1367 15.4708 26.1367 15.4705C26.1367 15.4702 26.1367 15.4699 26.1367 15.4696C26.1367 15.4693 26.1367 15.469 26.1367 15.4687C26.1367 15.4683 26.1367 15.468 26.1367 15.4677C26.1367 15.4674 26.1367 15.4671 26.1367 15.4668C26.1367 15.4665 26.1367 15.4662 26.1367 15.4659C26.1367 15.4655 26.1367 15.4652 26.1367 15.4649C26.1367 15.4646 26.1367 15.4643 26.1367 15.464C26.1367 15.4637 26.1367 15.4634 26.1367 15.4631C26.1367 15.4627 26.1367 15.4624 26.1367 15.4621C26.1367 15.4618 26.1367 15.4615 26.1367 15.4612C26.1367 15.4609 26.1367 15.4606 26.1367 15.4602C26.1367 15.4599 26.1367 15.4596 26.1367 15.4593C26.1367 15.459 26.1367 15.4587 26.1367 15.4584C26.1367 15.4581 26.1367 15.4577 26.1367 15.4574C26.1367 15.4571 26.1367 15.4568 26.1367 15.4565C26.1367 15.4562 26.1367 15.4559 26.1367 15.4556C26.1367 15.4553 26.1367 15.4549 26.1367 15.4546C26.1367 15.4543 26.1367 15.454 26.1367 15.4537C26.1367 15.4534 26.1367 15.4531 26.1367 15.4528C26.1367 15.4524 26.1367 15.4521 26.1367 15.4518C26.1367 15.4515 26.1367 15.4512 26.1367 15.4509C26.1367 15.4506 26.1367 15.4503 26.1367 15.4499C26.1367 15.4496 26.1367 15.4493 26.1367 15.449C26.1367 15.4487 26.1367 15.4484 26.1367 15.4481C26.1367 15.4477 26.1367 15.4474 26.1367 15.4471C26.1367 15.4468 26.1367 15.4465 26.1367 15.4462C26.1367 15.4459 26.1367 15.4456 26.1367 15.4452C26.1367 15.4449 26.1367 15.4446 26.1367 15.4443C26.1367 15.444 26.1367 15.4437 26.1367 15.4434C26.1367 15.4431 26.1367 15.4427 26.1367 15.4424C26.1367 15.4421 26.1367 15.4418 26.1367 15.4415C26.1367 15.4412 26.1367 15.4409 26.1367 15.4405C26.1367 15.4402 26.1367 15.4399 26.1367 15.4396C26.1367 15.4393 26.1367 15.439 26.1367 15.4387C26.1367 15.4383 26.1367 15.438 26.1367 15.4377C26.1367 15.4374 26.1367 15.4371 26.1367 15.4368C26.1367 15.4365 26.1367 15.4361 26.1367 15.4358C26.1367 15.4355 26.1367 15.4352 26.1367 15.4349C26.1367 15.4346 26.1367 15.4343 26.1367 15.4339C26.1367 15.4336 26.1367 15.4333 26.1367 15.433C26.1367 15.4327 26.1367 15.4324 26.1367 15.4321C26.1367 15.4317 26.1367 15.4314 26.1367 15.4311C26.1367 15.4308 26.1367 15.4305 26.1367 15.4302C26.1367 15.4299 26.1367 15.4295 26.1367 15.4292C26.1367 15.4289 26.1367 15.4286 26.1367 15.4283C26.1367 15.428 26.1367 15.4276 26.1367 15.4273C26.1367 15.427 26.1367 15.4267 26.1367 15.4264C26.1367 15.4261 26.1367 15.4258 26.1367 15.4254C26.1367 15.4251 26.1367 15.4248 26.1367 15.4245C26.1367 15.4242 26.1367 15.4239 26.1367 15.4235C26.1367 15.4232 26.1367 15.4229 26.1367 15.4226C26.1367 15.4223 26.1367 15.422 26.1367 15.4217C26.1367 15.4213 26.1367 15.421 26.1367 15.4207C26.1367 15.4204 26.1367 15.4201 26.1367 15.4198C26.1367 15.4194 26.1367 15.4191 26.1367 15.4188C26.1367 15.4185 26.1367 15.4182 26.1367 15.4179C26.1367 15.4175 26.1367 15.4172 26.1367 15.4169C26.1367 15.4166 26.1367 15.4163 26.1367 15.416C26.1367 15.4156 26.1367 15.4153 26.1367 15.415C26.1367 15.4147 26.1367 15.4144 26.1367 15.4141C26.1367 15.4137 26.1367 15.4134 26.1367 15.4131C26.1367 15.4128 26.1367 15.4125 26.1367 15.4122C26.1367 15.4118 26.1367 15.4115 26.1367 15.4112C26.1367 15.4109 26.1367 15.4106 26.1367 15.4103C26.1367 15.4099 26.1367 15.4096 26.1367 15.4093C26.1367 15.409 26.1367 15.4087 26.1367 15.4083C26.1367 15.408 26.1367 15.4077 26.1367 15.4074C26.1367 15.4071 26.1367 15.4068 26.1367 15.4064C26.1367 15.4061 26.1367 15.4058 26.1367 15.4055C26.1367 15.4052 26.1367 15.4049 26.1367 15.4045C26.1367 15.4042 26.1367 15.4039 26.1367 15.4036C26.1367 15.4033 26.1367 15.4029 26.1367 15.4026C26.1367 15.4023 26.1367 15.402 26.1367 15.4017C26.1367 15.4013 26.1367 15.401 26.1367 15.4007C26.1367 15.4004 26.1367 15.4001 26.1367 15.3998C26.1367 15.3994 26.1367 15.3991 26.1367 15.3988C26.1367 15.3985 26.1367 15.3982 26.1367 15.3978C26.1367 15.3975 26.1367 15.3972 26.1367 15.3969C26.1367 15.3966 26.1367 15.3962 26.1367 15.3959C26.1367 15.3956 26.1367 15.3953 26.1367 15.395C26.1367 15.3946 26.1367 15.3943 26.1367 15.394C26.1367 15.3937 26.1367 15.3934 26.1367 15.393C26.1367 15.3927 26.1367 15.3924 26.1367 15.3921C26.1367 15.3918 26.1367 15.3914 26.1367 15.3911C26.1367 15.3908 26.1367 15.3905 26.1367 15.3902C26.1367 15.3898 26.1367 15.3895 26.1367 15.3892C26.1367 15.3889 26.1367 15.3886 26.1367 15.3882C26.1367 15.3879 26.1367 15.3876 26.1367 15.3873C26.1367 15.387 26.1367 15.3866 26.1367 15.3863C26.1367 15.386 26.1367 15.3857 26.1367 15.3853C26.1367 15.385 26.1367 15.3847 26.1367 15.3844C26.1367 15.3841 26.1367 15.3837 26.1367 15.3834C26.1367 15.3831 26.1367 15.3828 26.1367 15.3825C26.1367 15.3821 26.1367 15.3818 26.1367 15.3815C26.1367 15.3812 26.1367 15.3808 26.1367 15.3805C26.1367 15.3802 26.1367 15.3799 26.1367 15.3796C26.1367 15.3792 26.1367 15.3789 26.1367 15.3786C26.1367 15.3783 26.1367 15.3779 26.1367 15.3776C26.1367 15.3773 26.1367 15.377 26.1367 15.3767C26.1367 15.3763 26.1367 15.376 26.1367 15.3757C26.1367 15.3754 26.1367 15.375 26.1367 15.3747C26.1367 15.3744 26.1367 15.3741 26.1367 15.3737C26.1367 15.3734 26.1367 15.3731 26.1367 15.3728C26.1367 15.3725 26.1367 15.3721 26.1367 15.3718C26.1367 15.3715 26.1367 15.3712 26.1367 15.3708C26.1367 15.3705 26.1367 15.3702 26.1367 15.3699C26.1367 15.3695 26.1367 15.3692 26.1367 15.3689C26.1367 15.3686 26.1367 15.3682 26.1367 15.3679C26.1367 15.3676 26.1367 15.3673 26.1367 15.3669C26.1367 15.3666 26.1367 15.3663 26.1367 15.366C26.1367 15.3656 26.1367 15.3653 26.1367 15.365C26.1367 15.3647 26.1367 15.3644 26.1367 15.364C26.1367 15.3637 26.1367 15.3634 26.1367 15.363C26.1367 15.3627 26.1367 15.3624 26.1367 15.3621C26.1367 15.3617 26.1367 15.3614 26.1367 15.3611C26.1367 15.3608 26.1367 15.3604 26.1367 15.3601C26.1367 15.3598 26.1367 15.3595 26.1367 15.3591C26.1367 15.3588 26.1367 15.3585 26.1367 15.3582C26.1367 15.3578 26.1367 15.3575 26.1367 15.3572C26.1367 15.3569 26.1367 15.3565 26.1367 15.3562C26.1367 15.3559 26.1367 15.3556 26.1367 15.3552C26.1367 15.3549 26.1367 15.3546 26.1367 15.3542C26.1367 15.3539 26.1367 15.3536 26.1367 15.3533C26.1367 15.3529 26.1367 15.3526 26.1367 15.3523C26.1367 15.352 26.1367 15.3516 26.1367 15.3513C26.1367 15.351 26.1367 15.3506 26.1367 15.3503C26.1367 15.35 26.1367 15.3497 26.1367 15.3493C26.1367 15.349 26.1367 15.3487 26.1367 15.3484C26.1367 15.348 26.1367 15.3477 26.1367 15.3474C26.1367 15.347 26.1367 15.3467 26.1367 15.3464C26.1367 15.3461 26.1367 15.3457 26.1367 15.3454C26.1367 15.3451 26.1367 15.3447 26.1367 15.3444C26.1367 15.3441 26.1367 15.3438 26.1367 15.3434C26.1367 15.3431 26.1367 15.3428 26.1367 15.3424C26.1367 15.3421 26.1367 15.3418 26.1367 15.3414C26.1367 15.3411 26.1367 15.3408 26.1367 15.3405C26.1367 15.3401 26.1367 15.3398 26.1367 15.3395C26.1367 15.3391 26.1367 15.3388 26.1367 15.3385C26.1367 15.3381 26.1367 15.3378 26.1367 15.3375C26.1367 15.3372 26.1367 15.3368 26.1367 15.3365C26.1367 15.3362 26.1367 15.3358 26.1367 15.3355C26.1367 15.3352 26.1367 15.3348 26.1367 15.3345C26.1367 15.3342 26.1367 15.3338 26.1367 15.3335C26.1367 15.3332 26.1367 15.3329 26.1367 15.3325C26.1367 15.3322 26.1367 15.3319 26.1367 15.3315C26.1367 15.3312 26.1367 15.3309 26.1367 15.3305C26.1367 15.3302 26.1367 15.3299 26.1367 15.3295C26.1367 15.3292 26.1367 15.3289 26.1367 15.3285C26.1367 15.3282 26.1367 15.3279 26.1367 15.3275C26.1367 15.3272 26.1367 15.3269 26.1367 15.3265C26.1367 15.3262 26.1367 15.3259 26.1367 15.3255C26.1367 15.3252 26.1367 15.3249 26.1367 15.3245C26.1367 15.3242 26.1367 15.3239 26.1367 15.3235C26.1367 15.3232 26.1367 15.3229 26.1367 15.3225C26.1367 15.3222 26.1367 15.3219 26.1367 15.3215C26.1367 15.3212 26.1367 15.3209 26.1367 15.3205C26.1367 15.3202 26.1367 15.3199 26.1367 15.3195C26.1367 15.3192 26.1367 15.3189 26.1367 15.3185C26.1367 15.3182 26.1367 15.3179 26.1367 15.3175C26.1367 15.3172 26.1367 15.3169 26.1367 15.3165C26.1367 15.3162 26.1367 15.3159 26.1367 15.3155C26.1367 15.3152 26.1367 15.3149 26.1367 15.3145C26.1367 15.3142 26.1367 15.3138 26.1367 15.3135C26.1367 15.3132 26.1367 15.3128 26.1367 15.3125C26.1367 15.3122 26.1367 15.3118 26.1367 15.3115C26.1367 15.3112 26.1367 15.3108 26.1367 15.3105C26.1367 15.3101 26.1367 15.3098 26.1367 15.3095C26.1367 15.3091 26.1367 15.3088 26.1367 15.3085C26.1367 15.3081 26.1367 15.3078 26.1367 15.3075C26.1367 15.3071 26.1367 15.3068 26.1367 15.3064C26.1367 15.3061 26.1367 15.3058 26.1367 15.3054C26.1367 15.3051 26.1367 15.3048 26.1367 15.3044C26.1367 15.3041 26.1367 15.3037 26.1367 15.3034C26.1367 15.3031 26.1367 15.3027 26.1367 15.3024C26.1367 15.302 26.1367 15.3017 26.1367 15.3014C26.1367 15.301 26.1367 15.3007 26.1367 15.3004C26.1367 15.3 26.1367 15.2997 26.1367 15.2993C26.1367 15.299 26.1367 15.2987 26.1367 15.2983C26.1367 15.298 26.1367 15.2976 26.1367 15.2973C26.1367 15.297 26.1367 15.2966 26.1367 15.2963C26.1367 15.2959 26.1367 15.2956 26.1367 15.2953C26.1367 15.2949 26.1367 15.2946 26.1367 15.2942C26.1367 15.2939 26.1367 15.2936 26.1367 15.2932C26.1367 15.2929 26.1367 15.2925 26.1367 15.2922C26.1367 15.2919 26.1367 15.2915 26.1367 15.2912C26.1367 15.2908 26.1367 15.2905 26.1367 15.2901C26.1367 15.2898 26.1367 15.2895 26.1367 15.2891C26.1367 15.2888 26.1367 15.2884 26.1367 15.2881C26.1367 15.2878 26.1367 15.2874 26.1367 15.2871C26.1367 15.2867 26.1367 15.2864 26.1367 15.286C26.1367 15.2857 26.1367 15.2854 26.1367 15.285C26.1367 15.2847 26.1367 15.2843 26.1367 15.284C26.1367 15.2836 26.1367 15.2833 26.1367 15.283H24.1367C24.1367 15.2833 24.1367 15.2836 24.1367 15.284C24.1367 15.2843 24.1367 15.2847 24.1367 15.285C24.1367 15.2854 24.1367 15.2857 24.1367 15.286C24.1367 15.2864 24.1367 15.2867 24.1367 15.2871C24.1367 15.2874 24.1367 15.2878 24.1367 15.2881C24.1367 15.2884 24.1367 15.2888 24.1367 15.2891C24.1367 15.2895 24.1367 15.2898 24.1367 15.2901C24.1367 15.2905 24.1367 15.2908 24.1367 15.2912C24.1367 15.2915 24.1367 15.2919 24.1367 15.2922C24.1367 15.2925 24.1367 15.2929 24.1367 15.2932C24.1367 15.2936 24.1367 15.2939 24.1367 15.2942C24.1367 15.2946 24.1367 15.2949 24.1367 15.2953C24.1367 15.2956 24.1367 15.2959 24.1367 15.2963C24.1367 15.2966 24.1367 15.297 24.1367 15.2973C24.1367 15.2976 24.1367 15.298 24.1367 15.2983C24.1367 15.2987 24.1367 15.299 24.1367 15.2993C24.1367 15.2997 24.1367 15.3 24.1367 15.3004C24.1367 15.3007 24.1367 15.301 24.1367 15.3014C24.1367 15.3017 24.1367 15.302 24.1367 15.3024C24.1367 15.3027 24.1367 15.3031 24.1367 15.3034C24.1367 15.3037 24.1367 15.3041 24.1367 15.3044C24.1367 15.3048 24.1367 15.3051 24.1367 15.3054C24.1367 15.3058 24.1367 15.3061 24.1367 15.3064C24.1367 15.3068 24.1367 15.3071 24.1367 15.3075C24.1367 15.3078 24.1367 15.3081 24.1367 15.3085C24.1367 15.3088 24.1367 15.3091 24.1367 15.3095C24.1367 15.3098 24.1367 15.3101 24.1367 15.3105C24.1367 15.3108 24.1367 15.3112 24.1367 15.3115C24.1367 15.3118 24.1367 15.3122 24.1367 15.3125C24.1367 15.3128 24.1367 15.3132 24.1367 15.3135C24.1367 15.3138 24.1367 15.3142 24.1367 15.3145C24.1367 15.3149 24.1367 15.3152 24.1367 15.3155C24.1367 15.3159 24.1367 15.3162 24.1367 15.3165C24.1367 15.3169 24.1367 15.3172 24.1367 15.3175C24.1367 15.3179 24.1367 15.3182 24.1367 15.3185C24.1367 15.3189 24.1367 15.3192 24.1367 15.3195C24.1367 15.3199 24.1367 15.3202 24.1367 15.3205C24.1367 15.3209 24.1367 15.3212 24.1367 15.3215C24.1367 15.3219 24.1367 15.3222 24.1367 15.3225C24.1367 15.3229 24.1367 15.3232 24.1367 15.3235C24.1367 15.3239 24.1367 15.3242 24.1367 15.3245C24.1367 15.3249 24.1367 15.3252 24.1367 15.3255C24.1367 15.3259 24.1367 15.3262 24.1367 15.3265C24.1367 15.3269 24.1367 15.3272 24.1367 15.3275C24.1367 15.3279 24.1367 15.3282 24.1367 15.3285C24.1367 15.3289 24.1367 15.3292 24.1367 15.3295C24.1367 15.3299 24.1367 15.3302 24.1367 15.3305C24.1367 15.3309 24.1367 15.3312 24.1367 15.3315C24.1367 15.3319 24.1367 15.3322 24.1367 15.3325C24.1367 15.3329 24.1367 15.3332 24.1367 15.3335C24.1367 15.3338 24.1367 15.3342 24.1367 15.3345C24.1367 15.3348 24.1367 15.3352 24.1367 15.3355C24.1367 15.3358 24.1367 15.3362 24.1367 15.3365C24.1367 15.3368 24.1367 15.3372 24.1367 15.3375C24.1367 15.3378 24.1367 15.3381 24.1367 15.3385C24.1367 15.3388 24.1367 15.3391 24.1367 15.3395C24.1367 15.3398 24.1367 15.3401 24.1367 15.3405C24.1367 15.3408 24.1367 15.3411 24.1367 15.3414C24.1367 15.3418 24.1367 15.3421 24.1367 15.3424C24.1367 15.3428 24.1367 15.3431 24.1367 15.3434C24.1367 15.3438 24.1367 15.3441 24.1367 15.3444C24.1367 15.3447 24.1367 15.3451 24.1367 15.3454C24.1367 15.3457 24.1367 15.3461 24.1367 15.3464C24.1367 15.3467 24.1367 15.347 24.1367 15.3474C24.1367 15.3477 24.1367 15.348 24.1367 15.3484C24.1367 15.3487 24.1367 15.349 24.1367 15.3493C24.1367 15.3497 24.1367 15.35 24.1367 15.3503C24.1367 15.3506 24.1367 15.351 24.1367 15.3513C24.1367 15.3516 24.1367 15.352 24.1367 15.3523C24.1367 15.3526 24.1367 15.3529 24.1367 15.3533C24.1367 15.3536 24.1367 15.3539 24.1367 15.3542C24.1367 15.3546 24.1367 15.3549 24.1367 15.3552C24.1367 15.3556 24.1367 15.3559 24.1367 15.3562C24.1367 15.3565 24.1367 15.3569 24.1367 15.3572C24.1367 15.3575 24.1367 15.3578 24.1367 15.3582C24.1367 15.3585 24.1367 15.3588 24.1367 15.3591C24.1367 15.3595 24.1367 15.3598 24.1367 15.3601C24.1367 15.3604 24.1367 15.3608 24.1367 15.3611C24.1367 15.3614 24.1367 15.3617 24.1367 15.3621C24.1367 15.3624 24.1367 15.3627 24.1367 15.363C24.1367 15.3634 24.1367 15.3637 24.1367 15.364C24.1367 15.3644 24.1367 15.3647 24.1367 15.365C24.1367 15.3653 24.1367 15.3656 24.1367 15.366C24.1367 15.3663 24.1367 15.3666 24.1367 15.3669C24.1367 15.3673 24.1367 15.3676 24.1367 15.3679C24.1367 15.3682 24.1367 15.3686 24.1367 15.3689C24.1367 15.3692 24.1367 15.3695 24.1367 15.3699C24.1367 15.3702 24.1367 15.3705 24.1367 15.3708C24.1367 15.3712 24.1367 15.3715 24.1367 15.3718C24.1367 15.3721 24.1367 15.3725 24.1367 15.3728C24.1367 15.3731 24.1367 15.3734 24.1367 15.3737C24.1367 15.3741 24.1367 15.3744 24.1367 15.3747C24.1367 15.375 24.1367 15.3754 24.1367 15.3757C24.1367 15.376 24.1367 15.3763 24.1367 15.3767C24.1367 15.377 24.1367 15.3773 24.1367 15.3776C24.1367 15.3779 24.1367 15.3783 24.1367 15.3786C24.1367 15.3789 24.1367 15.3792 24.1367 15.3796C24.1367 15.3799 24.1367 15.3802 24.1367 15.3805C24.1367 15.3808 24.1367 15.3812 24.1367 15.3815C24.1367 15.3818 24.1367 15.3821 24.1367 15.3825C24.1367 15.3828 24.1367 15.3831 24.1367 15.3834C24.1367 15.3837 24.1367 15.3841 24.1367 15.3844C24.1367 15.3847 24.1367 15.385 24.1367 15.3853C24.1367 15.3857 24.1367 15.386 24.1367 15.3863C24.1367 15.3866 24.1367 15.387 24.1367 15.3873C24.1367 15.3876 24.1367 15.3879 24.1367 15.3882C24.1367 15.3886 24.1367 15.3889 24.1367 15.3892C24.1367 15.3895 24.1367 15.3898 24.1367 15.3902C24.1367 15.3905 24.1367 15.3908 24.1367 15.3911C24.1367 15.3914 24.1367 15.3918 24.1367 15.3921C24.1367 15.3924 24.1367 15.3927 24.1367 15.393C24.1367 15.3934 24.1367 15.3937 24.1367 15.394C24.1367 15.3943 24.1367 15.3946 24.1367 15.395C24.1367 15.3953 24.1367 15.3956 24.1367 15.3959C24.1367 15.3962 24.1367 15.3966 24.1367 15.3969C24.1367 15.3972 24.1367 15.3975 24.1367 15.3978C24.1367 15.3982 24.1367 15.3985 24.1367 15.3988C24.1367 15.3991 24.1367 15.3994 24.1367 15.3998C24.1367 15.4001 24.1367 15.4004 24.1367 15.4007C24.1367 15.401 24.1367 15.4013 24.1367 15.4017C24.1367 15.402 24.1367 15.4023 24.1367 15.4026C24.1367 15.4029 24.1367 15.4033 24.1367 15.4036C24.1367 15.4039 24.1367 15.4042 24.1367 15.4045C24.1367 15.4049 24.1367 15.4052 24.1367 15.4055C24.1367 15.4058 24.1367 15.4061 24.1367 15.4064C24.1367 15.4068 24.1367 15.4071 24.1367 15.4074C24.1367 15.4077 24.1367 15.408 24.1367 15.4083C24.1367 15.4087 24.1367 15.409 24.1367 15.4093C24.1367 15.4096 24.1367 15.4099 24.1367 15.4103C24.1367 15.4106 24.1367 15.4109 24.1367 15.4112C24.1367 15.4115 24.1367 15.4118 24.1367 15.4122C24.1367 15.4125 24.1367 15.4128 24.1367 15.4131C24.1367 15.4134 24.1367 15.4137 24.1367 15.4141C24.1367 15.4144 24.1367 15.4147 24.1367 15.415C24.1367 15.4153 24.1367 15.4156 24.1367 15.416C24.1367 15.4163 24.1367 15.4166 24.1367 15.4169C24.1367 15.4172 24.1367 15.4175 24.1367 15.4179C24.1367 15.4182 24.1367 15.4185 24.1367 15.4188C24.1367 15.4191 24.1367 15.4194 24.1367 15.4198C24.1367 15.4201 24.1367 15.4204 24.1367 15.4207C24.1367 15.421 24.1367 15.4213 24.1367 15.4217C24.1367 15.422 24.1367 15.4223 24.1367 15.4226C24.1367 15.4229 24.1367 15.4232 24.1367 15.4235C24.1367 15.4239 24.1367 15.4242 24.1367 15.4245C24.1367 15.4248 24.1367 15.4251 24.1367 15.4254C24.1367 15.4258 24.1367 15.4261 24.1367 15.4264C24.1367 15.4267 24.1367 15.427 24.1367 15.4273C24.1367 15.4276 24.1367 15.428 24.1367 15.4283C24.1367 15.4286 24.1367 15.4289 24.1367 15.4292C24.1367 15.4295 24.1367 15.4299 24.1367 15.4302C24.1367 15.4305 24.1367 15.4308 24.1367 15.4311C24.1367 15.4314 24.1367 15.4317 24.1367 15.4321C24.1367 15.4324 24.1367 15.4327 24.1367 15.433C24.1367 15.4333 24.1367 15.4336 24.1367 15.4339C24.1367 15.4343 24.1367 15.4346 24.1367 15.4349C24.1367 15.4352 24.1367 15.4355 24.1367 15.4358C24.1367 15.4361 24.1367 15.4365 24.1367 15.4368C24.1367 15.4371 24.1367 15.4374 24.1367 15.4377C24.1367 15.438 24.1367 15.4383 24.1367 15.4387C24.1367 15.439 24.1367 15.4393 24.1367 15.4396C24.1367 15.4399 24.1367 15.4402 24.1367 15.4405C24.1367 15.4409 24.1367 15.4412 24.1367 15.4415C24.1367 15.4418 24.1367 15.4421 24.1367 15.4424C24.1367 15.4427 24.1367 15.4431 24.1367 15.4434C24.1367 15.4437 24.1367 15.444 24.1367 15.4443C24.1367 15.4446 24.1367 15.4449 24.1367 15.4452C24.1367 15.4456 24.1367 15.4459 24.1367 15.4462C24.1367 15.4465 24.1367 15.4468 24.1367 15.4471C24.1367 15.4474 24.1367 15.4477 24.1367 15.4481C24.1367 15.4484 24.1367 15.4487 24.1367 15.449C24.1367 15.4493 24.1367 15.4496 24.1367 15.4499C24.1367 15.4503 24.1367 15.4506 24.1367 15.4509C24.1367 15.4512 24.1367 15.4515 24.1367 15.4518C24.1367 15.4521 24.1367 15.4524 24.1367 15.4528C24.1367 15.4531 24.1367 15.4534 24.1367 15.4537C24.1367 15.454 24.1367 15.4543 24.1367 15.4546C24.1367 15.4549 24.1367 15.4553 24.1367 15.4556C24.1367 15.4559 24.1367 15.4562 24.1367 15.4565C24.1367 15.4568 24.1367 15.4571 24.1367 15.4574C24.1367 15.4577 24.1367 15.4581 24.1367 15.4584C24.1367 15.4587 24.1367 15.459 24.1367 15.4593C24.1367 15.4596 24.1367 15.4599 24.1367 15.4602C24.1367 15.4606 24.1367 15.4609 24.1367 15.4612C24.1367 15.4615 24.1367 15.4618 24.1367 15.4621C24.1367 15.4624 24.1367 15.4627 24.1367 15.4631C24.1367 15.4634 24.1367 15.4637 24.1367 15.464C24.1367 15.4643 24.1367 15.4646 24.1367 15.4649C24.1367 15.4652 24.1367 15.4655 24.1367 15.4659C24.1367 15.4662 24.1367 15.4665 24.1367 15.4668C24.1367 15.4671 24.1367 15.4674 24.1367 15.4677C24.1367 15.468 24.1367 15.4683 24.1367 15.4687C24.1367 15.469 24.1367 15.4693 24.1367 15.4696C24.1367 15.4699 24.1367 15.4702 24.1367 15.4705C24.1367 15.4708 24.1367 15.4711 24.1367 15.4715C24.1367 15.4718 24.1367 15.4721 24.1367 15.4724C24.1367 15.4727 24.1367 15.473 24.1367 15.4733C24.1367 15.4736 24.1367 15.4739 24.1367 15.4743C24.1367 15.4746 24.1367 15.4749 24.1367 15.4752C24.1367 15.4755 24.1367 15.4758 24.1367 15.4761C24.1367 15.4764 24.1367 15.4767 24.1367 15.4771C24.1367 15.4774 24.1367 15.4777 24.1367 15.478C24.1367 15.4783 24.1367 15.4786 24.1367 15.4789C24.1367 15.4792 24.1367 15.4795 24.1367 15.4798C24.1367 15.4802 24.1367 15.4805 24.1367 15.4808C24.1367 15.4811 24.1367 15.4814 24.1367 15.4817C24.1367 15.482 24.1367 15.4823 24.1367 15.4826C24.1367 15.4829 24.1367 15.4833 24.1367 15.4836C24.1367 15.4839 24.1367 15.4842 24.1367 15.4845C24.1367 15.4848 24.1367 15.4851 24.1367 15.4854C24.1367 15.4857 24.1367 15.4861 24.1367 15.4864C24.1367 15.4867 24.1367 15.487 24.1367 15.4873C24.1367 15.4876 24.1367 15.4879 24.1367 15.4882C24.1367 15.4885 24.1367 15.4888 24.1367 15.4892C24.1367 15.4895 24.1367 15.4898 24.1367 15.4901C24.1367 15.4904 24.1367 15.4907 24.1367 15.491C24.1367 15.4913 24.1367 15.4916 24.1367 15.4919C24.1367 15.4923 24.1367 15.4926 24.1367 15.4929C24.1367 15.4932 24.1367 15.4935 24.1367 15.4938C24.1367 15.4941 24.1367 15.4944 24.1367 15.4947C24.1367 15.495 24.1367 15.4953 24.1367 15.4957C24.1367 15.496 24.1367 15.4963 24.1367 15.4966C24.1367 15.4969 24.1367 15.4972 24.1367 15.4975C24.1367 15.4978 24.1367 15.4981 24.1367 15.4984C24.1367 15.4988 24.1367 15.4991 24.1367 15.4994C24.1367 15.4997 24.1367 15.5 24.1367 15.5003C24.1367 15.5006 24.1367 15.5009 24.1367 15.5012C24.1367 15.5015 24.1367 15.5018 24.1367 15.5022C24.1367 15.5025 24.1367 15.5028 24.1367 15.5031C24.1367 15.5034 24.1367 15.5037 24.1367 15.504C24.1367 15.5043 24.1367 15.5046 24.1367 15.5049C24.1367 15.5053 24.1367 15.5056 24.1367 15.5059C24.1367 15.5062 24.1367 15.5065 24.1367 15.5068C24.1367 15.5071 24.1367 15.5074 24.1367 15.5077C24.1367 15.508 24.1367 15.5083 24.1367 15.5087C24.1367 15.509 24.1367 15.5093 24.1367 15.5096C24.1367 15.5099 24.1367 15.5102 24.1367 15.5105C24.1367 15.5108 24.1367 15.5111 24.1367 15.5114C24.1367 15.5117 24.1367 15.5121 24.1367 15.5124C24.1367 15.5127 24.1367 15.513 24.1367 15.5133C24.1367 15.5136 24.1367 15.5139 24.1367 15.5142C24.1367 15.5145 24.1367 15.5148 24.1367 15.5151C24.1367 15.5155 24.1367 15.5158 24.1367 15.5161C24.1367 15.5164 24.1367 15.5167 24.1367 15.517C24.1367 15.5173 24.1367 15.5176 24.1367 15.5179C24.1367 15.5182 24.1367 15.5185 24.1367 15.5189C24.1367 15.5192 24.1367 15.5195 24.1367 15.5198C24.1367 15.5201 24.1367 15.5204 24.1367 15.5207C24.1367 15.521 24.1367 15.5213 24.1367 15.5216C24.1367 15.5219 24.1367 15.5223 24.1367 15.5226C24.1367 15.5229 24.1367 15.5232 24.1367 15.5235C24.1367 15.5238 24.1367 15.5241 24.1367 15.5244C24.1367 15.5247 24.1367 15.525 24.1367 15.5253C24.1367 15.5257 24.1367 15.526 24.1367 15.5263C24.1367 15.5266 24.1367 15.5269 24.1367 15.5272C24.1367 15.5275 24.1367 15.5278 24.1367 15.5281C24.1367 15.5284 24.1367 15.5287 24.1367 15.5291C24.1367 15.5294 24.1367 15.5297 24.1367 15.53C24.1367 15.5303 24.1367 15.5306 24.1367 15.5309C24.1367 15.5312 24.1367 15.5315 24.1367 15.5318C24.1367 15.5321 24.1367 15.5325 24.1367 15.5328C24.1367 15.5331 24.1367 15.5334 24.1367 15.5337C24.1367 15.534 24.1367 15.5343 24.1367 15.5346C24.1367 15.5349 24.1367 15.5352 24.1367 15.5355C24.1367 15.5359 24.1367 15.5362 24.1367 15.5365C24.1367 15.5368 24.1367 15.5371 24.1367 15.5374C24.1367 15.5377 24.1367 15.538 24.1367 15.5383C24.1367 15.5386 24.1367 15.5389 24.1367 15.5393C24.1367 15.5396 24.1367 15.5399 24.1367 15.5402C24.1367 15.5405 24.1367 15.5408 24.1367 15.5411C24.1367 15.5414 24.1367 15.5417 24.1367 15.542C24.1367 15.5423 24.1367 15.5426 24.1367 15.543C24.1367 15.5433 24.1367 15.5436 24.1367 15.5439C24.1367 15.5442 24.1367 15.5445 24.1367 15.5448C24.1367 15.5451 24.1367 15.5454 24.1367 15.5457C24.1367 15.5461 24.1367 15.5464 24.1367 15.5467C24.1367 15.547 24.1367 15.5473 24.1367 15.5476C24.1367 15.5479 24.1367 15.5482 24.1367 15.5485C24.1367 15.5488 24.1367 15.5491 24.1367 15.5495C24.1367 15.5498 24.1367 15.5501 24.1367 15.5504C24.1367 15.5507 24.1367 15.551 24.1367 15.5513C24.1367 15.5516 24.1367 15.5519 24.1367 15.5522C24.1367 15.5525 24.1367 15.5529 24.1367 15.5532C24.1367 15.5535 24.1367 15.5538 24.1367 15.5541C24.1367 15.5544 24.1367 15.5547 24.1367 15.555C24.1367 15.5553 24.1367 15.5556 24.1367 15.5559C24.1367 15.5563 24.1367 15.5566 24.1367 15.5569C24.1367 15.5572 24.1367 15.5575 24.1367 15.5578C24.1367 15.5581 24.1367 15.5584 24.1367 15.5587C24.1367 15.559 24.1367 15.5594 24.1367 15.5597C24.1367 15.56 24.1367 15.5603 24.1367 15.5606C24.1367 15.5609 24.1367 15.5612 24.1367 15.5615C24.1367 15.5618 24.1367 15.5621 24.1367 15.5624C24.1367 15.5628 24.1367 15.5631 24.1367 15.5634C24.1367 15.5637 24.1367 15.564 24.1367 15.5643C24.1367 15.5646 24.1367 15.5649 24.1367 15.5652C24.1367 15.5655 24.1367 15.5659 24.1367 15.5662C24.1367 15.5665 24.1367 15.5668 24.1367 15.5671C24.1367 15.5674 24.1367 15.5677 24.1367 15.568C24.1367 15.5683 24.1367 15.5686 24.1367 15.569C24.1367 15.5693 24.1367 15.5696 24.1367 15.5699C24.1367 15.5702 24.1367 15.5705 24.1367 15.5708C24.1367 15.5711 24.1367 15.5714 24.1367 15.5717C24.1367 15.5721 24.1367 15.5724 24.1367 15.5727C24.1367 15.573 24.1367 15.5733 24.1367 15.5736C24.1367 15.5739 24.1367 15.5742 24.1367 15.5745C24.1367 15.5748 24.1367 15.5752 24.1367 15.5755C24.1367 15.5758 24.1367 15.5761 24.1367 15.5764C24.1367 15.5767 24.1367 15.577 24.1367 15.5773C24.1367 15.5776 24.1367 15.5779 24.1367 15.5783C24.1367 15.5786 24.1367 15.5789 24.1367 15.5792C24.1367 15.5795 24.1367 15.5798 24.1367 15.5801C24.1367 15.5804 24.1367 15.5807 24.1367 15.5811C24.1367 15.5814 24.1367 15.5817 24.1367 15.582C24.1367 15.5823 24.1367 15.5826 24.1367 15.5829C24.1367 15.5832 24.1367 15.5835 24.1367 15.5839C24.1367 15.5842 24.1367 15.5845 24.1367 15.5848C24.1367 15.5851 24.1367 15.5854 24.1367 15.5857C24.1367 15.586 24.1367 15.5863 24.1367 15.5866C24.1367 15.587 24.1367 15.5873 24.1367 15.5876C24.1367 15.5879 24.1367 15.5882 24.1367 15.5885C24.1367 15.5888 24.1367 15.5891 24.1367 15.5894C24.1367 15.5898 24.1367 15.5901 24.1367 15.5904C24.1367 15.5907 24.1367 15.591 24.1367 15.5913C24.1367 15.5916 24.1367 15.5919 24.1367 15.5923C24.1367 15.5926 24.1367 15.5929 24.1367 15.5932C24.1367 15.5935 24.1367 15.5938 24.1367 15.5941C24.1367 15.5944 24.1367 15.5947 24.1367 15.5951C24.1367 15.5954 24.1367 15.5957 24.1367 15.596C24.1367 15.5963 24.1367 15.5966 24.1367 15.5969C24.1367 15.5972 24.1367 15.5975 24.1367 15.5979C24.1367 15.5982 24.1367 15.5985 24.1367 15.5988C24.1367 15.5991 24.1367 15.5994 24.1367 15.5997C24.1367 15.6 24.1367 15.6004 24.1367 15.6007C24.1367 15.601 24.1367 15.6013 24.1367 15.6016C24.1367 15.6019 24.1367 15.6022 24.1367 15.6025C24.1367 15.6029 24.1367 15.6032 24.1367 15.6035C24.1367 15.6038 24.1367 15.6041 24.1367 15.6044C24.1367 15.6047 24.1367 15.605 24.1367 15.6054C24.1367 15.6057 24.1367 15.606 24.1367 15.6063C24.1367 15.6066 24.1367 15.6069 24.1367 15.6072C24.1367 15.6075 24.1367 15.6079 24.1367 15.6082C24.1367 15.6085 24.1367 15.6088 24.1367 15.6091C24.1367 15.6094 24.1367 15.6097 24.1367 15.61C24.1367 15.6104 24.1367 15.6107 24.1367 15.611C24.1367 15.6113 24.1367 15.6116 24.1367 15.6119C24.1367 15.6122 24.1367 15.6125 24.1367 15.6129C24.1367 15.6132 24.1367 15.6135 24.1367 15.6138C24.1367 15.6141 24.1367 15.6144 24.1367 15.6147C24.1367 15.6151 24.1367 15.6154 24.1367 15.6157C24.1367 15.616 24.1367 15.6163 24.1367 15.6166C24.1367 15.6169 24.1367 15.6173 24.1367 15.6176C24.1367 15.6179 24.1367 15.6182 24.1367 15.6185C24.1367 15.6188 24.1367 15.6191 24.1367 15.6194C24.1367 15.6198 24.1367 15.6201 24.1367 15.6204C24.1367 15.6207 24.1367 15.621 24.1367 15.6213C24.1367 15.6216 24.1367 15.622 24.1367 15.6223C24.1367 15.6226 24.1367 15.6229 24.1367 15.6232C24.1367 15.6235 24.1367 15.6238 24.1367 15.6242C24.1367 15.6245 24.1367 15.6248 24.1367 15.6251C24.1367 15.6254 24.1367 15.6257 24.1367 15.626C24.1367 15.6264 24.1367 15.6267 24.1367 15.627C24.1367 15.6273 24.1367 15.6276 24.1367 15.6279C24.1367 15.6283 24.1367 15.6286 24.1367 15.6289C24.1367 15.6292 24.1367 15.6295 24.1367 15.6298C24.1367 15.6301 24.1367 15.6305 24.1367 15.6308C24.1367 15.6311 24.1367 15.6314 24.1367 15.6317C24.1367 15.632 24.1367 15.6323 24.1367 15.6327C24.1367 15.633 24.1367 15.6333 24.1367 15.6336C24.1367 15.6339 24.1367 15.6342 24.1367 15.6346C24.1367 15.6349 24.1367 15.6352 24.1367 15.6355C24.1367 15.6358 24.1367 15.6361 24.1367 15.6365C24.1367 15.6368 24.1367 15.6371 24.1367 15.6374C24.1367 15.6377 24.1367 15.638 24.1367 15.6383C24.1367 15.6387 24.1367 15.639 24.1367 15.6393C24.1367 15.6396 24.1367 15.6399 24.1367 15.6402C24.1367 15.6406 24.1367 15.6409 24.1367 15.6412C24.1367 15.6415 24.1367 15.6418 24.1367 15.6421C24.1367 15.6425 24.1367 15.6428 24.1367 15.6431C24.1367 15.6434 24.1367 15.6437 24.1367 15.644C24.1367 15.6444 24.1367 15.6447 24.1367 15.645C24.1367 15.6453 24.1367 15.6456 24.1367 15.6459C24.1367 15.6463 24.1367 15.6466 24.1367 15.6469C24.1367 15.6472 24.1367 15.6475 24.1367 15.6479C24.1367 15.6482 24.1367 15.6485 24.1367 15.6488C24.1367 15.6491 24.1367 15.6494 24.1367 15.6498C24.1367 15.6501 24.1367 15.6504 24.1367 15.6507C24.1367 15.651 24.1367 15.6513 24.1367 15.6517C24.1367 15.652 24.1367 15.6523 24.1367 15.6526C24.1367 15.6529 24.1367 15.6533 24.1367 15.6536C24.1367 15.6539 24.1367 15.6542 24.1367 15.6545C24.1367 15.6548 24.1367 15.6552 24.1367 15.6555C24.1367 15.6558 24.1367 15.6561 24.1367 15.6564C24.1367 15.6568 24.1367 15.6571 24.1367 15.6574C24.1367 15.6577 24.1367 15.658 24.1367 15.6584C24.1367 15.6587 24.1367 15.659 24.1367 15.6593C24.1367 15.6596 24.1367 15.6599 24.1367 15.6603C24.1367 15.6606 24.1367 15.6609 24.1367 15.6612C24.1367 15.6615 24.1367 15.6619 24.1367 15.6622C24.1367 15.6625 24.1367 15.6628 24.1367 15.6631C24.1367 15.6635 24.1367 15.6638 24.1367 15.6641C24.1367 15.6644 24.1367 15.6647 24.1367 15.6651C24.1367 15.6654 24.1367 15.6657 24.1367 15.666C24.1367 15.6663 24.1367 15.6667 24.1367 15.667C24.1367 15.6673 24.1367 15.6676 24.1367 15.6679C24.1367 15.6683 24.1367 15.6686 24.1367 15.6689C24.1367 15.6692 24.1367 15.6695 24.1367 15.6699C24.1367 15.6702 24.1367 15.6705 24.1367 15.6708C24.1367 15.6712 24.1367 15.6715 24.1367 15.6718C24.1367 15.6721 24.1367 15.6724 24.1367 15.6728C24.1367 15.6731 24.1367 15.6734 24.1367 15.6737C24.1367 15.674 24.1367 15.6744 24.1367 15.6747C24.1367 15.675 24.1367 15.6753 24.1367 15.6756C24.1367 15.676 24.1367 15.6763 24.1367 15.6766C24.1367 15.6769 24.1367 15.6773 24.1367 15.6776C24.1367 15.6779 24.1367 15.6782 24.1367 15.6785C24.1367 15.6789 24.1367 15.6792 24.1367 15.6795C24.1367 15.6798 24.1367 15.6802 24.1367 15.6805C24.1367 15.6808 24.1367 15.6811 24.1367 15.6814C24.1367 15.6818 24.1367 15.6821 24.1367 15.6824C24.1367 15.6827 24.1367 15.6831 24.1367 15.6834C24.1367 15.6837 24.1367 15.684 24.1367 15.6844C24.1367 15.6847 24.1367 15.685 24.1367 15.6853C24.1367 15.6856 24.1367 15.686 24.1367 15.6863C24.1367 15.6866 24.1367 15.6869 24.1367 15.6873C24.1367 15.6876 24.1367 15.6879 24.1367 15.6882C24.1367 15.6886 24.1367 15.6889 24.1367 15.6892C24.1367 15.6895 24.1367 15.6899 24.1367 15.6902C24.1367 15.6905 24.1367 15.6908 24.1367 15.6912C24.1367 15.6915 24.1367 15.6918 24.1367 15.6921C24.1367 15.6925 24.1367 15.6928 24.1367 15.6931C24.1367 15.6934 24.1367 15.6938 24.1367 15.6941C24.1367 15.6944 24.1367 15.6947 24.1367 15.6951C24.1367 15.6954 24.1367 15.6957 24.1367 15.696C24.1367 15.6964 24.1367 15.6967 24.1367 15.697C24.1367 15.6973 24.1367 15.6977 24.1367 15.698C24.1367 15.6983 24.1367 15.6986 24.1367 15.699C24.1367 15.6993 24.1367 15.6996 24.1367 15.6999C24.1367 15.7003 24.1367 15.7006 24.1367 15.7009C24.1367 15.7012 24.1367 15.7016 24.1367 15.7019C24.1367 15.7022 24.1367 15.7026 24.1367 15.7029C24.1367 15.7032 24.1367 15.7035 24.1367 15.7039C24.1367 15.7042 24.1367 15.7045 24.1367 15.7048C24.1367 15.7052 24.1367 15.7055 24.1367 15.7058C24.1367 15.7061 24.1367 15.7065 24.1367 15.7068C24.1367 15.7071 24.1367 15.7075 24.1367 15.7078C24.1367 15.7081 24.1367 15.7084 24.1367 15.7088C24.1367 15.7091 24.1367 15.7094 24.1367 15.7098C24.1367 15.7101 24.1367 15.7104 24.1367 15.7107C24.1367 15.7111 24.1367 15.7114 24.1367 15.7117C24.1367 15.7121 24.1367 15.7124 24.1367 15.7127C24.1367 15.713 24.1367 15.7134 24.1367 15.7137C24.1367 15.714 24.1367 15.7144 24.1367 15.7147C24.1367 15.715 24.1367 15.7153 24.1367 15.7157C24.1367 15.716 24.1367 15.7163 24.1367 15.7167C24.1367 15.717 24.1367 15.7173 24.1367 15.7176C24.1367 15.718 24.1367 15.7183 24.1367 15.7186C24.1367 15.719 24.1367 15.7193 24.1367 15.7196C24.1367 15.72 24.1367 15.7203 24.1367 15.7206C24.1367 15.7209 24.1367 15.7213 24.1367 15.7216C24.1367 15.7219 24.1367 15.7223 24.1367 15.7226C24.1367 15.7229 24.1367 15.7233 24.1367 15.7236C24.1367 15.7239 24.1367 15.7243 24.1367 15.7246C24.1367 15.7249 24.1367 15.7253 24.1367 15.7256C24.1367 15.7259 24.1367 15.7262 24.1367 15.7266C24.1367 15.7269 24.1367 15.7272 24.1367 15.7276C24.1367 15.7279 24.1367 15.7282 24.1367 15.7286C24.1367 15.7289 24.1367 15.7292 24.1367 15.7296C24.1367 15.7299 24.1367 15.7302 24.1367 15.7306C24.1367 15.7309 24.1367 15.7312 24.1367 15.7316C24.1367 15.7319 24.1367 15.7322 24.1367 15.7326C24.1367 15.7329 24.1367 15.7332 24.1367 15.7336C24.1367 15.7339 24.1367 15.7342 24.1367 15.7346C24.1367 15.7349 24.1367 15.7352 24.1367 15.7356C24.1367 15.7359 24.1367 15.7362 24.1367 15.7366C24.1367 15.7369 24.1367 15.7372 24.1367 15.7376C24.1367 15.7379 24.1367 15.7382 24.1367 15.7386C24.1367 15.7389 24.1367 15.7392 24.1367 15.7396C24.1367 15.7399 24.1367 15.7402 24.1367 15.7406C24.1367 15.7409 24.1367 15.7412 24.1367 15.7416C24.1367 15.7419 24.1367 15.7422 24.1367 15.7426C24.1367 15.7429 24.1367 15.7433 24.1367 15.7436C24.1367 15.7439 24.1367 15.7443 24.1367 15.7446C24.1367 15.7449 24.1367 15.7453 24.1367 15.7456C24.1367 15.7459 24.1367 15.7463 24.1367 15.7466C24.1367 15.7469 24.1367 15.7473 24.1367 15.7476C24.1367 15.748 24.1367 15.7483 24.1367 15.7486C24.1367 15.749 24.1367 15.7493 24.1367 15.7496C24.1367 15.75 24.1367 15.7503 24.1367 15.7507C24.1367 15.751 24.1367 15.7513 24.1367 15.7517C24.1367 15.752 24.1367 15.7523 24.1367 15.7527C24.1367 15.753 24.1367 15.7534 24.1367 15.7537C24.1367 15.754 24.1367 15.7544 24.1367 15.7547C24.1367 15.755 24.1367 15.7554 24.1367 15.7557C24.1367 15.7561 24.1367 15.7564 24.1367 15.7567C24.1367 15.7571 24.1367 15.7574 24.1367 15.7578C24.1367 15.7581 24.1367 15.7584 24.1367 15.7588C24.1367 15.7591 24.1367 15.7594 24.1367 15.7598C24.1367 15.7601 24.1367 15.7605 24.1367 15.7608C24.1367 15.7611 24.1367 15.7615 24.1367 15.7618C24.1367 15.7622 24.1367 15.7625 24.1367 15.7628C24.1367 15.7632 24.1367 15.7635 24.1367 15.7639C24.1367 15.7642 24.1367 15.7645 24.1367 15.7649C24.1367 15.7652 24.1367 15.7656 24.1367 15.7659C24.1367 15.7662 24.1367 15.7666 24.1367 15.7669C24.1367 15.7673 24.1367 15.7676 24.1367 15.768C24.1367 15.7683 24.1367 15.7686 24.1367 15.769C24.1367 15.7693 24.1367 15.7697 24.1367 15.77C24.1367 15.7703 24.1367 15.7707 24.1367 15.771C24.1367 15.7714 24.1367 15.7717 24.1367 15.7721C24.1367 15.7724 24.1367 15.7727 24.1367 15.7731C24.1367 15.7734 24.1367 15.7738 24.1367 15.7741C24.1367 15.7745 24.1367 15.7748 24.1367 15.7751H26.1367Z" fill="black"/>
</g>
<defs>
<filter id="filter0_d_119_1451" x="5" y="11.6619" width="25.9648" height="22.5898" filterUnits="userSpaceOnUse" color-interpolation-filters="sRGB">
<feFlood flood-opacity="0" result="BackgroundImageFix"/>
<feColorMatrix in="SourceAlpha" type="matrix" values="0 0 0 0 0 0 0 0 0 0 0 0 0 0 0 0 0 0 127 0" result="hardAlpha"/>
<feOffset dy="4"/>
<feGaussianBlur stdDeviation="2"/>
<feComposite in2="hardAlpha" operator="out"/>
<feColorMatrix type="matrix" values="0 0 0 0 0 0 0 0 0 0 0 0 0 0 0 0 0 0 0.25 0"/>
<feBlend mode="normal" in2="BackgroundImageFix" result="effect1_dropShadow_119_1451"/>
<feBlend mode="normal" in="SourceGraphic" in2="effect1_dropShadow_119_1451" result="shape"/>
</filter>
</defs>
</svg>
