<svg width="36" height="37" viewBox="0 0 36 37" fill="none" xmlns="http://www.w3.org/2000/svg">
<rect y="0.689209" width="36" height="36" rx="18" fill="#CDEEE4"/>
<g filter="url(#filter0_d_119_1453)">
<path d="M13.6406 25.6892V15.1775H10.3711V25.6892H13.6406ZM11.9883 13.7712C13.043 13.7712 13.8867 12.8923 13.8867 11.8376C13.8867 10.8181 13.043 9.97437 11.9883 9.97437C10.9688 9.97437 10.125 10.8181 10.125 11.8376C10.125 12.8923 10.9688 13.7712 11.9883 13.7712ZM25.8398 25.6892H25.875V19.9236C25.875 17.1111 25.2422 14.9314 21.9375 14.9314C20.3555 14.9314 19.3008 15.8103 18.8438 16.6189H18.8086V15.1775H15.6797V25.6892H18.9492V20.4861C18.9492 19.115 19.1953 17.8142 20.8828 17.8142C22.5703 17.8142 22.6055 19.3611 22.6055 20.5916V25.6892H25.8398Z" fill="#231F20"/>
</g>
<defs>
<filter id="filter0_d_119_1453" x="6.125" y="9.97437" width="23.75" height="23.7148" filterUnits="userSpaceOnUse" color-interpolation-filters="sRGB">
<feFlood flood-opacity="0" result="BackgroundImageFix"/>
<feColorMatrix in="SourceAlpha" type="matrix" values="0 0 0 0 0 0 0 0 0 0 0 0 0 0 0 0 0 0 127 0" result="hardAlpha"/>
<feOffset dy="4"/>
<feGaussianBlur stdDeviation="2"/>
<feComposite in2="hardAlpha" operator="out"/>
<feColorMatrix type="matrix" values="0 0 0 0 0 0 0 0 0 0 0 0 0 0 0 0 0 0 0.25 0"/>
<feBlend mode="normal" in2="BackgroundImageFix" result="effect1_dropShadow_119_1453"/>
<feBlend mode="normal" in="SourceGraphic" in2="effect1_dropShadow_119_1453" result="shape"/>
</filter>
</defs>
</svg>
