<svg width="104" height="104" viewBox="0 0 104 104" fill="none" xmlns="http://www.w3.org/2000/svg">
<path d="M103.2 7.84056C103.2 7.34145 102.91 6.88698 102.457 6.67807C74.1595 -6.3729 56.1457 6.00129 52.0109 9.37361C50.2653 7.91736 45.9885 4.78961 39.3608 2.72904C31.3894 0.2495 18.3599 -1.07804 1.54368 6.67807C1.09099 6.88789 0.799927 7.34145 0.799927 7.84056V98.7228C0.799927 99.1595 1.02225 99.5666 1.3901 99.8005C1.75618 100.036 2.21867 100.067 2.61599 99.8853C33.2126 85.7738 50.3851 102.164 51.1006 102.869C51.1354 102.904 51.1809 102.917 51.2184 102.946C51.3122 103.019 51.4041 103.093 51.5158 103.139C51.6068 103.176 51.7024 103.181 51.797 103.197C51.8649 103.209 51.9265 103.238 51.9979 103.238H52.0006C52.0711 103.238 52.1309 103.209 52.1979 103.199C52.2952 103.184 52.3925 103.178 52.4845 103.141C52.6059 103.091 52.7095 103.011 52.8095 102.928C52.8381 102.905 52.8738 102.895 52.9006 102.869C53.6175 102.166 70.79 85.7765 101.385 99.8853C101.783 100.068 102.245 100.038 102.611 99.8005C102.978 99.5648 103.201 99.1594 103.201 98.7228L103.2 7.84056ZM26.2861 91.6805C19.8538 91.6805 12.1459 92.9743 3.36034 96.7494V8.6625C31.4838 -3.94641 48.0781 9.26696 50.7409 11.649C50.8391 17.2054 50.7793 69.2604 50.7266 99.2559C48.54 97.6416 44.7401 95.2817 39.3614 93.6086C35.9159 92.5353 31.523 91.6791 26.2873 91.6791L26.2861 91.6805ZM100.64 96.7494C75.6278 85.9985 58.9832 95.1494 53.2849 99.2787C53.3322 72.6227 53.4081 18.6707 53.2876 11.6262C56.0215 9.18685 72.5948 -3.91052 100.641 8.66273L100.64 96.7494Z" fill="#38A48E"/>
<path d="M11.0769 24.201C31.0717 15.793 42.2815 25.5081 42.7455 25.9224C42.9901 26.1438 43.2982 26.2528 43.6044 26.2528C43.9526 26.2528 44.3018 26.1108 44.5544 25.8304C45.0276 25.3054 44.9874 24.4965 44.4633 24.0215C43.95 23.5581 31.6455 12.7733 10.0839 21.8402C9.43212 22.1143 9.12677 22.8643 9.39999 23.517C9.67409 24.1688 10.4268 24.4733 11.0759 24.2009L11.0769 24.201Z" fill="#38A48E"/>
<path d="M10.0826 33.0742C9.43078 33.3483 9.12543 34.0983 9.39864 34.751C9.67364 35.4037 10.4263 35.7072 11.0754 35.4349C31.0702 27.0278 42.28 36.7421 42.744 37.1563C42.9886 37.3777 43.2967 37.4867 43.6029 37.4867C43.9511 37.4867 44.3002 37.3447 44.5529 37.0643C45.0261 36.5393 44.9859 35.7304 44.4618 35.2554C43.9484 34.792 31.6451 24.0063 10.0826 33.0742Z" fill="#38A48E"/>
<path d="M10.0826 44.3062C9.43078 44.5803 9.12543 45.3303 9.39864 45.9829C9.67364 46.6347 10.4263 46.9392 11.0754 46.6669C31.0702 38.2598 42.28 47.9722 42.744 48.3883C42.9886 48.6097 43.2967 48.7186 43.6029 48.7186C43.9511 48.7186 44.3002 48.5767 44.5529 48.2963C45.0261 47.7713 44.9859 46.9624 44.4618 46.4874C43.9484 46.024 31.6451 35.2392 10.0826 44.3062Z" fill="#38A48E"/>
<path d="M10.0826 55.5404C9.43078 55.8145 9.12543 56.5645 9.39864 57.2171C9.67364 57.8698 10.4263 58.1734 11.0754 57.9011C31.0702 49.494 42.28 59.2064 42.744 59.6225C42.9886 59.8439 43.2967 59.9528 43.6029 59.9528C43.9511 59.9528 44.3002 59.8109 44.5529 59.5305C45.0261 59.0055 44.9859 58.1966 44.4618 57.7216C43.9484 57.2591 31.6451 46.4716 10.0826 55.5404Z" fill="#38A48E"/>
<path d="M10.0826 66.7724C9.43078 67.0466 9.12543 67.7966 9.39864 68.4492C9.67364 69.1019 10.4263 69.4037 11.0754 69.1332C31.0702 60.7233 42.28 70.4403 42.744 70.8546C42.9886 71.076 43.2967 71.1849 43.6029 71.1849C43.9511 71.1849 44.3002 71.043 44.5529 70.7626C45.0261 70.2376 44.9859 69.4287 44.4618 68.9537C43.9484 68.4903 31.6485 57.7027 10.0826 66.7724Z" fill="#38A48E"/>
<path d="M10.0826 78.0066C9.43078 78.2807 9.12543 79.0308 9.39864 79.6834C9.67364 80.3361 10.4263 80.6406 11.0754 80.3673C31.0702 71.9603 42.28 81.6745 42.744 82.0888C42.9886 82.3102 43.2967 82.4191 43.6029 82.4191C43.9511 82.4191 44.3002 82.2772 44.5529 81.9968C45.0261 81.4718 44.9859 80.6629 44.4618 80.1878C43.9484 79.7236 31.6451 68.9397 10.0826 78.0066Z" fill="#38A48E"/>
<path d="M60.3545 25.8307C60.6063 26.1111 60.9562 26.2531 61.3045 26.2531C61.6107 26.2531 61.9179 26.1441 62.1634 25.9227C62.2777 25.8218 73.7526 15.7584 93.832 24.2022C94.482 24.4745 95.2337 24.1718 95.5087 23.5183C95.7828 22.8665 95.4766 22.1165 94.8248 21.8415C73.2552 12.7736 60.9597 23.5602 60.4454 24.0236C59.9204 24.4968 59.8784 25.3058 60.3534 25.8308L60.3545 25.8307Z" fill="#38A48E"/>
<path d="M94.8231 33.0741C73.2535 24.0081 60.958 34.7929 60.4437 35.2563C59.9204 35.7295 59.8794 36.5384 60.3526 37.0634C60.6044 37.3438 60.9544 37.4857 61.3026 37.4857C61.6088 37.4857 61.916 37.3768 62.1615 37.1554C62.2758 37.0527 73.7508 26.9938 93.8301 35.4349C94.4801 35.7072 95.2319 35.4045 95.5069 34.7509C95.7801 34.0983 95.4738 33.3474 94.822 33.0742L94.8231 33.0741Z" fill="#38A48E"/>
<path d="M94.8231 44.3061C73.2535 35.2382 60.958 46.0248 60.4437 46.4882C59.9204 46.9614 59.8794 47.7704 60.3526 48.2954C60.6044 48.5757 60.9544 48.7177 61.3026 48.7177C61.6088 48.7177 61.916 48.6088 62.1615 48.3873C62.2758 48.2847 73.7508 38.223 93.8301 46.6668C94.4801 46.9391 95.2319 46.6347 95.5069 45.9829C95.7801 45.332 95.4738 44.582 94.822 44.3061L94.8231 44.3061Z" fill="#38A48E"/>
<path d="M94.8231 55.5404C73.2535 46.4726 60.958 57.2583 60.4437 57.7226C59.9204 58.1958 59.8794 59.0047 60.3526 59.5297C60.6044 59.8101 60.9544 59.9521 61.3026 59.9521C61.6088 59.9521 61.916 59.8431 62.1615 59.6217C62.2758 59.5208 73.7508 49.4574 93.8301 57.9012C94.4801 58.1726 95.2319 57.8708 95.5069 57.2172C95.7801 56.5654 95.4738 55.8155 94.822 55.5405L94.8231 55.5404Z" fill="#38A48E"/>
<path d="M94.823 66.7725C73.2534 57.7037 60.9579 68.4912 60.4436 68.9546C59.9213 69.427 59.8802 70.2332 60.3517 70.7582C60.6035 71.0386 60.9543 71.1823 61.3043 71.1823C61.6088 71.1823 61.9151 71.0752 62.1579 70.8555C62.6249 70.4386 73.8311 60.7234 93.8311 69.1323C94.4811 69.4037 95.2328 69.1019 95.5078 68.4484C95.781 67.7966 95.4748 67.0466 94.823 66.7725Z" fill="#38A48E"/>
<path d="M94.8231 78.0067C73.2535 68.9389 60.958 79.7246 60.4437 80.1889C59.9204 80.6621 59.8794 81.471 60.3526 81.996C60.6044 82.2764 60.9544 82.4184 61.3026 82.4184C61.6088 82.4184 61.916 82.3094 62.1615 82.088C62.2758 81.9853 73.7508 71.9246 93.8301 80.3675C94.4801 80.6416 95.2319 80.3371 95.5069 79.6835C95.7801 79.0309 95.4738 78.2809 94.822 78.0068L94.8231 78.0067Z" fill="#38A48E"/>
</svg>
