<svg width="108" height="110" viewBox="0 0 108 110" fill="none" xmlns="http://www.w3.org/2000/svg">
<path d="M105.432 66.7212H98.9066V7.04811C98.9066 5.9874 98.0467 5.12848 96.9869 5.12848L71.2132 5.12758V2.11958C71.2132 1.05888 70.3534 0.199951 69.2936 0.199951H38.7999C37.7392 0.199951 36.8802 1.05888 36.8802 2.11958V5.12758H11.1088C10.0481 5.12758 9.18917 5.98651 9.18917 7.04722V66.7203L2.66231 66.7212C1.6016 66.7212 0.742676 67.5802 0.742676 68.6409V76.656C0.742676 77.7167 1.6016 78.5756 2.66231 78.5756H38.1366L27.5366 107.046C27.1669 108.039 27.6723 109.146 28.6652 109.515C28.8866 109.597 29.1116 109.637 29.3348 109.637C30.1134 109.637 30.8464 109.158 31.1348 108.386L42.2322 78.5732H65.8619L76.9583 108.386C77.2476 109.159 77.9798 109.637 78.7583 109.637C78.9807 109.637 79.2075 109.597 79.428 109.515C80.4209 109.146 80.9271 108.039 80.5583 107.046L69.9611 78.5756H105.433C106.493 78.5756 107.353 77.7167 107.353 76.656V68.6409C107.355 67.5802 106.496 66.7212 105.436 66.7212H105.432ZM89.6986 66.7203H75.8521V63.6979H89.6976V66.7203H89.6986ZM40.718 4.03922H67.3717V10.0552H40.718V4.03922ZM13.0266 8.96699H36.878V11.975C36.878 13.0357 37.7369 13.8946 38.7976 13.8946H69.2913C70.3512 13.8946 71.211 13.0357 71.211 11.975V8.96699H95.0647L95.0656 66.7201H93.5388V61.7782C93.5388 60.7175 92.679 59.8585 91.6191 59.8585L73.9307 59.8577C72.8709 59.8577 72.0111 60.7166 72.0111 61.7773V66.7192L13.0259 66.7201L13.0266 8.96699ZM103.511 74.7338H4.58085V70.5588H103.511L103.51 74.7338H103.511Z" fill="#38A48E"/>
</svg>
