<svg width="72" height="108" viewBox="0 0 72 108" fill="none" xmlns="http://www.w3.org/2000/svg">
<path d="M12.2633 16.4881H59.6233C60.3911 16.4881 60.9036 15.9765 60.9036 15.2077C60.9036 14.4399 60.392 13.9274 59.6233 13.9274H12.2633C11.4954 13.9274 10.9829 14.439 10.9829 15.2077C10.9838 15.9756 11.4954 16.4881 12.2633 16.4881Z" fill="#38A48E"/>
<path d="M12.2633 25.192H59.6233C60.3911 25.192 60.9036 24.6803 60.9036 23.9116C60.9036 23.1437 60.392 22.6312 59.6233 22.6312H12.2633C11.4954 22.6312 10.9829 23.1428 10.9829 23.9116C10.9838 24.6803 11.4954 25.192 12.2633 25.192Z" fill="#38A48E"/>
<path d="M12.2633 33.768H59.6233C60.3911 33.768 60.9036 33.2564 60.9036 32.4876C60.9036 31.7198 60.392 31.2073 59.6233 31.2073H12.2633C11.4954 31.2073 10.9829 31.7189 10.9829 32.4876C10.9838 33.2564 11.4954 33.768 12.2633 33.768Z" fill="#38A48E"/>
<path d="M60.9033 41.0641C60.9033 40.2962 60.3917 39.7837 59.6229 39.7837H12.2629C11.495 39.7837 10.9825 40.2953 10.9825 41.0641C10.9825 41.8319 11.4942 42.3444 12.2629 42.3444H59.6229C60.3917 42.3435 60.9033 41.8319 60.9033 41.0641Z" fill="#38A48E"/>
<path d="M33.6394 68.5841L33.2554 71.0163C33.2554 71.144 33.2554 71.2726 33.3831 71.2726H33.5108H33.6385L35.8144 70.1208L37.9903 71.2726H38.3742C38.5019 71.1449 38.5019 71.1449 38.5019 71.0163L38.1179 68.5841L39.9099 66.7921C40.0376 66.6645 40.0376 66.5359 40.0376 66.5359C40.0376 66.4082 39.9099 66.2796 39.7813 66.2796L37.3491 65.8957L36.1973 63.5922C36.0696 63.3359 35.6857 63.3359 35.6857 63.5922L34.5339 65.8957L32.1026 66.2805C31.9749 66.2805 31.8463 66.4082 31.8463 66.5368C31.8463 66.6644 31.8463 66.793 31.974 66.793L33.6394 68.5841Z" fill="#38A48E"/>
<path d="M25.5753 107.24C25.9593 107.496 26.5995 107.368 26.9834 107.112L35.9432 99.9446L44.9029 107.112C45.1592 107.24 45.4145 107.369 45.6708 107.369C45.7985 107.369 46.0547 107.369 46.1824 107.241C46.5663 106.985 46.9503 106.601 46.9503 106.089L46.9512 90.3436H69.8632C70.631 90.3436 71.1435 89.832 71.1435 89.0632V2.02322C71.1435 1.25536 70.6319 0.742859 69.8632 0.742859H2.02317C1.2553 0.742859 0.742798 1.25447 0.742798 2.02322V89.1912C0.742798 89.9591 1.25441 90.4716 2.02317 90.4716H24.9352V106.088C24.9352 106.599 25.1914 107.111 25.5753 107.239V107.24ZM22.5031 73.7041C22.2469 73.5764 22.1192 73.4478 22.1192 73.3202C22.1192 73.1925 21.9915 73.0639 22.1192 72.8085C22.887 71.5282 22.6308 69.7363 21.3513 68.7121C21.2236 68.5844 21.0951 68.3282 21.0951 68.2005C21.0951 68.0728 21.0951 67.9442 21.3513 67.6889C22.5031 66.6647 22.887 65.0004 22.1192 63.5924C21.9915 63.3362 21.9915 63.2085 22.1192 63.0808C22.1192 62.9531 22.2469 62.8245 22.5031 62.6969C24.0388 62.1852 24.8067 60.6487 24.5513 59.1129C24.5513 58.8566 24.5513 58.7289 24.679 58.6012C24.8067 58.4736 24.9353 58.345 25.1906 58.345C26.7263 58.345 28.1344 57.1932 28.3906 55.6565C28.3906 55.4003 28.6469 55.2726 28.6469 55.2726C28.7745 55.2726 28.9031 55.1449 29.1585 55.2726C30.5665 55.7842 32.2307 55.2726 32.9987 53.8646C33.1264 53.6083 33.255 53.6083 33.3826 53.6083C33.5103 53.6083 33.6389 53.6083 33.8942 53.736C35.046 54.7601 36.838 54.7601 37.9907 53.736C38.1184 53.6083 38.3746 53.6083 38.5023 53.6083C38.63 53.6083 38.7586 53.736 38.8862 53.8646C39.6541 55.2726 41.3185 55.7842 42.7265 55.2726C42.9827 55.1449 43.1104 55.2726 43.2381 55.2726C43.3658 55.2726 43.4943 55.4003 43.4943 55.6565C43.7506 57.1923 45.1586 58.345 46.6943 58.345C46.9506 58.345 47.0783 58.4727 47.206 58.6012C47.3336 58.7289 47.3336 58.8575 47.3336 59.1129C47.0774 60.6486 47.9738 62.1851 49.3818 62.6969C49.6381 62.8245 49.7658 62.9531 49.7658 63.0808C49.7658 63.2085 49.8934 63.337 49.7658 63.5924C48.9979 64.8728 49.2542 66.6646 50.5336 67.6889C50.6613 67.8165 50.7899 68.0728 50.7899 68.2005C50.7899 68.3282 50.7899 68.4567 50.5336 68.7121C49.2533 69.7362 48.9979 71.4005 49.7658 72.8085C49.8934 73.0648 49.8934 73.1925 49.7658 73.3202C49.7658 73.4478 49.6381 73.5764 49.3818 73.7041C47.8461 74.2157 47.0783 75.7523 47.3336 77.2881C47.3336 77.5443 47.3336 77.672 47.206 77.7997C47.0783 77.9274 46.9497 78.0559 46.6943 78.0559C45.1586 78.0559 43.7506 79.2077 43.4943 80.7444C43.4943 81.0007 43.2381 81.1283 43.2381 81.1283C43.1104 81.1283 42.9818 81.256 42.7265 81.1283C41.3184 80.6167 39.6542 81.1283 38.8862 82.5364C38.7586 82.7926 38.63 82.7926 38.5023 82.7926C38.3746 82.7926 38.2461 82.7926 37.9907 82.665C36.8389 81.6408 35.0469 81.6408 33.8942 82.665C33.7666 82.7926 33.5103 82.7926 33.3826 82.7926C33.255 82.7926 33.1264 82.665 32.9987 82.5364C32.4871 81.5123 31.3344 80.8721 30.1827 80.8721C29.7988 80.8721 29.4148 80.9998 29.0309 81.1284C28.7747 81.256 28.647 81.1284 28.5193 81.1284C28.3916 81.1284 28.263 81.0007 28.263 80.7444C28.0068 79.2087 26.7273 78.056 25.063 78.056C24.8068 78.056 24.6791 77.9283 24.5514 77.7997C24.4238 77.672 24.4238 77.5435 24.4238 77.2881C24.9354 75.6238 24.0397 74.0881 22.5031 73.7041ZM27.4951 83.3041C28.263 83.688 29.2871 83.8157 30.0549 83.4318C30.3111 83.3041 30.6951 83.4318 30.8228 83.688C31.3344 84.5844 32.1031 85.0961 32.9986 85.2237H33.5102C33.8942 85.2237 34.2781 85.0961 34.662 84.9675V97.5113L27.4943 103.271L27.4951 83.3041ZM37.2236 97.6399V85.0961C37.7352 85.3523 38.3754 85.3523 38.8878 85.3523C39.7843 85.2247 40.6798 84.5845 41.0637 83.8166C41.1914 83.5604 41.5753 83.4327 41.8316 83.5604C42.728 83.9443 43.6236 83.8166 44.3914 83.4327V103.657L37.2236 97.6399ZM3.30358 87.7836V3.30363H68.7116V87.9116L46.9518 87.9107V80.4874C47.8482 80.3597 48.6161 80.1035 49.1277 79.3356C49.7679 78.5678 50.0241 77.6713 49.7679 76.7759C49.7679 76.5196 49.8955 76.2642 50.1518 76.1357C51.0482 75.8794 51.8161 75.1116 52.0714 74.216C52.4554 73.3196 52.3277 72.2964 51.8152 71.5276C51.6875 71.2713 51.6875 71.016 51.9429 70.7597C52.7107 70.1195 53.0947 69.224 53.0947 68.3275C53.0947 67.431 52.7107 66.5355 51.9429 65.8953C51.6866 65.7676 51.6866 65.3837 51.8152 65.1274C52.3268 64.3595 52.4554 63.3354 52.0714 62.4389C51.6875 61.5425 51.0473 60.9032 50.1518 60.5193C49.8955 60.3916 49.7679 60.1354 49.7679 59.8791C49.8955 58.9827 49.7679 57.9595 49.1277 57.3194C48.4875 56.5515 47.592 56.1676 46.6955 56.1676C46.4392 56.1676 46.1838 55.9113 46.0553 55.6559C45.9276 54.7595 45.2874 53.864 44.5196 53.4801C43.7517 52.9684 42.7276 52.9684 41.8311 53.2238C41.5748 53.3515 41.1909 53.2238 41.0632 52.9676C40.5516 52.0711 39.7829 51.5595 38.8873 51.4318C37.9909 51.3042 36.9677 51.5595 36.3276 52.1997C36.0713 52.3274 35.816 52.3274 35.5597 52.1997C34.7918 51.5595 33.8954 51.3033 32.9999 51.4318C32.1035 51.5595 31.208 52.1997 30.8241 52.9676C30.6964 53.2238 30.4401 53.3515 30.0562 53.2238C29.1598 52.8399 28.1366 52.9676 27.3677 53.4801C26.5999 53.9917 25.9597 54.7604 25.832 55.6559C25.832 55.9122 25.5758 56.1676 25.3204 56.1676C24.2963 56.1676 23.5284 56.5515 22.8882 57.3194C22.248 58.0872 21.9917 58.9836 22.248 59.8791C22.248 60.1354 22.1203 60.3907 21.8641 60.5193C20.9676 60.7756 20.1998 61.5434 19.9444 62.4389C19.5605 63.3354 19.6882 64.3586 20.2007 65.1274C20.3283 65.3837 20.3283 65.639 20.073 65.8953C19.3051 66.5354 18.9212 67.431 18.9212 68.3275C18.9212 69.224 19.3051 70.1194 20.073 70.7597C20.3292 70.8874 20.3292 71.2713 20.2007 71.5276C19.6891 72.2954 19.5605 73.3195 19.9444 74.216C20.3284 75.1125 20.9685 75.7518 21.8641 76.1357C22.1203 76.2633 22.248 76.5196 22.248 76.7759C22.1203 77.6723 22.248 78.6955 22.8882 79.3356C23.3998 79.9758 24.1685 80.3597 25.0641 80.4874V87.9114L3.30337 87.9105L3.30358 87.7836Z" fill="#38A48E"/>
</svg>
