<svg width="104" height="104" viewBox="0 0 104 104" fill="none" xmlns="http://www.w3.org/2000/svg">
<path d="M87.3286 71.0869C86.0482 71.0869 84.8964 71.2145 83.7446 71.4708L103.201 26.1588C103.329 25.9025 103.329 25.5186 103.201 25.1347C103.073 24.8784 102.817 24.6231 102.561 24.4945L95.1367 21.423L91.0402 19.631C91.2964 17.0712 89.7598 14.5115 87.0724 13.231L84.1287 11.9506C85.1528 8.11041 83.1045 4.01487 79.3929 2.47841C75.6813 0.942683 71.3287 2.35073 69.2813 5.67841L66.3376 4.39804C64.8018 3.75786 63.1376 3.63018 61.6018 4.14179C60.5777 4.52572 59.6822 5.16591 59.042 5.93375L47.65 1.06952C47.0098 0.813266 46.242 1.06952 45.9858 1.7097L24.8644 51.5017L19.7448 19.1177C19.6172 18.4775 18.977 17.9659 18.3368 18.0936L1.9528 20.6534C1.56886 20.6534 1.31261 20.9096 1.05636 21.165C0.800112 21.4212 0.80011 21.8052 0.80011 22.0614L13.2161 101.421C13.3438 102.062 13.8563 102.446 14.4965 102.446H14.7527L31.1367 99.8857C31.5207 99.8857 31.7769 99.6295 32.0332 99.3741C32.2894 99.1179 32.2894 98.734 32.2894 98.4777L29.7296 82.3499L46.7536 89.6464L44.3205 99.5017C44.1928 100.142 44.5767 100.91 45.2169 101.037L50.7205 102.445H50.9767C51.233 102.445 51.4883 102.445 51.6169 102.318C51.8732 102.19 52.1285 101.806 52.2571 101.55L54.433 93.1017L70.3052 99.8857C70.4329 100.013 70.6891 100.013 70.8168 100.013C71.3284 100.013 71.8409 99.7571 71.9686 99.2455L73.6329 95.2777C76.4489 100.014 81.4409 103.086 87.3293 103.086C96.1616 103.086 103.329 95.918 103.329 87.0857C103.328 78.2535 96.0329 71.0857 87.3284 71.0857L87.3286 71.0869ZM95.5206 76.5913C93.2171 78.511 90.2724 79.5351 87.3286 79.5351C84.2564 79.5351 81.4402 78.511 79.0091 76.5913C81.3126 74.7994 84.1286 73.7753 87.2011 73.7753C90.4011 73.6468 93.2171 74.7994 95.5206 76.5913ZM58.6566 52.2713L61.6004 53.0392L51.1039 95.1512L48.1611 94.3842L58.6566 52.2713ZM63.2646 50.7356L58.4013 49.5838L63.7773 27.824L68.6415 28.9758L63.2646 50.7356ZM64.161 53.5516C64.6727 53.5516 65.3128 53.1677 65.4414 52.5275L70.0494 33.9677L71.3298 34.3516L65.4413 57.9036C65.3136 58.5438 65.6976 59.3117 66.3378 59.4394H66.594C67.1056 59.4394 67.7458 59.0554 67.8744 58.4153L74.0181 33.5833C74.1458 32.9431 73.7619 32.1752 73.1217 32.0475L70.5619 31.4073L71.3298 28.0796C71.4575 27.6956 71.3298 27.4394 71.2021 27.0555C71.0744 26.7992 70.6905 26.5438 70.4343 26.4153L63.1378 24.6233C62.4976 24.4956 61.7298 24.8796 61.6021 25.5198L55.5861 49.8398C55.4584 50.2237 55.5861 50.4799 55.7137 50.8639C55.8414 51.1201 55.97 51.2478 56.2254 51.2478L49.3138 78.8958L28.1943 69.8074L55.2023 6.70335L57.8907 7.85514L55.5854 13.7436C55.4577 13.9998 55.4577 14.3838 55.5854 14.7677C55.713 15.024 55.9693 15.2793 56.2255 15.4079L86.1775 28.2079C86.3052 28.3356 86.5615 28.3356 86.6892 28.3356C87.2008 28.3356 87.7133 28.0793 87.841 27.5677L90.1445 22.0642L92.8329 23.216L65.9529 86.32L56.8645 82.4797L64.161 53.5516ZM62.4968 6.7036C63.3932 6.44735 64.4164 6.44735 65.4405 6.83127L69.4083 8.49555C70.0485 8.7518 70.8164 8.49555 71.0726 7.85537C72.353 5.03937 75.553 3.75891 78.369 4.9116C81.185 6.19196 82.4655 9.39205 81.3128 12.2081C81.0566 12.8482 81.3128 13.6161 81.953 13.8723L85.9208 15.5366C87.8404 16.3045 88.8645 18.3526 88.2243 19.8884L85.9208 25.2644L58.2728 13.3608L60.5763 7.98483C61.0888 7.47144 61.7289 6.95985 62.4968 6.7036ZM47.9048 4.01605L52.769 6.06426L27.041 66.2243L25.5053 56.368L47.9048 4.01605ZM15.6488 99.7601L3.61654 22.9601L17.4405 20.7842L18.2084 26.0324L13.8566 26.6726C13.2165 26.8003 12.7048 27.4404 12.8325 28.0806C12.9602 28.7208 13.4727 29.1047 14.1129 29.1047H14.3691L18.7209 28.4646L19.1048 31.2806L14.6253 32.0475C13.9851 32.1752 13.4735 32.8154 13.6012 33.4556C13.7289 34.0958 14.2414 34.4797 14.8816 34.4797H15.1378L19.4896 33.8395L19.8735 36.6555L15.5217 37.2957C14.8815 37.4234 14.3699 38.0636 14.4976 38.7037C14.6253 39.3439 15.1378 39.7278 15.778 39.7278H16.0342L20.386 39.0877L20.7699 41.9037L16.4182 42.5438C15.778 42.6715 15.2664 43.3117 15.3941 43.9519C15.5217 44.5921 16.0342 44.976 16.6744 44.976H16.9307L21.2824 44.3358L21.6664 47.1518L17.1852 48.1759C16.545 48.3036 16.0334 48.9438 16.1611 49.584C16.2888 50.2242 16.8013 50.6081 17.4415 50.6081H17.6977L22.0495 49.9679L22.4334 52.7839L18.0817 53.4241C17.4415 53.5518 16.9299 54.192 17.0575 54.8321C17.1852 55.4723 17.6977 55.8563 18.3379 55.8563H18.5942L22.9459 55.2161L23.3299 58.0321L18.9781 58.6723C18.3379 58.7999 17.8263 59.4401 17.954 60.0803C18.0817 60.7205 18.5942 61.1044 19.2343 61.1044H19.4906L23.8424 60.4642L24.2263 63.2802L19.7452 64.3035C19.105 64.4311 18.5934 65.0713 18.721 65.7115C18.8487 66.3517 19.3612 66.7356 20.0014 66.7356H20.2577L24.6094 66.0954L24.9934 68.9114L20.6416 69.5516C20.0014 69.6793 19.4898 70.3195 19.6175 70.9597C19.7452 71.5998 20.2577 71.9838 20.8978 71.9838H21.1541L25.5059 71.3436L25.8898 74.1596L21.538 74.7998C20.8978 74.9275 20.3862 75.5676 20.5139 76.2078C20.6416 76.848 21.1541 77.2319 21.7943 77.2319H22.0505L26.4023 76.5918L26.7862 79.4078L22.4345 80.0479C21.7943 80.1756 21.2827 80.8158 21.4103 81.456C21.538 82.0962 22.0505 82.4801 22.6907 82.4801H22.947L27.2987 81.8399L27.6827 84.6559L23.3309 85.2961C22.6907 85.4238 22.1791 86.064 22.3068 86.7041C22.4345 87.3443 22.947 87.7283 23.5871 87.7283H23.8434L28.1952 87.0881L28.5791 89.9041L24.2273 90.5443C23.5871 90.6719 23.0755 91.3121 23.2032 91.9523C23.3309 92.5925 23.8434 92.9764 24.4836 92.9764H24.7398L29.0916 92.3362L29.8595 96.9442L15.6488 99.7601ZM29.2175 79.4083L28.1933 72.8805L48.8013 81.7127L47.3933 87.2163L29.2175 79.4083ZM47.0095 98.9923L47.5211 96.9441L50.4648 97.7119L49.9532 99.7601L47.0095 98.9923ZM72.0975 92.0798L70.0492 96.9441L54.9457 90.5441L56.3538 85.0405L66.21 89.2645C66.3377 89.3922 66.5939 89.3922 66.7216 89.3922C66.8493 89.3922 67.1055 89.3922 67.2332 89.2645C67.4895 89.1368 67.7448 88.8806 67.8734 88.6243L95.3934 24.3683L100.258 26.4165L80.4183 72.6245C75.0423 75.1843 71.3298 80.6888 71.3298 86.9603C71.3298 88.7523 71.5861 90.4165 72.0977 92.0798L72.0975 92.0798ZM79.2652 97.7121C81.5688 95.9201 84.3848 94.8961 87.3295 94.8961C90.2732 94.8961 93.0892 95.9202 95.3937 97.7121C93.0901 99.3763 90.4017 100.401 87.3295 100.401C84.2572 100.401 81.4419 99.3764 79.2652 97.7121ZM97.1857 95.9201C94.3697 93.6166 90.9135 92.3361 87.2017 92.3361C83.4901 92.3361 80.0339 93.6165 77.2177 95.9201C75.0418 93.4879 73.7615 90.4166 73.7615 86.9603C73.7615 83.6326 75.0418 80.5603 77.0892 78.2568C79.9052 80.689 83.4892 81.9683 87.2008 81.9683C90.9123 81.9683 94.4972 80.688 97.3123 78.2568C99.3605 80.5603 100.512 83.6328 100.512 86.9603C100.642 90.4166 99.3616 93.6166 97.1857 95.9201Z" fill="#38A48E"/>
<path d="M77.0541 8.44924C77.9631 8.83941 78.3854 9.89299 77.9952 10.8028C77.6059 11.7118 76.5523 12.1341 75.6425 11.7439C74.7327 11.3537 74.3113 10.3011 74.7005 9.39123C75.0907 8.4814 76.1443 8.05996 77.0541 8.44924Z" fill="#38A48E"/>
</svg>
