<svg width="345" height="363" viewBox="0 0 345 363" fill="none" xmlns="http://www.w3.org/2000/svg">
<path d="M151.922 113.787C155.091 113.851 153.532 111.149 154.295 109.539H200.504C200.564 110.243 200.509 111.037 200.727 111.748C200.915 112.368 201.309 113.258 201.792 113.396C203.674 113.931 203.04 115.341 203.001 116.477C202.957 117.781 201.927 117.69 200.958 117.71C198.727 117.753 198.575 118.038 198.941 121.249C198.996 120.686 199.049 120.124 199.132 119.245C199.285 122.265 199.231 124.986 199.602 127.645C200.082 131.082 200.885 134.475 201.579 137.88C201.957 139.737 202.337 141.598 202.827 143.428C203.509 145.972 201.54 147.377 200.421 149.087C196.982 154.342 193.22 159.393 189.962 164.753C187.177 169.334 184.664 174.122 182.503 179.026C180.942 182.572 180.16 186.459 179.011 190.188C178.889 190.585 178.635 190.943 178.131 191.244C178.586 182.324 179.043 173.403 179.498 164.483C179.454 164.475 179.411 164.469 179.369 164.463C179.433 165.241 179.498 166.021 179.562 166.801H180.074C180.074 160.392 180.119 153.982 180.042 147.574C180.023 146.014 180.554 144.93 181.695 143.941C183.625 142.265 184.204 138.321 182.903 136.37C181.031 133.566 177.633 132.282 175.135 133.439C172.252 134.773 170.518 138.356 171.467 141.215C171.75 142.066 172.153 143.095 172.831 143.55C174.589 144.734 174.739 146.335 174.691 148.188C174.612 151.275 174.67 154.362 175 157.447C175.083 157.237 175.166 157.027 175.136 157.102C175.653 168.366 176.18 179.871 176.707 191.376C176.536 191.404 176.365 191.431 176.194 191.456C176.023 191.079 175.728 190.712 175.701 190.326C175.34 185.031 172.828 180.491 170.598 175.87C168.703 171.942 166.772 168.019 164.607 164.235C162.569 160.679 160.271 157.261 157.959 153.869C156.123 151.174 153.961 148.695 152.226 145.942C151.716 145.132 152 143.681 152.215 142.581C152.737 139.908 153.586 137.293 154.016 134.61C154.607 130.934 154.923 127.213 155.393 123.517C155.458 123.015 155.852 122.554 155.913 122.051C156.015 121.201 155.913 120.325 156.004 119.471C156.133 118.244 155.464 117.842 154.411 117.698C151.484 117.296 151.312 117.025 151.922 113.787Z" fill="#231F20"/>
<path d="M187.89 9.96977C188.83 10.8376 189.591 11.1986 189.712 11.7102C190.25 14.0094 190.56 16.3603 191.051 18.6705C191.25 19.6074 191.702 20.4878 192.038 21.3934L192.964 21.1219C192.796 20.447 192.722 19.7314 192.443 19.1052C191.774 17.6049 192.043 17.1811 194.091 17.0132C194.196 18.162 194.299 19.3186 194.422 20.6526C196.413 19.8428 196.657 17.9909 197.438 16.533C197.794 15.8722 198.22 15.2492 198.614 14.6089C198.899 14.6952 199.185 14.7815 199.469 14.8694C199.854 18.7223 200.269 22.572 200.615 26.428C202.901 51.929 201.235 77.488 201.732 103.016C201.796 106.326 201.742 106.324 198.438 106.319C195.456 106.313 192.471 106.244 189.492 106.335C187.838 106.388 187.388 105.778 187.391 104.15C187.437 81.6218 187.413 59.0948 187.421 36.5646C187.424 29.0834 187.457 21.599 187.512 14.1161C187.52 12.961 187.716 11.8075 187.89 9.96977Z" fill="#F9A72B"/>
<path d="M167.621 37.9966V35.0603C167.529 35.0556 167.438 35.0524 167.347 35.0477C167.323 35.5546 167.278 36.0647 167.278 36.5732C167.265 58.904 167.259 81.2364 167.248 103.567C167.246 106.328 167.24 106.325 164.551 106.325C161.636 106.325 158.715 106.235 155.805 106.369C153.898 106.457 153.355 105.54 153.363 103.887C153.404 95.4818 153.454 87.073 153.465 78.6673C153.484 66.2754 153.448 53.8835 153.498 41.4932C153.509 39.0261 153.363 36.4256 154.071 34.1281C155.292 30.1622 154.413 26.1869 154.857 22.2541C155.129 19.845 155.775 17.4784 156.351 14.6064C157.8 17.538 158.941 19.8482 160.049 22.0908C160.572 20.5089 161.141 18.792 161.708 17.0719C161.964 17.0641 162.218 17.0547 162.472 17.0468C162.591 18.8202 162.712 20.5952 162.833 22.3686C163.012 22.3749 163.191 22.3796 163.371 22.3843C164.252 18.6099 165.132 14.8355 166.013 11.0627C166.337 11.0769 166.662 11.091 166.989 11.1051C167.128 13.4388 167.268 15.7709 167.417 18.249C167.543 17.7468 167.645 17.3434 167.871 16.4426V37.9448C167.788 37.9636 167.704 37.9793 167.621 37.9966Z" fill="#38A48E"/>
<path d="M171.671 22.8391C173.316 27.3589 173.112 32.3621 176.229 36.9071C176.521 35.3298 176.709 34.3019 176.9 33.2708C177.065 33.2378 177.23 33.2033 177.395 33.1688C177.693 33.671 177.99 34.1748 178.453 34.9532C179.228 32.8376 178.504 30.0284 181.932 29.363C182.269 30.5981 182.91 32.009 182.997 33.4544C183.189 36.5571 182.611 39.7744 183.208 42.7735C185.193 52.7563 183.851 62.7973 184.113 72.8006C184.375 82.8682 184.167 92.9468 184.167 103.021C184.167 105.858 184.09 105.943 181.296 105.948C178.711 105.952 176.119 105.83 173.545 105.984C171.637 106.1 171.21 105.331 171.216 103.583C171.266 90.7921 171.258 78 171.225 65.2094C171.207 57.9871 171.039 50.7663 171.064 43.544C171.086 37.2555 171.28 30.9669 171.419 24.6784C171.433 24.0632 171.583 23.4527 171.671 22.8391Z" fill="#231F20"/>
<path fill-rule="evenodd" clip-rule="evenodd" d="M106.294 272.479C107.754 273.385 109.369 273.842 111.114 273.842C111.66 273.842 112.222 273.798 112.795 273.705C113.046 273.666 113.291 273.601 113.469 273.529C117.41 272.676 121.197 269.869 124.724 265.186C128.214 260.55 131.235 254.356 133.702 246.774C137.073 236.547 139.322 223.94 140.389 209.302C144.379 206.436 148.748 203.552 153.384 200.721C153.779 200.469 154.033 200.107 154.143 199.633C154.252 199.157 154.181 198.716 153.93 198.313C153.679 197.924 153.313 197.673 152.842 197.563C152.368 197.458 151.926 197.53 151.54 197.77C147.756 200.038 144.11 202.406 140.687 204.817C141.342 193.304 141.288 180.675 140.53 167.26C140.351 163.776 140.11 161.541 139.793 160.428C139.341 158.83 138.474 158.427 137.833 158.369C137.065 158.303 136.026 158.565 135.339 160.301C134.865 161.494 134.052 164.334 132.851 168.978C132.206 171.475 131.684 173.451 131.282 174.91C130.88 176.375 130.285 178.479 129.501 181.221C128.718 183.944 127.949 186.332 127.213 188.326C126.492 190.286 125.637 192.513 124.673 194.95C123.736 197.317 122.696 199.529 121.575 201.518C120.464 203.498 119.3 205.273 118.118 206.789C114.003 212.083 110.721 214.608 108.377 214.249C107.128 214.056 106.095 212.902 105.31 210.826C104.298 208.031 103.918 204.396 104.179 200.011C104.442 195.603 105.382 191.025 106.972 186.411C108.556 181.811 110.629 177.997 113.134 175.077C113.451 174.716 113.589 174.287 113.543 173.798C113.498 173.322 113.297 172.925 112.941 172.61C112.581 172.297 112.154 172.156 111.663 172.203C111.195 172.25 110.784 172.456 110.478 172.804C107.62 176.081 105.304 180.29 103.592 185.319C101.886 190.323 100.897 195.286 100.654 200.068C100.409 204.864 100.859 208.88 101.992 212.005C103.24 215.41 105.203 217.318 107.815 217.679C111.585 218.255 115.886 215.421 120.937 208.93C122.401 206.973 123.862 204.567 125.282 201.777C126.698 198.997 127.911 196.367 128.884 193.96C129.865 191.538 130.896 188.57 131.954 185.138C133.033 181.632 133.799 179.035 134.3 177.197C134.801 175.356 135.444 172.903 136.229 169.843L137.012 166.837C137.019 166.945 137.025 167.053 137.031 167.162C137.036 167.254 137.041 167.347 137.046 167.442C137.847 181.863 137.844 195.314 137.035 207.427C130.763 212.086 125.174 216.925 120.425 221.812C115.632 226.735 111.826 231.391 109.116 235.652C106.412 239.91 104.315 244.1 102.889 248.105C101.453 252.123 100.691 255.723 100.627 258.801C100.564 261.888 100.999 264.64 101.922 266.988C102.917 269.449 104.389 271.298 106.294 272.479ZM110.888 239.546C116.492 230.236 125.161 221.014 136.66 212.118C135.529 225.115 133.416 236.393 130.383 245.644L130.381 245.648C128.128 252.612 125.386 258.327 122.234 262.633C119.122 266.883 115.905 269.41 112.671 270.141C110.994 270.525 109.541 270.34 108.242 269.56C106.939 268.772 105.922 267.479 105.216 265.717C103.937 262.592 103.794 258.681 104.789 254.097C105.792 249.478 107.845 244.58 110.888 239.546Z" fill="#231F20"/>
<path fill-rule="evenodd" clip-rule="evenodd" d="M156.039 216.186C156.931 216.737 157.899 217.018 158.969 217.018C159.227 217.018 159.489 217 159.757 216.97C161.05 216.765 162.229 216.099 163.258 214.993C164.2 213.987 164.884 212.717 165.297 211.214H165.432C167.65 211.214 169.889 210.381 172.097 208.733C174.439 206.988 176.372 204.748 177.835 202.086C178.077 201.678 178.133 201.217 177.998 200.757C177.865 200.286 177.578 199.927 177.141 199.69C176.714 199.462 176.264 199.412 175.795 199.536L175.788 199.539C175.329 199.674 174.972 199.949 174.723 200.366C173.604 202.421 172.121 204.211 170.313 205.683C168.71 206.981 167.16 207.664 165.694 207.717C165.696 207.408 165.689 207.099 165.669 206.777C165.474 204.971 165.182 203.414 164.803 202.155C164.401 200.828 163.954 199.886 163.434 199.271C162.934 198.678 162.439 198.246 161.964 197.986C161.493 197.727 160.983 197.584 160.433 197.559H160.407C159.475 197.559 158.633 197.926 157.911 198.651C157.29 199.271 156.836 200.062 156.557 201.011C156.171 201.033 155.83 201.184 155.564 201.446C154.183 202.662 153.241 204.381 152.764 206.55C152.281 208.72 152.517 210.913 153.465 213.063C154.071 214.459 154.937 215.512 156.039 216.186ZM160.157 201.405C160.259 201.251 160.336 201.168 160.393 201.121C160.446 201.168 160.561 201.297 160.765 201.611C160.926 201.873 161.086 202.224 161.237 202.658C161.396 203.111 161.568 203.719 161.753 204.467C161.904 205.078 162.023 205.821 162.103 206.68C161.287 206.197 160.699 205.63 160.347 204.99C159.89 204.166 159.713 203.312 159.821 202.446C159.87 202.013 159.982 201.67 160.157 201.405ZM156.074 208.105C156.146 207.143 156.367 206.289 156.73 205.556C157.511 207.766 159.225 209.412 161.841 210.462C161.574 211.256 161.207 211.923 160.74 212.455C160.223 213.049 159.705 213.391 159.205 213.469C158.152 213.634 157.315 213.016 156.64 211.551C156.163 210.633 155.975 209.475 156.074 208.105Z" fill="#231F20"/>
<path d="M176.233 223.448C176.793 223.857 177.421 224.062 178.108 224.062C178.3 224.062 178.493 224.048 178.69 224.018C179.13 223.946 179.585 223.797 180.054 223.571C181.291 222.946 182.589 221.641 183.91 219.687C185.203 217.778 186.421 215.405 187.531 212.634C189.064 208.902 190.117 205.142 190.666 201.446C192.2 203.051 194.05 203.963 196.177 204.17C198.287 204.384 200.437 203.88 202.533 202.635C204.614 201.405 206.379 199.633 207.787 197.367C208.027 196.963 208.098 196.521 207.994 196.056C207.887 195.576 207.6 195.198 207.161 194.955C206.743 194.732 206.313 194.675 205.866 194.762H205.863C205.422 194.864 205.053 195.116 204.741 195.548C203.716 197.266 202.427 198.613 200.911 199.545C199.425 200.455 197.959 200.852 196.544 200.686C194.012 200.449 192.182 198.663 190.949 195.226C190.629 194.332 189.94 193.927 188.951 194.076C188.559 194.195 188.228 194.413 187.97 194.708C187.678 195.036 187.532 195.421 187.54 195.854C187.59 198.988 187.079 202.458 186.019 206.162C184.952 209.876 183.676 213.089 182.226 215.715C180.806 218.288 179.535 219.869 178.41 220.442C178.271 220.525 178.207 220.534 178.198 220.514C178.198 220.514 178.118 220.462 178.001 220.223C177.937 220.09 177.785 219.665 177.515 218.282C177.303 217.231 177.192 215.878 177.181 214.261C177.168 212.634 177.319 210.208 177.626 207.051C177.931 203.921 178.422 200.261 179.086 196.196C179.186 195.692 179.098 195.239 178.816 194.845C178.543 194.463 178.166 194.228 177.683 194.142C177.209 194.073 176.766 194.17 176.372 194.438C175.953 194.719 175.704 195.107 175.652 195.543C172.893 211.986 173.081 221.112 176.233 223.448Z" fill="#231F20"/>
<path fill-rule="evenodd" clip-rule="evenodd" d="M208.373 212.874C209.186 213.28 210.065 213.486 210.995 213.486C211.34 213.486 211.694 213.456 212.053 213.403C213.731 213.136 215.347 212.26 216.86 210.793C220.526 207.208 224.354 201.464 228.244 193.698C228.425 193.307 228.452 192.874 228.323 192.411C228.183 191.941 227.882 191.582 227.449 191.376C227.012 191.168 226.559 191.15 226.105 191.311C225.658 191.466 225.31 191.747 225.06 192.172C221.397 199.536 217.817 204.942 214.418 208.243C212.722 209.927 211.276 210.408 210.014 209.767C209.799 209.643 209.583 209.475 209.369 209.269C209.231 209.136 208.98 208.826 208.578 208.123C208.258 207.566 207.999 206.877 207.808 206.071C207.616 205.261 207.514 204.115 207.506 202.668C207.499 201.24 207.616 199.647 207.856 197.932C210.568 194.779 212.587 191.863 213.853 189.264C215.2 186.497 215.477 184.492 214.712 183.151C214.159 182.092 213.228 181.668 212.017 181.897C210.454 182.194 208.975 183.688 207.497 186.458C206.083 189.104 205.058 192.597 204.449 196.841V196.967C204.052 199.561 203.903 201.876 204.011 203.848C204.12 205.867 204.438 207.489 204.955 208.676C205.468 209.861 206.009 210.777 206.56 211.405C207.117 212.039 207.723 212.532 208.373 212.874ZM212.079 185.208C210.69 186.418 209.497 188.755 208.507 192.209C210.662 189.252 211.853 186.915 212.079 185.208Z" fill="#231F20"/>
<path fill-rule="evenodd" clip-rule="evenodd" d="M225.613 239.104C225.693 239.11 225.773 239.113 225.85 239.113C225.967 239.113 226.082 239.107 226.197 239.091C226.686 239.011 227.099 238.71 227.425 238.198C227.708 237.751 227.904 237.299 228.008 236.855C228.106 236.448 228.227 235.844 228.373 235.053C228.477 234.551 228.389 234.096 228.108 233.7C227.879 233.38 227.571 233.157 227.188 233.035C227.11 227.803 227.381 219.034 228 206.955C228.624 194.64 229.456 182.574 230.475 171.094L230.563 170.958C233.626 163.808 235.704 157.441 236.738 152.033C237.804 146.45 237.71 143.079 236.449 141.728C235.778 141.003 234.941 140.778 234.069 141.088C233.24 141.326 232.504 142.116 231.816 143.503C231.189 144.782 230.658 146.213 230.242 147.759C229.83 149.292 229.434 151.088 229.068 153.095C228.698 155.148 228.444 156.785 228.289 158.097C228.133 159.413 227.992 160.664 227.865 161.86C226.407 176.068 225.212 192.361 224.309 210.295C223.933 218.193 223.722 224.662 223.681 229.515C223.629 233.503 223.709 236.044 223.915 237.07C224.216 238.545 224.977 238.988 225.613 239.104ZM233.855 147.941C233.161 150.214 232.551 153.142 232.033 156.716C233.011 153.316 233.621 150.385 233.855 147.941Z" fill="#231F20"/>
<path d="M251.736 205.116C251.712 205.116 251.687 205.116 251.664 205.114C248.517 205.006 246.062 201.657 244.16 194.882C242.676 197.669 241.301 200.031 240.069 201.916C238.691 203.925 237.315 204.741 235.978 204.369C234.681 204.107 233.862 202.898 233.578 200.781C233.322 199.17 233.375 197.153 233.74 194.794C234.102 192.449 234.819 190.088 235.874 187.771C236.951 185.397 238.307 183.774 239.899 182.95C242.272 181.647 244.754 182.101 247.265 184.303C247.621 184.618 247.822 185.018 247.867 185.494C247.914 185.98 247.776 186.41 247.458 186.771C247.148 187.123 246.748 187.325 246.273 187.371C245.788 187.418 245.358 187.278 244.995 186.966C242.822 185.062 241.539 185.86 240.767 186.625C239.236 188.116 238.124 190.598 237.459 194.006C236.922 196.754 236.747 198.832 236.935 200.21C236.993 200.135 237.051 200.053 237.111 199.97C238.543 197.843 240.282 194.778 242.271 190.879L243.201 189.041C243.588 188.361 244.195 188.047 244.986 188.134C245.778 188.225 246.317 188.71 246.502 189.51C246.924 191.63 247.401 193.521 247.927 195.141C248.448 196.748 248.906 197.966 249.294 198.754C249.678 199.54 250.08 200.182 250.491 200.656C251.025 201.282 251.267 201.461 251.361 201.514C251.494 201.585 251.609 201.61 251.726 201.594C252.34 201.613 252.954 201.226 253.671 200.468C254.468 199.626 255.44 198.051 256.56 195.781C257.693 193.482 258.784 190.583 259.804 187.168C259.969 186.658 260.265 186.294 260.689 186.078C261.114 185.856 261.562 185.814 262.012 185.96C262.466 186.106 262.805 186.393 263.029 186.815C263.244 187.238 263.294 187.672 263.184 188.113C259.909 198.908 256.409 204.444 252.48 205.066C252.254 205.1 252.007 205.116 251.736 205.116Z" fill="#231F20"/>
<path d="M148.722 247.596C167.926 232.47 192.006 226.32 216.113 225.698C217.482 225.662 217.486 223.534 216.113 223.568C191.398 224.207 166.87 230.612 147.217 246.091C146.142 246.938 147.656 248.434 148.722 247.596Z" fill="#231F20"/>
<path d="M211.091 32.8286V37.6513C279.389 54.3951 330.227 116.104 330.227 189.488C330.227 275.698 260.091 345.832 173.881 345.832C87.6729 345.832 17.5353 275.698 17.5353 189.488C17.5353 112.927 72.8688 49.0859 145.635 35.7461V30.972C70.2621 44.3699 12.835 110.325 12.835 189.488C12.835 278.289 85.0802 350.533 173.881 350.533C262.683 350.533 334.927 278.289 334.927 189.488C334.927 113.494 282.006 49.6713 211.091 32.8286Z" fill="#F9A72B"/>
<path d="M22.8963 189.487C22.8963 272.875 90.4946 340.472 173.883 340.472C257.269 340.472 324.867 272.875 324.867 189.487C324.867 118.943 276.483 59.7096 211.091 43.1337V85.8619C254.629 100.812 285.934 142.084 285.934 190.696C285.934 251.913 236.307 301.54 175.089 301.54C113.871 301.54 64.2434 251.913 64.2434 190.696C64.2434 139.679 98.7182 96.7409 145.635 83.8374V41.1798C75.7549 54.4113 22.8963 115.759 22.8963 189.487Z" fill="#38A48E"/>
<path d="M35.8814 220.177L35.2065 216.982L51.5611 213.533L52.2344 216.726L35.8814 220.177Z" fill="white"/>
<path d="M52.6434 219.143L53.7546 222.831L43.7516 232.051L55.4683 228.522L56.3378 231.403L40.3457 236.223L39.2283 232.514L49.0572 223.369L37.5208 226.844L36.6529 223.961L52.6434 219.143Z" fill="white"/>
<path d="M61.551 243.747L56.7439 232.475L53.952 233.666L55.7384 237.853L43.1562 243.221L44.3929 246.116L56.9745 240.75L58.7606 244.936L61.551 243.747Z" fill="white"/>
<path d="M67.2902 254.224L64.6286 255.681L60.7673 248.621L57.3793 250.474L60.6329 256.425L57.9712 257.881L54.7165 251.931L51.4295 253.728L55.2907 260.789L52.6274 262.244L47.2554 252.423L61.9182 244.402L67.2902 254.224Z" fill="white"/>
<path fill-rule="evenodd" clip-rule="evenodd" d="M61.8194 263.986L56.3043 267.834L54.5011 265.249L68.2175 255.681L72.4078 261.685C72.9336 262.439 73.227 263.22 73.2867 264.03C73.3463 264.84 73.1752 265.617 72.7751 266.362C72.3764 267.108 71.7675 267.767 70.9514 268.336C70.1338 268.906 69.3051 269.25 68.4686 269.367C67.629 269.487 66.8396 269.375 66.0989 269.036C65.7408 268.873 65.4078 268.661 65.1004 268.401L61.736 275.62L59.5529 272.491L62.912 265.552L61.8194 263.986ZM64.3081 262.25L66.5509 265.464C66.7345 265.728 66.962 265.913 67.2351 266.023C67.5066 266.133 67.8032 266.155 68.1265 266.095C68.4482 266.034 68.7715 265.894 69.0964 265.678C69.4166 265.453 69.6614 265.202 69.8293 264.92C69.9972 264.64 70.0773 264.353 70.0694 264.06C70.0616 263.766 69.9627 263.484 69.7744 263.214L67.5318 260.001L64.3081 262.25Z" fill="white"/>
<path d="M76.3913 267.218L78.9494 270.096L73.7497 282.667L82.8964 274.538L84.8974 276.79L72.4129 287.884L69.8406 284.988L74.9135 272.56L65.9078 280.564L63.9068 278.312L76.3913 267.218Z" fill="white"/>
<path fill-rule="evenodd" clip-rule="evenodd" d="M79.2094 290.654L76.7244 292.027L74.1961 289.767L90.0972 281.562L91.5881 282.893L85.2195 299.615L82.6897 297.356L83.7747 294.732L79.2094 290.654ZM82.0239 289.1L85.0034 291.761L87.3115 286.179L82.0239 289.1Z" fill="white"/>
<path d="M95.0239 285.995L104.886 293.268L103.084 295.71L99.4208 293.008L91.3028 304.017L88.7683 302.149L96.8862 291.14L93.2238 288.439L95.0239 285.995Z" fill="white"/>
<path d="M96.5455 307.619L99.2982 309.374L108.288 295.284L105.535 293.528L96.5455 307.619Z" fill="white"/>
<path fill-rule="evenodd" clip-rule="evenodd" d="M105.042 312.113C104.465 311.23 104.173 310.258 104.164 309.199C104.154 308.138 104.437 307.069 105.013 305.985L107.235 301.804C107.809 300.721 108.539 299.888 109.423 299.302C110.306 298.717 111.276 298.417 112.331 298.4C113.385 298.384 114.446 298.659 115.515 299.228C116.585 299.797 117.408 300.522 117.984 301.405C118.56 302.289 118.853 303.26 118.862 304.32C118.872 305.38 118.589 306.451 118.013 307.534L115.791 311.715C115.215 312.797 114.485 313.631 113.602 314.215C112.718 314.8 111.75 315.101 110.695 315.119C109.641 315.134 108.58 314.86 107.509 314.29C106.441 313.722 105.618 312.997 105.042 312.113ZM110.477 311.89C110.968 311.879 111.424 311.732 111.838 311.449C112.252 311.167 112.597 310.768 112.87 310.253L115.168 305.93C115.443 305.415 115.579 304.908 115.582 304.404C115.584 303.902 115.452 303.444 115.187 303.03C114.922 302.615 114.537 302.275 114.038 302.009C113.536 301.743 113.04 301.615 112.547 301.628C112.056 301.639 111.602 301.787 111.187 302.069C110.772 302.352 110.429 302.75 110.154 303.265L107.856 307.589C107.583 308.103 107.445 308.61 107.444 309.112C107.44 309.616 107.572 310.075 107.837 310.487C108.104 310.903 108.487 311.244 108.988 311.509C109.488 311.776 109.986 311.903 110.477 311.89Z" fill="white"/>
<path d="M126.158 304.468L122.57 303.069L116.497 318.626L119.303 319.721L123.684 308.498L124.818 321.873L128.426 323.282L134.499 307.725L131.693 306.63L127.244 318.029L126.158 304.468Z" fill="white"/>
<path fill-rule="evenodd" clip-rule="evenodd" d="M134.135 324.998L135.72 322.644L141.644 324.193L141.875 327.021L145.157 327.878L143.196 310.092L141.261 309.587L130.853 324.141L134.135 324.998ZM141.382 320.988L137.516 319.978L140.891 314.967L141.382 320.988Z" fill="white"/>
<path d="M147.833 328.29L150.312 311.763L153.428 312.229L151.398 325.757L159.355 326.95L158.905 329.952L147.833 328.29Z" fill="white"/>
<path d="M255.898 283.072L253.054 285.666L264.31 298.004L266.535 295.973L258.416 287.075L270.907 291.984L273.77 289.374L262.513 277.036L260.289 279.065L268.534 288.104L255.898 283.072Z" fill="white"/>
<path fill-rule="evenodd" clip-rule="evenodd" d="M252.908 306.479L252.109 303.755L257.083 300.185L259.407 301.813L262.162 299.836L247.223 289.986L245.598 291.152L250.154 308.458L252.908 306.479ZM249.501 294.873L251.203 300.67L254.45 298.34L249.501 294.873Z" fill="white"/>
<path d="M245.601 311.046L248.391 309.352L239.727 295.061L236.935 296.755L245.601 311.046Z" fill="white"/>
<path d="M226.918 305.546L230.961 303.456L237.243 315.607L240.04 314.16L233.759 302.009L237.802 299.918L236.408 297.224L225.523 302.851L226.918 305.546Z" fill="white"/>
<path d="M224.058 321.353L225.21 321.15L226.319 320.706C227.564 320.205 228.554 319.595 229.292 318.87C230.029 318.145 230.487 317.337 230.668 316.448C230.847 315.559 230.739 314.62 230.343 313.631L230.335 313.609C229.913 312.556 229.359 311.816 228.675 311.384C227.989 310.952 227.262 310.731 226.495 310.722C225.727 310.712 224.814 310.808 223.756 311.009C223.709 311.02 223.665 311.028 223.623 311.032C223.579 311.037 223.535 311.045 223.49 311.053C223.458 311.058 223.427 311.064 223.397 311.072C223.367 311.081 223.337 311.086 223.306 311.09C222.568 311.23 221.988 311.313 221.562 311.345C221.135 311.375 220.743 311.31 220.384 311.155C220.023 310.996 219.753 310.695 219.574 310.246L219.569 310.235C219.356 309.702 219.434 309.19 219.808 308.697C220.18 308.206 220.814 307.779 221.71 307.421C222.308 307.181 222.978 307.045 223.719 307.012C224.461 306.979 225.214 307.048 225.977 307.22L226.222 304.248C225.586 304.108 224.944 304.027 224.292 304.008C223.64 303.987 222.998 304.031 222.367 304.135C221.737 304.24 221.143 304.403 220.589 304.626C219.379 305.11 218.424 305.711 217.72 306.426C217.016 307.142 216.583 307.945 216.419 308.835C216.256 309.728 216.377 310.673 216.779 311.677L216.784 311.688C217.236 312.818 217.824 313.597 218.548 314.021C219.271 314.444 220.023 314.642 220.804 314.614C221.586 314.584 222.529 314.446 223.632 314.192L223.88 314.129L223.89 314.128L223.9 314.127C223.907 314.126 223.914 314.125 223.92 314.123C223.929 314.122 223.936 314.12 223.943 314.118C223.96 314.11 223.982 314.105 224.006 314.104C224.634 313.959 225.158 313.868 225.582 313.832C226.004 313.795 226.38 313.849 226.713 313.997C227.044 314.145 227.292 314.425 227.459 314.838L227.463 314.848C227.699 315.438 227.619 316.001 227.223 316.536C226.826 317.07 226.151 317.528 225.199 317.911C224.373 318.241 223.516 318.431 222.626 318.478C221.738 318.525 220.895 318.423 220.101 318.172L219.714 321.125C220.366 321.334 221.062 321.458 221.801 321.497C222.537 321.535 223.29 321.488 224.058 321.353Z" fill="white"/>
<path d="M217.773 323.632L214.659 324.609L209.651 308.664L212.766 307.687L217.773 323.632Z" fill="white"/>
<path fill-rule="evenodd" clip-rule="evenodd" d="M203.121 320.672L201.258 321.096L202.753 327.654L199.682 328.352L195.964 312.046L203.105 310.419C204.001 310.215 204.834 310.237 205.606 310.485C206.378 310.733 207.034 311.183 207.576 311.833C208.117 312.484 208.499 313.296 208.72 314.267C208.941 315.239 208.949 316.135 208.743 316.955C208.538 317.778 208.139 318.467 207.548 319.025C207.261 319.297 206.94 319.526 206.584 319.713L212.009 325.543L208.288 326.391L203.121 320.672ZM199.71 314.305L203.531 313.434C203.853 313.36 204.151 313.376 204.426 313.478C204.701 313.58 204.936 313.762 205.134 314.024C205.332 314.286 205.473 314.606 205.561 314.987C205.639 315.37 205.647 315.722 205.583 316.044C205.518 316.364 205.383 316.631 205.181 316.842C204.978 317.054 204.718 317.194 204.406 317.266L200.583 318.138L199.71 314.305Z" fill="white"/>
<path d="M190.356 312.828L193.487 312.491L195.281 329.107L192.15 329.446L191.423 322.714L185.457 323.358L186.183 330.09L183.052 330.427L181.258 313.811L184.391 313.473L185.131 320.34L191.097 319.697L190.356 312.828Z" fill="white"/>
<path d="M171.717 330.735C171.717 330.735 171.268 330.486 170.374 329.983C169.476 329.483 168.8 328.762 168.338 327.824C167.878 326.885 167.66 325.757 167.681 324.439L167.756 319.853C167.776 318.536 168.032 317.416 168.522 316.491C169.013 315.569 169.715 314.87 170.626 314.393C171.538 313.918 172.631 313.69 173.902 313.71C174.952 313.728 175.887 313.968 176.706 314.434C177.527 314.9 178.2 315.569 178.726 316.44C179.252 317.309 179.61 318.356 179.796 319.578L176.532 319.523C176.419 318.971 176.237 318.495 175.986 318.102C175.736 317.706 175.43 317.403 175.069 317.19C174.71 316.976 174.302 316.866 173.85 316.859C173.26 316.849 172.758 316.964 172.339 317.198C171.921 317.431 171.599 317.78 171.373 318.24C171.149 318.699 171.03 319.255 171.019 319.906L170.945 324.491C170.934 325.143 171.034 325.701 171.246 326.163C171.457 326.626 171.767 326.983 172.177 327.231C172.587 327.479 173.087 327.607 173.677 327.618C174.137 327.625 174.551 327.53 174.922 327.333C175.294 327.135 175.608 326.845 175.868 326.457C176.127 326.069 176.319 325.599 176.443 325.041L179.707 325.093C179.472 326.309 179.078 327.342 178.524 328.196C177.97 329.05 177.278 329.695 176.446 330.134C175.616 330.572 174.675 330.782 173.626 330.767C172.353 330.746 171.717 330.735 171.717 330.735Z" fill="white"/>
<path d="M313.772 209.172L313.774 209.172L313.373 212.297L296.795 210.169L297.197 207.046L310.764 208.786L311.787 200.806L314.798 201.192L313.772 209.172Z" fill="white"/>
<path fill-rule="evenodd" clip-rule="evenodd" d="M310.047 224.905C309.339 225.688 308.473 226.217 307.451 226.495C306.428 226.772 305.32 226.771 304.127 226.487L299.519 225.398C298.325 225.115 297.335 224.621 296.545 223.915C295.756 223.207 295.219 222.347 294.935 221.33C294.653 220.316 294.65 219.217 294.929 218.039C295.208 216.86 295.701 215.881 296.41 215.099C297.118 214.318 297.985 213.789 299.006 213.513C300.028 213.233 301.136 213.236 302.33 213.519L306.938 214.608C308.131 214.892 309.123 215.385 309.912 216.091C310.701 216.797 311.238 217.659 311.522 218.676C311.805 219.691 311.808 220.788 311.528 221.967C311.249 223.144 310.756 224.125 310.047 224.905ZM308.456 219.704C308.319 219.232 308.062 218.83 307.683 218.499C307.305 218.169 306.831 217.938 306.265 217.803L301.5 216.677C300.933 216.542 300.406 216.537 299.921 216.664C299.433 216.79 299.023 217.031 298.689 217.394C298.356 217.756 298.124 218.213 297.994 218.764C297.862 219.316 297.865 219.829 298.002 220.302C298.138 220.776 298.396 221.176 298.774 221.506C299.152 221.835 299.626 222.069 300.193 222.202L304.957 223.331C305.524 223.464 306.051 223.467 306.536 223.343C307.023 223.218 307.434 222.975 307.768 222.614C308.101 222.251 308.333 221.794 308.463 221.24C308.594 220.689 308.59 220.178 308.456 219.704Z" fill="white"/>
<path fill-rule="evenodd" clip-rule="evenodd" d="M302.615 240.798C303.661 240.635 304.579 240.203 305.369 239.503C306.158 238.805 306.756 237.885 307.163 236.744C307.569 235.603 307.688 234.514 307.517 233.472C307.346 232.43 306.907 231.516 306.201 230.727C305.493 229.939 304.562 229.34 303.407 228.927L298.945 227.339C297.79 226.928 296.69 226.802 295.643 226.968C294.597 227.132 293.678 227.563 292.888 228.262C292.098 228.96 291.5 229.88 291.094 231.022C290.687 232.163 290.57 233.252 290.741 234.294C290.91 235.335 291.35 236.25 292.057 237.038C292.764 237.827 293.696 238.428 294.849 238.838L299.311 240.427C300.466 240.839 301.568 240.963 302.615 240.798ZM303.721 232.877C304.062 233.246 304.273 233.673 304.357 234.158C304.44 234.644 304.386 235.154 304.197 235.688C304.005 236.222 303.726 236.65 303.354 236.973C302.983 237.297 302.549 237.494 302.051 237.565C301.554 237.637 301.031 237.574 300.482 237.38L295.869 235.737C295.322 235.54 294.876 235.258 294.537 234.889C294.196 234.519 293.985 234.092 293.9 233.607C293.817 233.122 293.87 232.613 294.06 232.078C294.251 231.543 294.532 231.116 294.904 230.791C295.275 230.468 295.709 230.27 296.207 230.201C296.703 230.129 297.227 230.192 297.775 230.387L302.387 232.03C302.936 232.226 303.38 232.507 303.721 232.877Z" fill="white"/>
<path d="M299.326 254.381L293.255 251.386L295.909 246.003L301.982 248.998L303.374 246.173L288.385 238.781L286.991 241.606L293.188 244.662L290.534 250.044L284.337 246.987L282.945 249.812L297.934 257.206L299.326 254.381Z" fill="white"/>
<path d="M290.827 267.621L292.173 266.873C292.173 266.873 292.517 266.338 293.203 265.267C293.769 264.382 294.083 263.472 294.147 262.533C294.21 261.597 294.025 260.667 293.59 259.748C293.156 258.828 292.484 257.948 291.574 257.111L289.813 259.859C290.222 260.258 290.522 260.671 290.715 261.093C290.908 261.517 290.991 261.939 290.963 262.358C290.936 262.778 290.798 263.18 290.55 263.568C290.232 264.065 289.86 264.421 289.433 264.64C289.006 264.859 288.542 264.936 288.036 264.872C287.531 264.808 287.005 264.6 286.456 264.247L282.594 261.774C282.046 261.422 281.635 261.03 281.362 260.597C281.09 260.164 280.963 259.707 280.983 259.227C281.004 258.748 281.173 258.262 281.49 257.764C281.735 257.383 282.041 257.097 282.413 256.901C282.783 256.705 283.202 256.606 283.67 256.6C284.136 256.595 284.637 256.691 285.167 256.884L286.928 254.136C285.79 253.652 284.714 253.406 283.695 253.395C282.678 253.386 281.755 253.607 280.928 254.06C280.101 254.512 279.405 255.182 278.838 256.064C278.152 257.136 277.772 258.185 277.697 259.211C277.623 260.236 277.849 261.201 278.377 262.103C278.904 263.006 279.723 263.813 280.833 264.523L284.695 266.997C285.805 267.708 286.88 268.114 287.92 268.216C288.961 268.32 289.929 268.121 290.827 267.621Z" fill="white"/>
<path d="M282.777 279.214C283.378 278.718 283.678 278.47 283.678 278.47C283.678 278.47 283.927 278.159 284.423 277.535C285.26 276.486 285.82 275.466 286.103 274.471C286.387 273.476 286.387 272.549 286.103 271.686C285.822 270.824 285.263 270.061 284.43 269.396L284.412 269.382C283.526 268.676 282.678 268.302 281.87 268.266C281.062 268.23 280.321 268.395 279.648 268.765C278.976 269.137 278.229 269.671 277.407 270.367C277.372 270.399 277.338 270.427 277.303 270.454C277.268 270.479 277.232 270.507 277.198 270.539C277.173 270.557 277.15 270.578 277.129 270.598L277.127 270.6C277.105 270.622 277.082 270.642 277.057 270.661C276.484 271.146 276.021 271.507 275.665 271.742C275.31 271.978 274.936 272.117 274.547 272.16C274.156 272.2 273.772 272.07 273.394 271.769L273.384 271.763C272.935 271.403 272.752 270.918 272.832 270.306C272.913 269.694 273.256 269.013 273.857 268.257C274.258 267.754 274.773 267.304 275.402 266.909C276.03 266.515 276.719 266.204 277.468 265.976L276.215 263.271C275.594 263.462 274.994 263.71 274.418 264.015C273.841 264.319 273.304 264.672 272.807 265.075C272.309 265.477 271.874 265.912 271.503 266.38C270.69 267.397 270.154 268.392 269.895 269.361C269.637 270.331 269.657 271.245 269.955 272.098C270.253 272.954 270.825 273.72 271.669 274.391L271.678 274.399C272.631 275.16 273.527 275.545 274.365 275.557C275.203 275.568 275.955 275.369 276.62 274.959C277.286 274.548 278.036 273.961 278.871 273.197L279.056 273.02C279.076 273.007 279.092 272.993 279.105 272.977C279.116 272.963 279.133 272.948 279.153 272.937C279.627 272.5 280.04 272.161 280.388 271.921C280.737 271.681 281.093 271.541 281.454 271.507C281.815 271.471 282.17 271.592 282.516 271.869L282.526 271.877C283.023 272.274 283.232 272.803 283.151 273.464C283.069 274.123 282.71 274.854 282.069 275.658C281.515 276.353 280.862 276.94 280.112 277.42C279.362 277.901 278.579 278.227 277.764 278.401L278.886 281.162C279.557 281.02 280.222 280.785 280.884 280.454C281.545 280.123 282.174 279.71 282.777 279.214Z" fill="white"/>
</svg>
