<svg width="132" height="139" viewBox="0 0 132 139" fill="none" xmlns="http://www.w3.org/2000/svg">
<path d="M57.8001 44.2386C59.0006 44.2629 58.4101 43.239 58.6991 42.629H76.2063C76.2289 42.896 76.2081 43.1968 76.2908 43.4662C76.3621 43.701 76.5114 44.0382 76.6945 44.0905C77.4074 44.2933 77.1672 44.8272 77.1523 45.2577C77.1357 45.7518 76.7456 45.7173 76.3782 45.725C75.5333 45.7411 75.4756 45.8493 75.6141 47.0659C75.6349 46.8524 75.6552 46.6395 75.6867 46.3066C75.7443 47.4506 75.7241 48.4816 75.8644 49.4888C76.0464 50.791 76.3508 52.0765 76.6136 53.3668C76.7569 54.0702 76.9008 54.7754 77.0863 55.4687C77.345 56.4325 76.5988 56.9647 76.1748 57.6128C74.8721 59.6035 73.4468 61.5175 72.2124 63.548C71.157 65.2836 70.2051 67.0977 69.3863 68.9558C68.7947 70.299 68.4986 71.7718 68.0634 73.1846C68.017 73.335 67.9207 73.4706 67.7298 73.5848C67.9022 70.2051 68.0753 66.8254 68.2477 63.4457C68.231 63.4428 68.215 63.4404 68.1989 63.438C68.2233 63.7329 68.2477 64.0284 68.2721 64.324H68.4659C68.4659 61.8956 68.4832 59.4673 68.454 57.0396C68.4469 56.4486 68.6479 56.0377 69.0801 55.6631C69.8115 55.0281 70.0309 53.5339 69.538 52.7948C68.8286 51.7322 67.5413 51.2459 66.5947 51.6841C65.5024 52.1895 64.8454 53.5469 65.2052 54.6303C65.3122 54.9526 65.465 55.3426 65.7219 55.515C66.3878 55.9634 66.4449 56.5699 66.4264 57.2721C66.3967 58.4416 66.4187 59.6112 66.5436 60.7802C66.5751 60.7005 66.6066 60.6208 66.5953 60.6494C66.7909 64.9168 66.9907 69.2757 67.1905 73.6347C67.1257 73.6454 67.0609 73.6555 66.9961 73.665C66.9313 73.5223 66.8195 73.3832 66.8094 73.2369C66.6726 71.2308 65.7207 69.5106 64.8757 67.7601C64.1581 66.2718 63.4261 64.7854 62.6062 63.3518C61.8338 62.0044 60.9633 60.7094 60.0875 59.4245C59.3918 58.4036 58.5724 57.4641 57.9154 56.4212C57.7222 56.1144 57.8298 55.5644 57.9113 55.1476C58.1087 54.135 58.4303 53.1444 58.5933 52.1276C58.8174 50.7351 58.9369 49.3253 59.1153 47.925C59.1397 47.7348 59.2889 47.56 59.3121 47.3697C59.3508 47.0474 59.3121 46.7156 59.3466 46.3922C59.3954 45.9272 59.1421 45.775 58.7431 45.7203C57.6342 45.5681 57.5688 45.4652 57.8001 44.2386Z" fill="#CDEEE4"/>
<path d="M71.4272 4.90516C71.7834 5.23397 72.0718 5.37072 72.1176 5.56456C72.3215 6.43564 72.4387 7.32635 72.6248 8.20159C72.7003 8.55656 72.8715 8.89013 72.9988 9.23321L73.3496 9.13035C73.2859 8.87467 73.258 8.60354 73.1522 8.36629C72.8989 7.79786 73.0005 7.63732 73.7765 7.5737C73.8163 8.00894 73.8556 8.44716 73.9019 8.95256C74.6565 8.64575 74.7487 7.94413 75.0448 7.39175C75.1797 7.14143 75.3409 6.90537 75.4901 6.66278C75.5983 6.69548 75.7065 6.72818 75.8142 6.76148C75.9598 8.22121 76.1174 9.67975 76.2482 11.1407C77.1145 20.8022 76.4831 30.4858 76.6716 40.1575C76.6959 41.4115 76.6751 41.4109 75.4235 41.4091C74.2938 41.4067 73.1629 41.3806 72.0343 41.415C71.4076 41.4353 71.237 41.204 71.2382 40.5874C71.2554 32.052 71.2465 23.5172 71.2495 14.9812C71.2507 12.1467 71.2631 9.3111 71.2839 6.47608C71.2869 6.03846 71.3612 5.60143 71.4272 4.90516Z" fill="#CDEEE4"/>
<path d="M63.7479 15.5239V14.4114C63.7128 14.4096 63.6783 14.4084 63.6438 14.4066C63.6349 14.5987 63.6177 14.7919 63.6177 14.9846C63.6129 23.4451 63.6105 31.9061 63.6064 40.3666C63.6058 41.4125 63.6034 41.4113 62.5848 41.4113C61.4801 41.4113 60.3735 41.3774 59.2712 41.428C58.5487 41.4613 58.343 41.114 58.346 40.4879C58.3614 37.3033 58.3805 34.1174 58.3846 30.9328C58.3918 26.2379 58.3781 21.543 58.3971 16.8486C58.4013 15.9139 58.346 14.9287 58.6141 14.0582C59.0767 12.5557 58.7438 11.0496 58.912 9.5595C59.0149 8.6468 59.2599 7.75015 59.4781 6.66204C60.0269 7.77274 60.4592 8.64799 60.879 9.49766C61.077 8.89831 61.2928 8.24783 61.5074 7.59615C61.6044 7.59318 61.7007 7.58961 61.797 7.58664C61.8422 8.25853 61.888 8.93102 61.9338 9.60291C62.0015 9.60529 62.0693 9.60707 62.1377 9.60885C62.4713 8.17885 62.8048 6.74885 63.1384 5.31945C63.2615 5.3248 63.3846 5.33015 63.5082 5.3355C63.5612 6.21966 63.6141 7.10323 63.6706 8.0421C63.7181 7.85183 63.7568 7.69901 63.8424 7.35772V15.5043C63.8109 15.5114 63.7794 15.5173 63.7479 15.5239Z" fill="#CDEEE4"/>
<path d="M65.2825 9.78128C65.9056 11.4937 65.8283 13.3893 67.0092 15.1112C67.1198 14.5137 67.1911 14.1242 67.2637 13.7336C67.3261 13.7211 67.3885 13.708 67.451 13.6949C67.5639 13.8852 67.6763 14.076 67.8517 14.371C68.1454 13.5694 67.8713 12.5051 69.1699 12.253C69.2978 12.721 69.5404 13.2555 69.5737 13.8031C69.6462 14.9786 69.4274 16.1975 69.6533 17.3338C70.4055 21.116 69.8971 24.9202 69.9964 28.7102C70.0957 32.5245 70.0166 36.343 70.0166 40.1597C70.0166 41.2347 69.9875 41.2668 68.9291 41.2686C67.9498 41.2704 66.9675 41.224 65.9924 41.2823C65.2694 41.3263 65.1077 41.035 65.11 40.3726C65.1291 35.5266 65.1261 30.6801 65.1136 25.8341C65.1065 23.0978 65.0428 20.3621 65.0524 17.6258C65.0607 15.2432 65.1344 12.8607 65.1867 10.4781C65.1921 10.2451 65.2492 10.0138 65.2825 9.78128Z" fill="#CDEEE4"/>
<path fill-rule="evenodd" clip-rule="evenodd" d="M42.3391 104.878C41.6779 104.878 41.066 104.705 40.5131 104.362C39.7912 103.915 39.2335 103.214 38.8565 102.282C38.5069 101.392 38.3422 100.349 38.366 99.1799C38.3904 98.0139 38.6787 96.6499 39.2228 95.1277C39.7633 93.6103 40.5577 92.0228 41.5821 90.4096C42.609 88.7953 44.0509 87.0311 45.8668 85.1659C47.666 83.3143 49.7834 81.4812 52.16 79.7158C52.4662 75.1268 52.4674 70.0305 52.1641 64.5668C52.1629 64.5467 52.1618 64.5269 52.1607 64.5072L52.1581 64.461C52.1559 64.4195 52.1536 64.3785 52.1511 64.3378L51.8544 65.4765C51.5571 66.6359 51.3133 67.5653 51.1236 68.2628C50.9339 68.959 50.6438 69.9431 50.2347 71.2714C49.8339 72.5718 49.4433 73.6962 49.0717 74.6136C48.703 75.5257 48.2434 76.5223 47.7071 77.5753C47.169 78.6325 46.6154 79.544 46.0606 80.2855C44.1472 82.7447 42.5174 83.8185 41.0892 83.6003C40.0998 83.4636 39.356 82.7405 38.8833 81.4503C38.454 80.2664 38.2833 78.7449 38.3761 76.9278C38.4682 75.1161 38.8428 73.2359 39.4892 71.3398C40.1379 69.4347 41.0155 67.84 42.0982 66.5985C42.2142 66.4665 42.37 66.3886 42.5472 66.3708C42.7333 66.3529 42.895 66.4064 43.0312 66.5248C43.1661 66.6443 43.2422 66.7947 43.2595 66.9749C43.2767 67.1604 43.2244 67.3227 43.1043 67.4595C42.1553 68.566 41.3699 70.0109 40.7699 71.7536C40.1676 73.5017 39.8114 75.2362 39.7115 76.9064C39.6128 78.5677 39.7567 79.9448 40.1402 81.0037C40.4375 81.7904 40.8288 82.2274 41.3021 82.3005C42.1904 82.4367 43.4337 81.48 44.9927 79.4744C45.4405 78.9001 45.8817 78.2276 46.3026 77.4772C46.7272 76.7238 47.1214 75.8855 47.4764 74.9888C47.8414 74.0654 48.1655 73.2217 48.4384 72.479C48.7173 71.7239 49.0086 70.8189 49.3053 69.7873C49.6026 68.7485 49.828 67.9512 49.9802 67.3964C50.1324 66.8435 50.3304 66.0949 50.5748 65.1489C51.0297 63.3895 51.3377 62.3132 51.5172 61.8614C51.7777 61.2037 52.1713 61.1044 52.462 61.1294C52.7052 61.1514 53.0334 61.3042 53.2047 61.9095C53.3248 62.3311 53.4164 63.1778 53.4841 64.4978C53.7713 69.5804 53.7915 74.3651 53.5436 78.727C54.8404 77.8137 56.2217 76.9165 57.6552 76.0573C57.8015 75.9663 57.9692 75.939 58.1487 75.9788C58.3271 76.0204 58.4657 76.1156 58.5608 76.263C58.6559 76.4158 58.6827 76.5829 58.6417 76.7631C58.6 76.9426 58.5037 77.08 58.3539 77.1751C56.5974 78.2478 54.9421 79.3406 53.4306 80.4264C53.0263 85.9722 52.1742 90.7485 50.8971 94.6235C49.9624 97.496 48.8178 99.8429 47.4954 101.599C46.1593 103.374 44.7246 104.437 43.2315 104.76C43.1638 104.788 43.071 104.812 42.9759 104.827C42.7588 104.862 42.546 104.878 42.3391 104.878ZM52.0179 81.4931C47.6613 84.8638 44.3767 88.3577 42.2534 91.8848C41.1005 93.7923 40.3228 95.648 39.9428 97.3979C39.5659 99.1347 39.62 100.616 40.1046 101.8C40.3721 102.468 40.7574 102.958 41.251 103.256C41.7433 103.552 42.2939 103.622 42.9289 103.476C44.1544 103.199 45.3733 102.242 46.5524 100.632C47.7463 99.0003 48.7851 96.8354 49.6389 94.1966L49.6395 94.1954C50.7888 90.6903 51.5892 86.4175 52.0179 81.4931Z" fill="#CDEEE4"/>
<path fill-rule="evenodd" clip-rule="evenodd" d="M60.4701 83.3495C60.0646 83.3495 59.6977 83.2431 59.36 83.0344C58.9426 82.7793 58.6143 82.3803 58.3848 81.8512C58.0257 81.0366 57.9359 80.2059 58.1191 79.3836C58.2998 78.5619 58.6566 77.9108 59.1798 77.45C59.2809 77.3507 59.4099 77.2936 59.5562 77.2853C59.662 76.9255 59.8339 76.6259 60.0693 76.391C60.3428 76.1163 60.6615 75.9772 61.0147 75.9772H61.0248C61.2329 75.9867 61.4262 76.0408 61.6046 76.1389C61.7847 76.2376 61.972 76.4011 62.1617 76.6259C62.3585 76.8589 62.528 77.2157 62.6802 77.7187C62.8241 78.1956 62.9347 78.7854 63.0084 79.4698C63.0161 79.5917 63.0185 79.7088 63.0179 79.826C63.5733 79.8058 64.1607 79.5471 64.7678 79.0554C65.4528 78.4976 66.0147 77.8192 66.4386 77.0409C66.4633 76.9996 66.4908 76.9619 66.521 76.928C66.6006 76.3818 66.6905 75.8104 66.7907 75.2136C66.8103 75.0483 66.9049 74.9014 67.0636 74.795C67.2129 74.6933 67.3805 74.6564 67.5601 74.6826C67.7432 74.7153 67.8859 74.8045 67.9894 74.949C68.0964 75.0982 68.1297 75.27 68.0917 75.4609C67.8402 77.0009 67.654 78.3875 67.5387 79.5737C67.4222 80.7695 67.3651 81.6887 67.3698 82.3053C67.374 82.9177 67.4162 83.4303 67.4965 83.8286C67.5988 84.3525 67.6564 84.5136 67.6808 84.5642C67.7248 84.6545 67.7551 84.6742 67.7551 84.6742C67.7587 84.6819 67.7831 84.6783 67.8354 84.6468C68.2617 84.4298 68.7433 83.831 69.2815 82.8559C69.8309 81.8611 70.3143 80.644 70.7186 79.2366C71.1199 77.8333 71.3138 76.5187 71.2947 75.3313C71.2918 75.1672 71.3471 75.0215 71.4577 74.8972C71.5552 74.7855 71.6806 74.7028 71.8293 74.6576C72.2039 74.6011 72.4649 74.7545 72.5862 75.0935C73.0536 76.3956 73.7469 77.0723 74.7059 77.162C75.2423 77.2251 75.7976 77.0746 76.3607 76.7298C76.9123 76.3906 77.3844 75.9066 77.7649 75.2921C78.0005 73.8696 78.3667 72.6867 78.8558 71.7715C79.4159 70.722 79.976 70.156 80.5682 70.0436C81.0272 69.9568 81.3798 70.1173 81.5891 70.5187C81.8793 71.0264 81.7741 71.7863 81.2639 72.8346C80.7841 73.8192 80.0194 74.924 78.992 76.1185C78.901 76.7684 78.8564 77.372 78.8594 77.913C78.8623 78.4612 78.901 78.8953 78.9735 79.2021C79.0461 79.5077 79.1442 79.7688 79.2655 79.9798C79.4177 80.2462 79.5128 80.3634 79.5651 80.4139C79.646 80.4918 79.7281 80.5554 79.8095 80.6024C80.2876 80.8456 80.8352 80.663 81.478 80.025C82.7658 78.7746 84.1221 76.7262 85.5099 73.9364C85.5456 73.8755 85.5867 73.8224 85.6332 73.7767C85.9031 69.7048 86.2172 65.9149 86.5725 62.452C86.6207 61.9989 86.6742 61.5251 86.7331 61.0262C86.7919 60.5291 86.8882 59.9089 87.0286 59.1312C87.1671 58.3707 87.3169 57.6905 87.4733 57.1096C87.6309 56.5239 87.8319 55.9816 88.0697 55.4971C88.3301 54.9714 88.609 54.6723 88.9229 54.582C89.2535 54.4648 89.5705 54.5499 89.8249 54.8246C90.3024 55.3365 90.3381 56.6137 89.9343 58.7287C89.5425 60.7776 88.7553 63.1899 87.5946 65.8989L87.5613 65.9506C87.1754 70.3001 86.8603 74.8713 86.6236 79.5371C86.3894 84.1137 86.2865 87.4357 86.3162 89.4181C86.4613 89.4645 86.5779 89.5489 86.6647 89.6702C86.7711 89.82 86.8044 89.9925 86.7652 90.1827C86.7099 90.4824 86.6641 90.7113 86.6266 90.8653C86.5874 91.0336 86.5131 91.2048 86.406 91.3743C86.2823 91.5681 86.126 91.6823 85.9405 91.7126C85.897 91.7186 85.8536 91.7209 85.8091 91.7209C85.7799 91.7209 85.7496 91.7198 85.7193 91.7174C85.4785 91.6734 85.1901 91.5057 85.0759 90.9468C84.998 90.5579 84.9677 89.5953 84.9873 88.0844C85.0028 86.2459 85.083 83.795 85.2252 80.8024C85.2922 79.4717 85.3635 78.1648 85.439 76.883C84.4051 78.6521 83.3887 80.0276 82.4031 80.9912C81.83 81.5472 81.2175 81.879 80.5819 81.9801C80.4457 82.0003 80.312 82.0116 80.1811 82.0116C79.8285 82.0116 79.4956 81.9337 79.1876 81.7797C78.9414 81.6501 78.7119 81.4634 78.5008 81.2231C78.2921 80.9853 78.087 80.6381 77.8925 80.1891C77.6969 79.7396 77.5762 79.1248 77.5352 78.3602C77.5208 78.0974 77.5184 77.8186 77.5279 77.5249C77.3508 77.662 77.1664 77.7873 76.9749 77.9005C76.1811 78.372 75.3665 78.5629 74.5668 78.482C73.7611 78.4036 73.0601 78.0581 72.4792 77.4498C72.2711 78.8501 71.8721 80.2747 71.2912 81.6887C70.8708 82.7388 70.4094 83.6378 69.9195 84.3608C69.4188 85.1011 68.9271 85.5958 68.4585 85.8324C68.2807 85.918 68.1083 85.9745 67.9418 86.0019C67.8669 86.0132 67.7938 86.0185 67.7212 86.0185C67.4608 86.0185 67.223 85.9406 67.0107 85.786C66.1317 85.1343 65.8612 83.0885 66.1966 79.5689C65.9599 79.7991 65.7088 80.0132 65.4439 80.2107C64.6073 80.835 63.7588 81.1507 62.9186 81.1507H62.8675C62.7111 81.7203 62.4519 82.2014 62.0951 82.5825C61.7051 83.0017 61.2585 83.2538 60.7686 83.3317C60.6669 83.343 60.5676 83.3495 60.4701 83.3495ZM61.0094 77.3269C60.988 77.3447 60.9588 77.3762 60.9202 77.4345C60.8536 77.535 60.8114 77.6646 60.7929 77.8287C60.7519 78.1569 60.8191 78.4804 60.9921 78.7926C61.1253 79.0352 61.3483 79.2498 61.6575 79.4329C61.6272 79.1077 61.582 78.8259 61.5249 78.5946C61.4547 78.3109 61.3893 78.0808 61.3293 77.909C61.2722 77.7449 61.2115 77.6117 61.1503 77.5124C61.073 77.3935 61.0296 77.3447 61.0094 77.3269ZM59.6216 79.0072C59.4842 79.2849 59.4004 79.6083 59.3731 79.9728C59.3356 80.4919 59.4069 80.9307 59.5877 81.2786C59.8434 81.8333 60.1603 82.0676 60.5593 82.0052C60.7489 81.9754 60.9452 81.8458 61.1408 81.621C61.318 81.4195 61.4571 81.1668 61.5582 80.8659C60.567 80.4681 59.9177 79.8444 59.6216 79.0072ZM80.5918 71.2979C80.0655 71.7563 79.6136 72.6416 79.2385 73.9503C80.0548 72.8301 80.5061 71.9448 80.5918 71.2979ZM88.8421 57.1786C88.5793 58.0395 88.348 59.1491 88.1518 60.5029C88.5222 59.2151 88.7535 58.1043 88.8421 57.1786Z" fill="#CDEEE4"/>
<path d="M95.5892 78.8398C95.5981 78.8404 95.6076 78.8404 95.6165 78.8404C95.7194 78.8404 95.8127 78.8345 95.8984 78.8214C97.3872 78.5859 98.7132 76.4882 99.9541 72.3986C99.9957 72.2315 99.9767 72.0668 99.8952 71.9068C99.8102 71.7469 99.6818 71.6381 99.5099 71.5828C99.3393 71.5275 99.1698 71.5436 99.0087 71.6274C98.8481 71.7094 98.7358 71.8474 98.6733 72.0406C98.2868 73.3345 97.8736 74.4327 97.4443 75.3038C97.0198 76.1635 96.6517 76.7605 96.3497 77.0792C96.0779 77.3664 95.8454 77.5133 95.613 77.5061C95.5684 77.5121 95.525 77.5026 95.4744 77.4758C95.4387 77.4556 95.3472 77.3878 95.145 77.1506C94.9892 76.971 94.837 76.7278 94.6913 76.4299C94.5445 76.1314 94.3708 75.67 94.1734 75.0612C93.9743 74.4475 93.7935 73.7311 93.6335 72.9278C93.5634 72.6245 93.3594 72.4408 93.0592 72.4063C92.7595 72.3736 92.5294 72.4925 92.3831 72.75L92.0305 73.4463C91.2772 74.9238 90.6184 76.0851 90.0755 76.8907L90.0693 76.8993C90.0489 76.9279 90.0289 76.9558 90.0089 76.9817C89.9375 76.4597 90.0041 75.6724 90.2075 74.6313C90.4596 73.3398 90.8806 72.3998 91.4609 71.8349C91.7534 71.5447 92.2392 71.2427 93.0627 71.9639C93.2001 72.0823 93.363 72.1352 93.5467 72.1173C93.7269 72.1001 93.8785 72.0234 93.9957 71.8902C94.1164 71.7534 94.1687 71.5905 94.1508 71.4062C94.1336 71.226 94.0575 71.0744 93.9225 70.9549C92.9712 70.1207 92.0311 69.9488 91.1321 70.4424C90.5286 70.7545 90.0148 71.3693 89.607 72.269C89.2074 73.1466 88.9357 74.0414 88.7983 74.9298C88.6604 75.8234 88.6401 76.5875 88.7371 77.1981C88.8447 78.0003 89.1551 78.4581 89.6462 78.5574C90.1528 78.6983 90.6743 78.3891 91.1963 77.628C91.6631 76.9139 92.1839 76.0191 92.7464 74.9631C93.4671 77.5299 94.397 78.7988 95.5892 78.8398Z" fill="#CDEEE4"/>
<path d="M56.5873 94.9348C63.8634 89.2041 72.9862 86.8739 82.1198 86.6384C82.6383 86.6247 82.6401 85.8185 82.1198 85.8315C72.7561 86.0735 63.4632 88.5001 56.0171 94.3646C55.6098 94.6856 56.1836 95.2523 56.5873 94.9348Z" fill="#CDEEE4"/>
<path d="M80.2171 13.5661V15.3932C106.093 21.737 125.354 45.1164 125.354 72.9197C125.354 105.582 98.7815 132.154 66.1193 132.154C33.4576 132.154 6.88457 105.582 6.88457 72.9197C6.88457 43.913 27.8488 19.7255 55.4178 14.6714V12.8627C26.8612 17.9387 5.10376 42.9271 5.10376 72.9197C5.10376 106.564 32.4753 133.935 66.1193 133.935C99.7638 133.935 127.135 106.564 127.135 72.9197C127.135 44.1276 107.084 19.9473 80.2171 13.5661Z" fill="#CDEEE4"/>
<path d="M117.106 84.3674C117.054 84.1885 116.957 84.0362 116.813 83.9108C116.67 83.7859 116.49 83.6985 116.276 83.6474L114.471 83.2205C114.256 83.1693 114.056 83.1675 113.872 83.2157C113.688 83.2633 113.532 83.3548 113.406 83.4922C113.28 83.6295 113.192 83.8026 113.142 84.0113C113.092 84.2206 113.094 84.415 113.145 84.594C113.197 84.7735 113.294 84.9252 113.438 85.05C113.581 85.1749 113.761 85.2635 113.975 85.314L115.78 85.7415C115.995 85.7921 116.195 85.7933 116.379 85.7463C116.563 85.6987 116.719 85.6066 116.845 85.4698C116.971 85.3325 117.059 85.1594 117.109 84.9495C117.158 84.7408 117.157 84.547 117.106 84.3674Z" fill="#CDEEE4"/>
<path d="M115.312 89.3584C115.441 89.4981 115.521 89.6598 115.553 89.8436C115.584 90.0279 115.564 90.2211 115.492 90.4233C115.42 90.6254 115.314 90.7878 115.173 90.9103C115.033 91.0327 114.868 91.1077 114.679 91.1344C114.491 91.1618 114.293 91.138 114.085 91.0643L112.337 90.4417C112.13 90.3674 111.961 90.2604 111.833 90.1206C111.703 89.9803 111.623 89.8186 111.591 89.6349C111.56 89.4511 111.58 89.2585 111.652 89.0557C111.724 88.853 111.831 88.6912 111.972 88.5682C112.112 88.4457 112.277 88.3707 112.465 88.3446C112.653 88.3172 112.852 88.341 113.059 88.4147L114.807 89.0373C115.015 89.1116 115.183 89.218 115.312 89.3584Z" fill="#CDEEE4"/>
<path d="M24.6057 100.487L25.4554 101.705C25.525 101.805 25.6112 101.875 25.7147 101.916C25.8175 101.958 25.9299 101.966 26.0524 101.944C26.1743 101.921 26.2968 101.868 26.4199 101.786C26.5412 101.701 26.6339 101.605 26.6975 101.498C26.7612 101.393 26.7915 101.284 26.7885 101.173C26.7855 101.061 26.7481 100.954 26.6767 100.852L25.8271 99.6346L24.6057 100.487Z" fill="#CDEEE4"/>
<path d="M31.3177 110.659L32.4465 111.668L33.321 109.553L31.3177 110.659Z" fill="#CDEEE4"/>
<path d="M42.0978 119.294C42.2839 119.29 42.4563 119.234 42.6133 119.127C42.7703 119.02 42.9011 118.869 43.0046 118.674L43.875 117.036C43.9791 116.841 44.0308 116.649 44.032 116.458C44.0326 116.268 43.9827 116.094 43.8822 115.937C43.7817 115.78 43.636 115.651 43.4469 115.55C43.2567 115.449 43.0688 115.401 42.8821 115.406C42.696 115.41 42.5241 115.466 42.3666 115.573C42.2096 115.68 42.0794 115.831 41.9753 116.026L41.1048 117.664C41.0014 117.859 40.949 118.051 40.9485 118.242C40.9473 118.432 40.9972 118.606 41.0977 118.762C41.1988 118.92 41.3439 119.049 41.5335 119.15C41.7232 119.251 41.9117 119.299 42.0978 119.294Z" fill="#CDEEE4"/>
<path d="M53.8069 122.741L52.3419 122.358L53.6207 120.46L53.8069 122.741Z" fill="#CDEEE4"/>
<path d="M95.4147 115.043L94.7699 112.847L96.6446 114.16L95.4147 115.043Z" fill="#CDEEE4"/>
<path d="M77.3533 119.879L75.9053 120.209L76.2364 121.661L77.6844 121.331C77.8028 121.303 77.9015 121.251 77.9782 121.17C78.0549 121.09 78.106 120.989 78.1304 120.868C78.1548 120.746 78.1518 120.613 78.1221 120.467C78.0888 120.323 78.0353 120.202 77.9603 120.102C77.8854 120.003 77.7962 119.934 77.6922 119.895C77.5881 119.857 77.4752 119.851 77.3533 119.879Z" fill="#CDEEE4"/>
<path fill-rule="evenodd" clip-rule="evenodd" d="M66.1202 130.123C34.527 130.123 8.91602 104.512 8.91602 72.9192C8.91602 44.9857 28.9426 21.743 55.4181 16.73V32.8917C37.6427 37.7804 24.5812 54.0485 24.5812 73.377C24.5812 96.5704 43.3835 115.373 66.5774 115.373C89.7708 115.373 108.573 96.5704 108.573 73.377C108.573 54.9594 96.7127 39.3228 80.2174 33.6587V17.4702C104.992 23.7504 123.324 46.1921 123.324 72.9192C123.324 104.512 97.7128 130.123 66.1202 130.123ZM119.12 80.3773L119.121 80.3773L118.969 81.5612L112.688 80.7549L112.84 79.5717L117.98 80.231L118.368 77.2076L119.509 77.3538L119.12 80.3773ZM117.709 86.3379C117.441 86.6346 117.112 86.835 116.725 86.9402C116.338 87.0455 115.918 87.0449 115.466 86.9373L113.72 86.5246C113.268 86.4176 112.893 86.2303 112.593 85.9627C112.294 85.6946 112.091 85.3687 111.983 84.9834C111.876 84.5993 111.875 84.1831 111.981 83.7366C112.087 83.29 112.274 82.919 112.542 82.6229C112.81 82.3268 113.139 82.1264 113.526 82.0218C113.913 81.9159 114.333 81.9171 114.785 82.0241L116.531 82.4368C116.983 82.5444 117.359 82.7311 117.658 82.9987C117.957 83.2662 118.16 83.5927 118.268 83.978C118.375 84.3627 118.376 84.7783 118.27 85.2248C118.164 85.6708 117.978 86.0424 117.709 86.3379ZM114.893 92.3593C115.289 92.2974 115.637 92.1339 115.936 91.8687C116.235 91.6041 116.462 91.2557 116.616 90.8234C116.77 90.3912 116.815 89.9785 116.75 89.5837C116.686 89.1889 116.519 88.8428 116.252 88.5438C115.983 88.2453 115.631 88.0182 115.193 87.8618L113.503 87.26C113.065 87.1043 112.648 87.0567 112.252 87.1197C111.855 87.1816 111.507 87.3451 111.208 87.6097C110.909 87.8743 110.682 88.2227 110.528 88.6556C110.374 89.0878 110.329 89.5005 110.394 89.8953C110.458 90.2895 110.625 90.6361 110.893 90.9346C111.161 91.2337 111.514 91.4614 111.951 91.6166L113.641 92.219C114.079 92.3747 114.496 92.4217 114.893 92.3593ZM113.647 97.5055L111.347 96.3708L112.352 94.3315L114.653 95.466L115.181 94.3958L109.502 91.5952L108.974 92.6655L111.322 93.8232L110.316 95.8623L107.968 94.7043L107.441 95.7746L113.12 98.5758L113.647 97.5055ZM110.427 102.522L110.937 102.238C110.937 102.238 111.067 102.036 111.327 101.63C111.542 101.295 111.661 100.95 111.685 100.594C111.709 100.239 111.639 99.8873 111.474 99.5389C111.309 99.1904 111.055 98.8569 110.71 98.5399L110.043 99.5811C110.198 99.7321 110.311 99.8885 110.385 100.048C110.458 100.209 110.489 100.369 110.478 100.528C110.468 100.687 110.416 100.839 110.322 100.986C110.201 101.175 110.06 101.31 109.899 101.392C109.737 101.475 109.561 101.505 109.37 101.48C109.178 101.456 108.979 101.377 108.771 101.244L107.308 100.306C107.1 100.173 106.944 100.025 106.841 99.8605C106.738 99.6964 106.69 99.5234 106.697 99.3415C106.705 99.1601 106.769 98.9758 106.89 98.7873C106.982 98.6428 107.098 98.5346 107.239 98.4603C107.379 98.3859 107.538 98.3485 107.715 98.3461C107.892 98.3443 108.082 98.3806 108.283 98.4537L108.95 97.4126C108.519 97.2295 108.111 97.1361 107.725 97.1319C107.34 97.1284 106.99 97.2122 106.677 97.3841C106.363 97.5553 106.099 97.8092 105.885 98.1433C105.625 98.5495 105.481 98.9466 105.452 99.3355C105.424 99.7238 105.51 100.089 105.71 100.431C105.91 100.773 106.22 101.079 106.64 101.348L108.104 102.285C108.524 102.555 108.931 102.709 109.326 102.747C109.72 102.787 110.087 102.711 110.427 102.522ZM107.377 106.914C107.605 106.726 107.718 106.632 107.718 106.632C107.718 106.632 107.813 106.514 108.001 106.278C108.318 105.881 108.53 105.494 108.637 105.117C108.745 104.74 108.745 104.389 108.637 104.062C108.531 103.735 108.319 103.446 108.003 103.194L107.997 103.189C107.661 102.921 107.34 102.78 107.033 102.766C106.727 102.752 106.446 102.815 106.191 102.955C105.937 103.096 105.654 103.298 105.342 103.562C105.329 103.574 105.316 103.585 105.303 103.595C105.29 103.605 105.276 103.615 105.263 103.627C105.254 103.634 105.245 103.642 105.237 103.65L105.236 103.65C105.228 103.659 105.219 103.666 105.21 103.674C104.993 103.857 104.817 103.994 104.682 104.083C104.548 104.172 104.406 104.225 104.259 104.241C104.111 104.257 103.965 104.207 103.822 104.093L103.818 104.091C103.648 103.955 103.579 103.771 103.609 103.539C103.64 103.307 103.77 103.049 103.997 102.763C104.15 102.572 104.345 102.402 104.583 102.252C104.821 102.103 105.082 101.985 105.366 101.899L104.891 100.874C104.656 100.946 104.428 101.04 104.21 101.155C103.991 101.271 103.788 101.405 103.6 101.557C103.411 101.71 103.246 101.874 103.105 102.051C102.797 102.437 102.595 102.814 102.497 103.181C102.398 103.549 102.406 103.895 102.519 104.218C102.632 104.542 102.849 104.832 103.168 105.087L103.172 105.09C103.533 105.378 103.872 105.524 104.19 105.529C104.508 105.533 104.792 105.457 105.044 105.302C105.297 105.146 105.581 104.924 105.897 104.634L105.967 104.567C105.975 104.562 105.981 104.557 105.986 104.551C105.988 104.548 105.99 104.546 105.993 104.543C105.997 104.54 106 104.538 106.004 104.536C106.184 104.37 106.34 104.242 106.472 104.151C106.604 104.06 106.739 104.007 106.876 103.994C107.013 103.98 107.147 104.026 107.278 104.131L107.282 104.134C107.47 104.285 107.549 104.485 107.519 104.735C107.488 104.985 107.351 105.262 107.109 105.567C106.899 105.83 106.652 106.052 106.367 106.234C106.083 106.416 105.786 106.54 105.478 106.606L105.903 107.652C106.157 107.598 106.409 107.509 106.66 107.384C106.91 107.258 107.149 107.102 107.377 106.914ZM13.58 83.3362L13.8357 84.5468L20.0314 83.2393L19.7763 82.0293L13.58 83.3362ZM20.1863 84.1549L20.6073 85.5522L16.8175 89.0454L21.2566 87.7082L21.586 88.7999L15.5271 90.6259L15.1037 89.2209L18.8276 85.7561L14.4568 87.0726L14.128 85.9803L20.1863 84.1549ZM23.5611 93.4764L21.7399 89.2061L20.6821 89.6574L21.3589 91.2436L16.5919 93.2773L17.0604 94.3743L21.8273 92.3412L22.504 93.9272L23.5611 93.4764ZM25.7356 97.4462L24.7271 97.9979L23.2642 95.3233L21.9806 96.0254L23.2133 98.2798L22.2049 98.8316L20.9717 96.5772L19.7264 97.2583L21.1893 99.9333L20.1803 100.485L18.145 96.7636L23.7003 93.7246L25.7356 97.4462ZM23.6628 101.145L21.5733 102.603L20.8901 101.623L26.0869 97.998L27.6745 100.273C27.8737 100.558 27.9848 100.854 28.0074 101.161C28.03 101.468 27.9652 101.762 27.8136 102.045C27.6626 102.327 27.4319 102.577 27.1227 102.793C26.8129 103.009 26.499 103.139 26.182 103.183C25.8639 103.229 25.5648 103.186 25.2842 103.058C25.1485 102.996 25.0224 102.916 24.9059 102.817L23.6312 105.552L22.8041 104.367L24.0768 101.738L23.6628 101.145ZM29.1837 102.369L30.1529 103.46L28.1829 108.222L31.6483 105.142L32.4064 105.995L27.6764 110.199L26.7018 109.102L28.6238 104.393L25.2118 107.425L24.4537 106.572L29.1837 102.369ZM30.2514 111.248L29.3099 111.768L28.352 110.912L34.3764 107.804L34.9413 108.308L32.5284 114.643L31.57 113.788L31.9811 112.793L30.2514 111.248ZM36.243 109.483L39.9794 112.239L39.2968 113.164L37.9089 112.14L34.8332 116.311L33.873 115.603L36.9486 111.432L35.561 110.409L36.243 109.483ZM36.8195 117.676L37.8624 118.341L41.2683 113.002L40.2253 112.337L36.8195 117.676ZM40.0387 119.378C39.8199 119.044 39.7093 118.676 39.7058 118.274C39.7022 117.872 39.8092 117.467 40.0274 117.057L40.8694 115.473C41.087 115.062 41.3635 114.747 41.6982 114.525C42.033 114.303 42.4005 114.189 42.8 114.183C43.1996 114.177 43.6015 114.281 44.0065 114.497C44.412 114.712 44.7235 114.987 44.9417 115.322C45.16 115.656 45.2712 116.024 45.2747 116.426C45.2783 116.828 45.1713 117.233 44.953 117.643L44.1111 119.227C43.8929 119.638 43.6164 119.953 43.2816 120.175C42.9469 120.396 42.58 120.511 42.1805 120.517C41.7809 120.523 41.3789 120.419 40.9734 120.203C40.5685 119.988 40.2569 119.713 40.0387 119.378ZM48.0387 116.482L46.6795 115.952L44.3784 121.846L45.4415 122.261L47.1014 118.009L47.5309 123.076L48.8979 123.61L51.199 117.716L50.1359 117.301L48.4501 121.62L48.0387 116.482ZM51.0609 124.26L51.6616 123.368L53.906 123.955L53.9935 125.027L55.2368 125.351L54.4941 118.613L53.761 118.421L49.8176 123.936L51.0609 124.26ZM56.2507 125.508L57.1901 119.246L58.3704 119.422L57.6015 124.548L60.6162 125L60.4456 126.137L56.2507 125.508ZM97.1933 108.375L96.1159 109.358L100.38 114.033L101.223 113.264L98.1472 109.892L102.88 111.752L103.965 110.763L99.6995 106.089L98.8569 106.858L101.981 110.282L97.1933 108.375ZM95.7578 116.212L96.0607 117.244L95.0172 117.994L93.2911 111.437L93.9065 110.995L99.5664 114.727L98.5229 115.476L97.6423 114.859L95.7578 116.212ZM94.3492 118.332L93.292 118.974L90.0087 113.56L91.0665 112.918L94.3492 118.332ZM87.7453 116.099L86.2139 116.89L85.6853 115.87L89.8094 113.737L90.3374 114.758L88.8055 115.55L91.1853 120.154L90.1257 120.702L87.7453 116.099ZM85.5665 122.802L85.13 122.879C84.8393 122.93 84.5539 122.948 84.275 122.934C83.9949 122.919 83.7315 122.872 83.4842 122.793L83.6311 121.674C83.9319 121.769 84.2512 121.808 84.5878 121.79C84.9249 121.772 85.2495 121.7 85.5623 121.575C85.9232 121.43 86.1789 121.256 86.3293 121.054C86.4792 120.852 86.5095 120.638 86.4203 120.415L86.4185 120.411C86.3555 120.255 86.2615 120.148 86.1361 120.092C86.01 120.036 85.8673 120.016 85.7074 120.03C85.5468 120.043 85.3482 120.078 85.1104 120.133C85.1061 120.133 85.1019 120.134 85.098 120.134C85.0939 120.135 85.09 120.136 85.0866 120.138L85.0816 120.139L85.078 120.14C85.0755 120.141 85.073 120.141 85.0704 120.141L85.0664 120.142L85.0628 120.142L84.9689 120.166C84.5509 120.262 84.1935 120.315 83.8974 120.326C83.6013 120.337 83.3165 120.262 83.0424 120.101C82.7683 119.941 82.5453 119.646 82.3741 119.218L82.3723 119.213C82.2201 118.833 82.1743 118.475 82.2361 118.137C82.298 117.799 82.4621 117.495 82.729 117.224C82.9954 116.953 83.3575 116.725 83.816 116.542C84.0259 116.457 84.2506 116.396 84.4896 116.356C84.7287 116.317 84.9719 116.3 85.2186 116.308C85.466 116.315 85.7092 116.346 85.95 116.399L85.8572 117.525C85.5682 117.459 85.2828 117.433 85.0016 117.446C84.7209 117.458 84.467 117.51 84.2405 117.601C83.901 117.736 83.6608 117.898 83.5199 118.084C83.3783 118.271 83.3486 118.465 83.4295 118.667L83.4313 118.671C83.499 118.841 83.6013 118.955 83.7381 119.015C83.8742 119.074 84.0229 119.099 84.1846 119.087C84.3457 119.075 84.5658 119.044 84.8452 118.991L84.855 118.99L84.8624 118.988L84.8681 118.987L84.8727 118.986L84.8754 118.985L84.8797 118.984C84.8847 118.983 84.8899 118.981 84.8951 118.98L84.9021 118.979L84.9067 118.978L84.9148 118.977L84.9189 118.976L84.9204 118.976L84.9328 118.974L84.9394 118.973L84.9461 118.972L84.9558 118.97L84.9653 118.969C84.9764 118.968 84.9878 118.966 84.9996 118.964L85.0087 118.962L85.0159 118.96C85.4166 118.884 85.7627 118.848 86.0534 118.851C86.3442 118.855 86.6195 118.939 86.8793 119.102C87.1386 119.266 87.3485 119.546 87.5084 119.945L87.5114 119.954C87.6612 120.328 87.7022 120.684 87.6345 121.021C87.5661 121.358 87.3924 121.664 87.113 121.938C86.8335 122.213 86.4583 122.444 85.9868 122.634L85.5665 122.802ZM81.5692 124.113L82.7489 123.742L80.8521 117.701L79.6718 118.072L81.5692 124.113ZM76.4919 122.782L77.1976 122.621L79.1555 124.788L80.5653 124.467L78.5098 122.258C78.6447 122.187 78.7664 122.1 78.8748 121.997C79.099 121.786 79.25 121.525 79.3279 121.213C79.4058 120.902 79.4028 120.563 79.319 120.195C79.2352 119.827 79.0907 119.519 78.8855 119.272C78.6804 119.026 78.4319 118.856 78.1393 118.762C77.8468 118.668 77.5311 118.659 77.1915 118.737L74.4861 119.353L75.8947 125.531L77.0583 125.266L76.4919 122.782ZM73.5476 119.522L72.3614 119.649L72.6423 122.252L70.382 122.496L70.1014 119.894L68.9146 120.022L69.5942 126.317L70.7804 126.189L70.5053 123.639L72.7657 123.395L73.041 125.946L74.2273 125.817L73.5476 119.522ZM64.7908 126.149C65.1297 126.339 65.2998 126.434 65.2998 126.434C65.2998 126.434 65.5406 126.438 66.0228 126.446C66.4206 126.452 66.7767 126.372 67.0913 126.206C67.4064 126.04 67.6686 125.795 67.8785 125.472C68.0884 125.148 68.2377 124.757 68.3269 124.296L67.0901 124.277C67.0431 124.488 66.9706 124.666 66.8725 124.813C66.7738 124.96 66.6549 125.07 66.5139 125.145C66.3736 125.22 66.2166 125.255 66.0424 125.253C65.8189 125.249 65.6292 125.2 65.474 125.106C65.3188 125.012 65.2011 124.877 65.1214 124.702C65.0411 124.526 65.0031 124.315 65.0072 124.068L65.0352 122.331C65.0393 122.084 65.0845 121.874 65.1696 121.7C65.2552 121.525 65.3771 121.393 65.5352 121.305C65.694 121.216 65.8843 121.173 66.1078 121.176C66.2791 121.179 66.4337 121.221 66.5698 121.302C66.7066 121.383 66.8225 121.497 66.9171 121.647C67.0122 121.797 67.0812 121.977 67.124 122.186L68.3607 122.207C68.29 121.744 68.1544 121.347 67.9552 121.018C67.756 120.688 67.501 120.434 67.19 120.258C66.8796 120.081 66.5252 119.99 66.1274 119.984C65.6458 119.976 65.232 120.062 64.8865 120.242C64.5411 120.423 64.2753 120.688 64.0892 121.037C63.9037 121.387 63.8067 121.812 63.799 122.311L63.7705 124.048C63.7627 124.548 63.8454 124.975 64.0196 125.331C64.1944 125.686 64.4507 125.959 64.7908 126.149Z" fill="#CDEEE4"/>
</svg>
