<svg width="150" height="151" viewBox="0 0 150 151" fill="none" xmlns="http://www.w3.org/2000/svg">
<rect y="0.197876" width="150" height="150" rx="75" fill="#FAF6F3"/>
<path d="M61.3444 58.4104C62.7854 58.4397 62.0767 57.2107 62.4235 56.4784H83.4379C83.465 56.7989 83.44 57.16 83.5392 57.4833C83.6249 57.7652 83.804 58.1699 84.0238 58.2327C84.8796 58.4761 84.5912 59.117 84.5734 59.6337C84.5534 60.2268 84.0852 60.1854 83.6441 60.1947C82.63 60.2139 82.5607 60.3438 82.727 61.8041C82.752 61.5479 82.7763 61.2924 82.8141 60.8927C82.8833 62.2659 82.8591 63.5034 83.0275 64.7124C83.2459 66.2754 83.6113 67.8185 83.9268 69.3672C84.0988 70.2115 84.2715 71.058 84.4942 71.8902C84.8046 73.0471 83.9089 73.6859 83.4 74.4638C81.8363 76.8533 80.1256 79.1507 78.6439 81.588C77.3771 83.6713 76.2344 85.8488 75.2517 88.0791C74.5415 89.6914 74.1861 91.4593 73.6637 93.155C73.608 93.3356 73.4924 93.4983 73.2633 93.6353C73.4703 89.5786 73.678 85.5219 73.8849 81.4652C73.8649 81.4617 73.8457 81.4588 73.8264 81.456C73.8557 81.81 73.8849 82.1647 73.9142 82.5194H74.1469C74.1469 79.6046 74.1676 76.6898 74.1326 73.7758C74.124 73.0664 74.3653 72.5732 74.8841 72.1235C75.762 71.3613 76.0253 69.5678 75.4337 68.6806C74.5822 67.4052 73.037 66.8214 71.9008 67.3474C70.5898 67.9541 69.8011 69.5835 70.2329 70.8838C70.3614 71.2707 70.5448 71.7389 70.8531 71.9458C71.6525 72.484 71.721 73.2119 71.6988 74.0548C71.6632 75.4587 71.6896 76.8626 71.8394 78.2657C71.8773 78.1701 71.9151 78.0744 71.9015 78.1087C72.1364 83.2309 72.3762 88.4631 72.616 93.6953C72.5382 93.7081 72.4604 93.7203 72.3826 93.7317C72.3048 93.5604 72.1706 93.3934 72.1585 93.2178C71.9943 90.8098 70.8517 88.745 69.8375 86.6439C68.9761 84.8575 68.0975 83.0732 67.1133 81.3525C66.1862 79.7352 65.1413 78.1808 64.09 76.6384C63.255 75.413 62.2715 74.2854 61.4829 73.0335C61.2509 72.6653 61.3801 72.0051 61.4779 71.5048C61.7148 70.2893 62.1009 69.1003 62.2965 67.8799C62.5656 66.2084 62.709 64.5162 62.9231 62.8354C62.9524 62.607 63.1315 62.3972 63.1594 62.1688C63.2058 61.782 63.1594 61.3837 63.2008 60.9955C63.2593 60.4373 62.9552 60.2546 62.4764 60.189C61.1453 60.0063 61.0668 59.8828 61.3444 58.4104Z" fill="#231F20"/>
<path d="M77.7015 11.1979C78.129 11.5925 78.4751 11.7567 78.5301 11.9894C78.7749 13.0349 78.9155 14.1041 79.1389 15.1547C79.2295 15.5807 79.4351 15.9811 79.5878 16.3929L80.0089 16.2695C79.9325 15.9626 79.899 15.6371 79.7719 15.3523C79.4679 14.67 79.5899 14.4773 80.5213 14.401C80.5691 14.9234 80.6162 15.4494 80.6719 16.0561C81.5776 15.6878 81.6882 14.8456 82.0437 14.1826C82.2057 13.8821 82.3991 13.5988 82.5782 13.3076C82.7081 13.3468 82.838 13.3861 82.9672 13.4261C83.142 15.1782 83.3312 16.9289 83.4882 18.6825C84.5281 30.2795 83.7701 41.9029 83.9964 53.512C84.0256 55.0172 84.0006 55.0165 82.4983 55.0144C81.1422 55.0115 79.7848 54.9801 78.4302 55.0215C77.6779 55.0458 77.4731 54.7681 77.4745 54.028C77.4952 43.7828 77.4845 33.5383 77.4881 23.2923C77.4895 19.8901 77.5045 16.4864 77.5295 13.0835C77.533 12.5582 77.6222 12.0336 77.7015 11.1979Z" fill="#F9A72B"/>
<path d="M68.4839 23.9434V22.6081C68.4417 22.606 68.4003 22.6045 68.359 22.6024C68.3482 22.8329 68.3275 23.0649 68.3275 23.2961C68.3218 33.4514 68.319 43.6075 68.314 53.7628C68.3133 55.0182 68.3104 55.0168 67.0878 55.0168C65.7618 55.0168 64.4336 54.9761 63.1104 55.0367C62.2432 55.0767 61.9963 54.6599 61.9998 53.9084C62.0184 50.0858 62.0412 46.2617 62.0462 42.4391C62.0548 36.8037 62.0384 31.1683 62.0612 25.5336C62.0662 24.4116 61.9998 23.229 62.3217 22.1842C62.877 20.3806 62.4773 18.5728 62.6793 16.7843C62.8028 15.6887 63.0968 14.6124 63.3587 13.3064C64.0175 14.6396 64.5363 15.6901 65.0402 16.71C65.2779 15.9906 65.537 15.2098 65.7946 14.4276C65.9109 14.424 66.0266 14.4197 66.1422 14.4162C66.1964 15.2227 66.2514 16.0299 66.3063 16.8364C66.3877 16.8392 66.4691 16.8414 66.5511 16.8435C66.9515 15.127 67.3519 13.4106 67.7523 11.6948C67.9 11.7012 68.0478 11.7077 68.1962 11.7141C68.2597 12.7754 68.3233 13.8359 68.3911 14.9629C68.4482 14.7345 68.4946 14.5511 68.5973 14.1414V23.9199C68.5595 23.9284 68.5217 23.9356 68.4839 23.9434Z" fill="#38A48E"/>
<path d="M70.3256 17.0504C71.0736 19.1059 70.9808 21.3812 72.3982 23.4481C72.531 22.7308 72.6166 22.2633 72.7037 21.7944C72.7786 21.7794 72.8536 21.7637 72.9285 21.748C73.0641 21.9764 73.199 22.2055 73.4095 22.5595C73.7621 21.5974 73.4331 20.3199 74.9918 20.0173C75.1453 20.579 75.4365 21.2206 75.4764 21.8779C75.5635 23.2889 75.3009 24.752 75.5721 26.1159C76.4749 30.6558 75.8647 35.2221 75.9839 39.7712C76.1031 44.3496 76.0081 48.9331 76.0081 53.5143C76.0081 54.8047 75.9732 54.8433 74.7028 54.8454C73.5273 54.8475 72.3483 54.7919 71.1778 54.8618C70.3099 54.9146 70.1158 54.5649 70.1187 53.7699C70.1415 47.9531 70.1379 42.1357 70.1229 36.319C70.1144 33.0346 70.038 29.7508 70.0494 26.4663C70.0594 23.6065 70.1479 20.7467 70.2107 17.8869C70.2171 17.6071 70.2857 17.3295 70.3256 17.0504Z" fill="#231F20"/>
<path fill-rule="evenodd" clip-rule="evenodd" d="M40.5945 130.578C41.2582 130.99 41.9926 131.198 42.7863 131.198C43.0346 131.198 43.2902 131.178 43.5507 131.136C43.6649 131.118 43.7762 131.089 43.8576 131.056C45.6497 130.668 47.3718 129.391 48.9755 127.262C50.5628 125.154 51.9367 122.337 53.0586 118.889C54.5917 114.237 55.6144 108.504 56.0997 101.847C57.914 100.544 59.9009 99.2325 62.0092 97.9449C62.1891 97.8307 62.3047 97.6659 62.3546 97.4503C62.4039 97.2341 62.3718 97.0335 62.2576 96.8501C62.1434 96.6731 61.9771 96.5589 61.763 96.509C61.5474 96.4611 61.3462 96.494 61.1706 96.6032C59.4499 97.6345 57.7919 98.7115 56.2353 99.8077C56.5329 94.572 56.5087 88.8288 56.164 82.728C56.0826 81.1436 55.9727 80.1273 55.8285 79.6213C55.623 78.8947 55.229 78.7113 54.9371 78.6849C54.5881 78.6549 54.1156 78.7741 53.803 79.5635C53.5875 80.1059 53.2178 81.3977 52.6718 83.5095C52.3785 84.645 52.1408 85.5436 51.9581 86.2073C51.7754 86.8732 51.5049 87.8303 51.148 89.0772C50.7919 90.3154 50.4422 91.4017 50.1075 92.3081C49.7799 93.1995 49.3909 94.2123 48.9527 95.3206C48.5266 96.3969 48.0534 97.4032 47.5438 98.3075C47.0385 99.2082 46.509 100.015 45.9715 100.705C44.1002 103.112 42.6079 104.261 41.5416 104.097C40.9735 104.009 40.5039 103.485 40.147 102.54C39.6867 101.269 39.5139 99.6164 39.6324 97.6223C39.7523 95.6175 40.1798 93.5357 40.9028 91.4374C41.6229 89.3455 42.5657 87.6112 43.7048 86.283C43.849 86.1188 43.9118 85.924 43.8911 85.7013C43.8704 85.4851 43.779 85.3045 43.617 85.1611C43.4536 85.019 43.2595 84.9548 43.0361 84.9762C42.8234 84.9976 42.6364 85.0911 42.4972 85.2495C41.1976 86.7398 40.1441 88.6539 39.3655 90.9406C38.5897 93.2166 38.1401 95.4734 38.0294 97.648C37.9181 99.8291 38.1229 101.655 38.6382 103.076C39.2056 104.625 40.0985 105.493 41.2861 105.657C43.0004 105.919 44.9567 104.63 47.2534 101.678C47.9192 100.788 48.5837 99.6942 49.2296 98.4253C49.8734 97.1613 50.4251 95.9651 50.8676 94.8703C51.3136 93.7691 51.7825 92.4194 52.2636 90.8586C52.7546 89.2641 53.1029 88.083 53.3306 87.2472C53.5582 86.41 53.8508 85.2945 54.2077 83.9028L54.5638 82.536C54.5669 82.5849 54.5696 82.6339 54.5723 82.6837C54.5746 82.7255 54.5769 82.7678 54.5795 82.8108C54.9435 89.3691 54.9421 95.4862 54.5745 100.995C51.7219 103.114 49.1804 105.314 47.0207 107.536C44.841 109.775 43.1103 111.893 41.8777 113.831C40.648 115.767 39.6945 117.672 39.0458 119.494C38.3927 121.321 38.0466 122.958 38.0173 124.358C37.9888 125.762 38.1865 127.013 38.6061 128.081C39.0586 129.2 39.7281 130.041 40.5945 130.578ZM42.6835 115.601C45.2321 111.368 49.1747 107.174 54.404 103.128C53.8894 109.039 52.9287 114.167 51.5491 118.375L51.5484 118.376C50.5236 121.544 49.2767 124.142 47.8436 126.101C46.4283 128.033 44.9652 129.182 43.4943 129.515C42.732 129.69 42.0711 129.606 41.4802 129.251C40.8878 128.893 40.4253 128.305 40.1042 127.503C39.5225 126.082 39.4576 124.303 39.91 122.219C40.3661 120.118 41.2996 117.891 42.6835 115.601Z" fill="#231F20"/>
<path fill-rule="evenodd" clip-rule="evenodd" d="M63.2169 104.978C63.6223 105.228 64.0626 105.356 64.5494 105.356C64.6664 105.356 64.7856 105.348 64.9076 105.335C65.4957 105.241 66.0317 104.939 66.4999 104.436C66.9281 103.978 67.2393 103.401 67.427 102.717H67.4884C68.4969 102.717 69.5153 102.338 70.5195 101.589C71.5843 100.795 72.4636 99.7765 73.1288 98.566C73.2387 98.3805 73.2644 98.1706 73.203 97.9615C73.1424 97.7474 73.0118 97.584 72.8133 97.4762C72.6192 97.3727 72.4144 97.3499 72.201 97.4063L72.1981 97.4077C71.989 97.4691 71.827 97.594 71.7135 97.7838C71.2047 98.718 70.5302 99.5324 69.708 100.202C68.9793 100.792 68.2742 101.103 67.6076 101.127C67.6083 100.986 67.6054 100.846 67.5962 100.699C67.5077 99.8778 67.3749 99.1698 67.2022 98.5974C67.0195 97.9936 66.8161 97.5654 66.5798 97.2856C66.3522 97.0159 66.1274 96.8196 65.9111 96.7011C65.697 96.5834 65.465 96.5184 65.2152 96.507H65.2031C64.7792 96.507 64.3966 96.674 64.0683 97.0037C63.7857 97.2856 63.5794 97.6453 63.4524 98.0771C63.2768 98.0871 63.1219 98.1556 63.0006 98.2748C62.3726 98.828 61.9443 99.6095 61.7274 100.596C61.5075 101.583 61.6153 102.58 62.0464 103.558C62.3219 104.193 62.7158 104.672 63.2169 104.978ZM65.0896 98.2563C65.136 98.1863 65.171 98.1485 65.1967 98.1271C65.221 98.1485 65.2731 98.207 65.3658 98.3498C65.4393 98.469 65.5121 98.6288 65.5807 98.8258C65.6527 99.0321 65.7313 99.3083 65.8155 99.6487C65.884 99.9264 65.9382 100.265 65.9746 100.655C65.6035 100.435 65.3359 100.178 65.176 99.8864C64.9683 99.5117 64.8877 99.1234 64.9369 98.7295C64.959 98.5325 65.0097 98.3769 65.0896 98.2563ZM63.2326 101.303C63.2654 100.866 63.366 100.477 63.5309 100.144C63.8863 101.149 64.6657 101.898 65.8554 102.375C65.7341 102.736 65.5671 103.04 65.3544 103.281C65.1196 103.551 64.8841 103.707 64.6564 103.743C64.1775 103.817 63.7971 103.536 63.4902 102.87C63.2733 102.453 63.1876 101.926 63.2326 101.303Z" fill="#231F20"/>
<path d="M72.4001 108.281C72.6549 108.466 72.9404 108.56 73.253 108.56C73.3401 108.56 73.4279 108.553 73.5178 108.54C73.7176 108.507 73.9246 108.439 74.138 108.336C74.7004 108.052 75.2906 107.459 75.8916 106.57C76.4797 105.702 77.0335 104.623 77.5381 103.363C78.2354 101.665 78.7143 99.9554 78.9641 98.2746C79.6614 99.0048 80.5028 99.4194 81.4699 99.5136C82.4298 99.6107 83.4076 99.3816 84.3604 98.8156C85.3068 98.2561 86.1097 97.4503 86.7499 96.4197C86.8591 96.2363 86.8912 96.035 86.8441 95.8238C86.7956 95.6054 86.665 95.4334 86.4651 95.3227C86.2753 95.2214 86.0797 95.1957 85.8763 95.235H85.8749C85.6743 95.2814 85.5066 95.3963 85.3646 95.5925C84.8985 96.374 84.3126 96.9864 83.6231 97.4103C82.9473 97.8243 82.2807 98.0049 81.6369 97.9292C80.4857 97.8214 79.6535 97.0092 79.0925 95.4462C78.9469 95.0394 78.6336 94.8553 78.184 94.9231C78.0056 94.9773 77.855 95.0765 77.7379 95.2107C77.6052 95.3599 77.5388 95.5347 77.5424 95.7317C77.5652 97.157 77.3326 98.735 76.8508 100.419C76.3655 102.109 75.7852 103.57 75.1258 104.764C74.4799 105.934 73.9018 106.653 73.39 106.913C73.3272 106.951 73.298 106.955 73.2937 106.946C73.2937 106.946 73.2573 106.923 73.2045 106.814C73.1752 106.753 73.106 106.56 72.9832 105.931C72.8869 105.453 72.8362 104.838 72.8312 104.103C72.8255 103.363 72.894 102.259 73.0339 100.824C73.1724 99.4001 73.3958 97.7358 73.6977 95.8873C73.7433 95.6582 73.7034 95.4519 73.5749 95.2728C73.4507 95.0994 73.2794 94.9923 73.0596 94.953C72.8441 94.9216 72.6428 94.9659 72.4637 95.0879C72.2731 95.2157 72.1596 95.392 72.1361 95.5904C70.8814 103.068 70.967 107.218 72.4001 108.281Z" fill="#231F20"/>
<path fill-rule="evenodd" clip-rule="evenodd" d="M87.0164 103.472C87.3861 103.657 87.7857 103.75 88.209 103.75C88.366 103.75 88.5266 103.737 88.69 103.712C89.453 103.591 90.1881 103.193 90.8761 102.526C92.5433 100.895 94.284 98.2832 96.0533 94.7511C96.1354 94.5734 96.1475 94.3764 96.089 94.1659C96.0255 93.9525 95.8884 93.789 95.6914 93.6955C95.493 93.6006 95.2868 93.5928 95.0805 93.6656C94.8771 93.7362 94.7187 93.864 94.6052 94.0574C92.9394 97.4061 91.3114 99.8648 89.7656 101.366C88.994 102.132 88.3367 102.351 87.7629 102.059C87.6651 102.002 87.5666 101.926 87.4696 101.832C87.4068 101.772 87.2926 101.631 87.1099 101.311C86.9643 101.058 86.8465 100.745 86.7594 100.378C86.6724 100.01 86.626 99.4887 86.6224 98.8307C86.6188 98.1812 86.6724 97.4568 86.7816 96.6767C88.0148 95.2429 88.9327 93.9168 89.5086 92.7349C90.121 91.4766 90.2473 90.5645 89.899 89.955C89.6478 89.4733 89.2246 89.2806 88.6736 89.3848C87.9627 89.5197 87.2904 90.1991 86.6181 91.4588C85.9751 92.6621 85.509 94.2508 85.2321 96.1807V96.2378C85.0515 97.4175 84.9837 98.4702 85.033 99.3674C85.0822 100.285 85.2271 101.023 85.4619 101.563C85.6953 102.102 85.9415 102.518 86.192 102.804C86.4454 103.092 86.7209 103.316 87.0164 103.472ZM88.7018 90.8903C88.0702 91.4406 87.5278 92.5033 87.0774 94.0742C88.0574 92.7295 88.5991 91.6668 88.7018 90.8903Z" fill="#231F20"/>
<path fill-rule="evenodd" clip-rule="evenodd" d="M94.8565 115.4C94.8929 115.403 94.9293 115.405 94.9643 115.405C95.0178 115.405 95.0699 115.402 95.122 115.395C95.3447 115.358 95.5324 115.221 95.6808 114.989C95.8093 114.785 95.8985 114.58 95.9456 114.378C95.9906 114.193 96.0455 113.918 96.1119 113.558C96.159 113.33 96.1191 113.123 95.9913 112.943C95.8871 112.797 95.7472 112.696 95.5731 112.64C95.5374 110.261 95.6609 106.273 95.9421 100.78C96.2261 95.1796 96.6044 89.6926 97.0676 84.4719L97.1075 84.4098C98.5007 81.1582 99.4456 78.2627 99.916 75.8032C100.401 73.2646 100.358 71.7315 99.7846 71.117C99.4792 70.7873 99.0988 70.6852 98.702 70.8258C98.3251 70.9343 97.9904 71.2933 97.6778 71.9242C97.3923 72.5059 97.1511 73.1568 96.9619 73.8598C96.7742 74.5571 96.5944 75.3736 96.4281 76.2864C96.2597 77.2199 96.144 77.9643 96.0734 78.561C96.0027 79.1598 95.9385 79.7286 95.8807 80.2724C95.2176 86.7336 94.6745 94.1433 94.2634 102.299C94.0928 105.891 93.9965 108.833 93.9779 111.04C93.9544 112.853 93.9908 114.009 94.0843 114.475C94.2213 115.146 94.5675 115.347 94.8565 115.4ZM98.6049 73.9426C98.2894 74.976 98.0118 76.3078 97.7763 77.9329C98.2209 76.387 98.4985 75.0538 98.6049 73.9426Z" fill="#231F20"/>
<path d="M106.736 99.9438C106.726 99.9438 106.714 99.9438 106.704 99.9431C105.273 99.8938 104.156 98.3708 103.291 95.2897C102.616 96.5572 101.991 97.6314 101.431 98.4885C100.804 99.4021 100.178 99.7732 99.5701 99.6041C98.9806 99.4849 98.608 98.9353 98.4788 97.9725C98.3625 97.2395 98.3868 96.3224 98.5524 95.2497C98.7172 94.1835 99.0434 93.1093 99.523 92.0559C100.013 90.9761 100.629 90.2381 101.354 89.8634C102.433 89.271 103.561 89.4773 104.703 90.4786C104.865 90.6221 104.956 90.8041 104.977 91.0203C104.999 91.2416 104.936 91.4371 104.791 91.6013C104.65 91.7611 104.468 91.8532 104.252 91.8739C104.031 91.8953 103.836 91.8318 103.671 91.6898C102.683 90.824 102.099 91.1866 101.748 91.5349C101.052 92.2129 100.546 93.3413 100.244 94.8915C99.9998 96.1412 99.9198 97.0861 100.005 97.7127C100.032 97.6785 100.058 97.6414 100.085 97.6035C100.737 96.6365 101.528 95.2426 102.432 93.469L102.855 92.6333C103.031 92.3243 103.307 92.1815 103.667 92.2208C104.027 92.2622 104.272 92.4827 104.356 92.8467C104.548 93.8109 104.765 94.6709 105.004 95.4075C105.241 96.1383 105.45 96.6921 105.626 97.0504C105.801 97.408 105.983 97.6999 106.17 97.9154C106.413 98.2002 106.523 98.2816 106.566 98.3058C106.626 98.3379 106.679 98.3494 106.732 98.3422C107.011 98.3508 107.29 98.1745 107.616 97.8298C107.979 97.4472 108.421 96.7307 108.93 95.6987C109.446 94.6531 109.942 93.3349 110.406 91.7818C110.481 91.5499 110.615 91.3843 110.808 91.2858C111.002 91.1852 111.205 91.1659 111.41 91.2323C111.616 91.2987 111.77 91.4293 111.872 91.6213C111.97 91.8132 111.993 92.0109 111.943 92.2115C110.453 97.1204 108.862 99.6383 107.075 99.9209C106.972 99.9366 106.86 99.9438 106.736 99.9438Z" fill="#231F20"/>
<path d="M59.8892 119.262C68.6228 112.383 79.5732 109.586 90.5364 109.304C91.1588 109.287 91.1609 108.32 90.5364 108.335C79.297 108.626 68.1425 111.538 59.2047 118.578C58.7159 118.963 59.4046 119.643 59.8892 119.262Z" fill="#231F20"/>
</svg>
